<svg xmlns="http://www.w3.org/2000/svg" width="420.536" height="154.815" viewBox="0 0 420.536 154.815">
  <path id="Intersection_5" data-name="Intersection 5" d="M549.6,98.427a44.494,44.494,0,0,1-5.134-18.12c-.319-1.933-.58-3.847-1.968-5.5-.16-.192-.008-.6.268-.483a4.541,4.541,0,0,1,2.326,2.957,18.4,18.4,0,0,1,.949,5.343,60.237,60.237,0,0,0,5.43,15.8Zm-4.867,0c-2.708-5.434-4.448-11.383-4.456-16.778a.091.091,0,0,1,.091-.1.108.108,0,0,1,.1.071c2.075,5.558,3.38,11.226,6.117,16.538l.139.267Zm-2.975,0a168.694,168.694,0,0,0-11.843-13.364c-9.146-8.894-21.181-13.294-30.452-21.929-4.961-4.622-8.7-11.96-4.995-18.151-.381-4.553-8.575-3.439-11.14-1.412a6.107,6.107,0,0,0-.746.741,5.569,5.569,0,0,1-.506,5.238c-1.4,1.849-3.333,1.4-4.9.055-1.749-1.51-3.6-3.756-3.123-6.332.279-1.5,1.757-3.082,3.214-2.472,2.609-8.888,15.114-5.421,21.816-7.462-.646-5.284,2.969-9.742,8.008-11.784,7.788-3.155,16.913-1.625,24.358,1.792,8.247,3.785,15.413,10.259,21.579,17.889v3.127c-5.463-7.364-11.859-14.14-19.848-18.384a35.731,35.731,0,0,0-15.406-4.385c-4.574-.155-12.717,1.286-15.962,5.731a.64.64,0,0,1,.185.646c-1.082,4.469,12.365,3.419,14.612,3.813a33.5,33.5,0,0,1,9.439,3.25c7.114,3.647,12.951,9.538,17.951,15.891,3.157,4.013,6.2,8.261,9.029,12.692v2.1a102.153,102.153,0,0,0-15.781-20.779c-7.9-7.816-17.59-12.682-28.58-11.966-2.957.192-7.461.219-8.078-2.944a8.938,8.938,0,0,0,.511,5.038,8.818,8.818,0,0,1,3.05-.12.132.132,0,0,1,.032.257c-4.639,1.53-6.877,4.672-7.285,8.226a.751.751,0,0,1-.05.6c-.228,4.007,1.777,8.446,5.25,11.661,4.555,4.216,10.544,6.522,16.06,8.915,7.513,3.258,14.9,6.71,19.615,13.966.309.477-.4,1.062-.767.621-5.977-7.275-13.877-10.647-22.1-14.282-5.628-2.487-11.6-5.161-15.716-10.086a17.533,17.533,0,0,1-3.424-9.18c-.205.343-.385.683-.546,1.022-.934,6.953,5.655,11.253,10.325,14.985,3.686,2.946,7.452,5.773,11.274,8.523,6.7,4.826,14.264,9.1,20.3,14.838.2.189-.054.472-.269.365-10.676-5.233-20.906-13.7-30.307-21.114-4.151-3.274-10.6-7.613-12.248-13.231.325,8.91,13.679,16.521,19.735,20.261,7.887,4.87,14.939,9.913,21.274,16.9,3,3.313,5.834,6.8,8.714,10.238Zm-66.4-52.921a7.529,7.529,0,0,0,2.327,3.149c.827.742,1.631,1.343,2.713.824a2.4,2.4,0,0,0,1.353-1.916,2.566,2.566,0,0,1-1.92.936,2.449,2.449,0,0,1-2.453-2.375c.011-.1.134-.184.212-.092.548.638,1.1,1.286,2,1.229a2.22,2.22,0,0,0,1.764-1.649.582.582,0,0,1,.034-.061,1.772,1.772,0,0,1-1.916.36c-.578-.226-.35-1.183.26-.989.877.279,2.006-2.2,2.616-2.738a5.254,5.254,0,0,1,2.187-1.009,16.691,16.691,0,0,1,7.321-.574,5.273,5.273,0,0,1,3.512,3.087c.116-.144.211-.292.336-.436a14.324,14.324,0,0,1,.234-2.012c-2.8-1.686-5.6-2.921-8.9-2.2-2.751.6-4.432,2.51-6.8,3.845a.218.218,0,0,1-.312-.253c2.222-6.431,11.839-6.4,16.349-2.778a6.909,6.909,0,0,1,3.332-4.257c-.1-.288-.172-.572-.245-.855-1.786,1-4.234.854-6.427.707-.812-.055-1.591-.109-2.287-.1-5.534.034-11.562,1.538-12.835,8.065a.5.5,0,0,1-.992-.142,12.79,12.79,0,0,1,.271-1.808A3.017,3.017,0,0,0,475.364,45.506Zm52.573,52.921a1.992,1.992,0,0,1,2.785-.776,2.064,2.064,0,0,1,.96.776Zm-24.991,0c1.153-4.311,1.29-8.742-1-12.58a27.512,27.512,0,0,1-.815,12.58h-1.167a29.11,29.11,0,0,0,1.187-9.914,2.517,2.517,0,0,1-.391.607c-1.515,1.739-5.437,1.007-7.223.468-2.386-.721-5.668-2.627-6.533-5.294-.322-1,.031-2.565.9-2.893a2.534,2.534,0,0,1,1.278-.981c-6.417-.3-6.915,11.164-7.482,16.423q-.086.794-.193,1.583h-1.37c.332-2.134.587-4.295.786-6.491.459-5.055,3.653-14.019,9.415-12.613-3.94-2.833-9.3.991-11.125,5.516-1.628,4.036-1.476,8.554-2.025,12.82q-.049.385-.1.768h-1.6c.42-2.421.77-4.9,1.1-7.454.646-5.011,2.137-10.993,6.968-13.312a7.087,7.087,0,0,1,9.093,2.259c2.924-2.32,8.775-1.266,11.687.359a12.375,12.375,0,0,1,5.247,6.387,20.306,20.306,0,0,1,1.563,4.153c.024,0,.041.016.063.021.006.062,0,.121.012.185l.011.07-.011.014c-.1.132-.2.274-.3.406-.012.015-.026.03-.039.045a.55.55,0,0,1-.126.03c-.11.049-.23.081-.343.123a.873.873,0,0,1-.582.182,2.937,2.937,0,0,1-2.228-.224.265.265,0,0,1-.1-.067l-.008-.011a2.255,2.255,0,0,1-.571-.556c-.718-1.025-.729-2.618-1.3-3.765a11.269,11.269,0,0,0-.764-1.284.227.227,0,0,1-.159-.1,4.962,4.962,0,0,0-3.234-2.155.617.617,0,0,1,.1.221l.005.03c3.046,4.476,3.487,9.424,2.528,14.438Zm4.189-12.013c.039.838.125,1.684.242,2.514a8.052,8.052,0,0,0,.357,1.371,2.369,2.369,0,0,0,1.035,1.057,1.086,1.086,0,0,0,.56.026,1.332,1.332,0,0,1-.013-.275,5.738,5.738,0,0,0-.051-1.091,12.5,12.5,0,0,0-.728-2.364,14.492,14.492,0,0,0-.925-1.6,11.1,11.1,0,0,0-4.135-3.688c-2.8-1.3-5.706-.644-8.594-.257-.174.024-.193-.235-.031-.276,3.082-.81,6.7-1.389,9.609.335a8.012,8.012,0,0,1,2.89,3.064,13.773,13.773,0,0,1,1.525,2.219c.142.257.3.528.458.809A13.869,13.869,0,0,0,504.5,81.4c-.169-.088-.338-.176-.517-.253a13.387,13.387,0,0,0-6.482-.828,23.708,23.708,0,0,1-4.154,1.159c-.129.012-.24,0-.364.01a.538.538,0,0,1-.6.016l-.084,0a8.559,8.559,0,0,0-2.14.7c-1.366.711-.461,2.513.316,3.357.008.008,0,.019-.013.013-.812-.672-1.88-2.14-1.324-3.293a2,2,0,0,1,.681-.766,4.773,4.773,0,0,0-.851.215c-.073.026-.147.049-.221.074-3.208,2.673,3.352,6.446,5.04,7.059a10.2,10.2,0,0,0,4.554.657c3.354-.531,2.9-3.69.884-5.491-.056.025-.108.052-.164.077a2.937,2.937,0,0,1,.98,2.23c0,.008-.012.015-.016.007a9.569,9.569,0,0,0-1.266-1.589,2.221,2.221,0,0,1-.285-.352,3.955,3.955,0,0,1-2.076.638,3.039,3.039,0,0,1-2.828-2.7c0-.035.046-.06.064-.026,1.133,2.038,2.837,2.259,4.788,1.384a7.023,7.023,0,0,1,1.9-.664.393.393,0,0,1,.546-.028c.059,0,.109-.011.169-.008a4.811,4.811,0,0,1,2.084.569c-.119-.173-.244-.341-.357-.518a.046.046,0,0,1,.062-.066,12.022,12.022,0,0,1,3.588,3.882c.122.217.214.445.313.67a5.972,5.972,0,0,1,.307-1.137.053.053,0,0,1,.049-.032A.051.051,0,0,1,507.134,86.414ZM460.555,98.427c.263-5.163.371-10.345.488-15.507.167-7.328-.448-16.375-6.784-20.463,4.747,6.734,5.43,14.319,4.928,22.728-.253,4.243-.377,8.74-.637,13.243h-1.717c1.433-11.556,3.217-23.42-2.16-33.21a2.632,2.632,0,0,1-.093.725c-.622,2.266-4.444,3.443-6.273,3.8-2.442.47-6.188.3-8.089-1.687-.711-.742-1.057-2.312-.416-3.013a2.7,2.7,0,0,1,.73-1.476c-5.874,2.732-1.473,13.233.243,18.207a61.6,61.6,0,0,1,2.809,12.055c.2,1.5.347,3.038.444,4.6h-1.265A76.325,76.325,0,0,0,438,77.737c-1.726-4.744-2.655-14.266,3.1-15.7-4.728-.7-7.911,5.235-7.633,10.142.248,4.377,2.294,8.351,3.606,12.43a58.47,58.47,0,0,1,2.573,13.819h-1.36A94.914,94.914,0,0,0,433.71,78.9c-1.542-4.791-2.735-10.846.612-15.182a7.084,7.084,0,0,1,9.1-2.226c1.637-3.445,7.324-5.235,10.62-5.14a11.621,11.621,0,0,1,7.4,3.269,18.96,18.96,0,0,1,3.156,2.988.212.212,0,0,1,.066-.011c.03.052.052.107.089.16l.039.059,0,.017c-.037.167-.06.337-.1.5,0,.021-.011.04-.016.059a.616.616,0,0,1-.1.086c-.078.1-.171.179-.256.271a.928.928,0,0,1-.443.435,2.991,2.991,0,0,1-2.091.84.244.244,0,0,1-.122-.01l-.013-.007a2.112,2.112,0,0,1-.745-.231c-1.077-.581-1.76-2-2.755-2.765a10.3,10.3,0,0,0-1.227-.793.228.228,0,0,1-.184-.012,4.762,4.762,0,0,0-3.808-.418.562.562,0,0,1,.185.15l.018.023c12.113,6.779,9.561,24.827,8.706,37.459ZM440.888,64.841c-.054.059-.111.114-.167.17-1.744,3.893,5.727,4.208,7.5,3.967a10.4,10.4,0,0,0,4.358-1.539c2.779-2.046,1.041-4.664-1.529-5.333-.04.048-.077.1-.115.145a3.118,3.118,0,0,1,.693.286,3.076,3.076,0,0,1,1.127,1.254c0,.008,0,.019-.012.014a8.962,8.962,0,0,0-1.807-.833,2.112,2.112,0,0,1-.4-.182,4.174,4.174,0,0,1-1.591,1.543,2.893,2.893,0,0,1-3.675-1.1c-.02-.027.014-.074.046-.053,1.877,1.3,3.5.7,4.873-1a7.452,7.452,0,0,1,1.422-1.482.406.406,0,0,1,.478-.282c.052-.026.092-.059.148-.085a4.816,4.816,0,0,1,2.109-.465c-.181-.1-.365-.191-.541-.3a.047.047,0,0,1,.03-.087,11.3,11.3,0,0,1,4.854,1.8,6.575,6.575,0,0,1,.564.454,5.946,5.946,0,0,1-.205-1.162.053.053,0,0,1,.1-.034c.391.732.825,1.448,1.28,2.138a7.588,7.588,0,0,0,.9,1.063,2.239,2.239,0,0,0,1.373.461,1.106,1.106,0,0,0,.513-.237,1.31,1.31,0,0,1-.129-.241,5.5,5.5,0,0,0-.507-.952,11.768,11.768,0,0,0-1.653-1.779,13.832,13.832,0,0,0-1.506-1,10.52,10.52,0,0,0-5.262-1.37c-3.063.146-5.383,2.091-7.806,3.787-.146.1-.273-.121-.146-.234,2.418-2.166,5.416-4.376,8.75-4.191a7.563,7.563,0,0,1,3.885,1.394,12.849,12.849,0,0,1,2.3,1.276c.235.165.491.334.753.51a13,13,0,0,0-7.229-3.879c-.188,0-.376,0-.571.014a13.579,13.579,0,0,0-6.155,2.29,25.29,25.29,0,0,1-3.231,2.978c-.11.072-.213.117-.321.179a.557.557,0,0,1-.535.3c-.023.012-.049.029-.073.041a9.128,9.128,0,0,0-1.62,1.63c-.924,1.273.649,2.465,1.7,2.858.011,0,0,.019-.005.018-1.013-.224-2.59-1.039-2.578-2.331a2.131,2.131,0,0,1,.285-1.005A5.2,5.2,0,0,0,440.888,64.841Zm-26.6,33.585a2.086,2.086,0,0,1-.962-2.288,1.887,1.887,0,0,1,2.759-1.179,1.937,1.937,0,0,1,.9,1.967,1.979,1.979,0,0,1-1.017,1.5Zm-14.255,0a13.679,13.679,0,0,0,1.044-1.833c5.651-11.917-8.62-22.153-17.775-13.844a.773.773,0,0,1-.365.183c.028.114.038.229.062.344,4.991-4.853,16.526-2.047,18.048,5.191a.036.036,0,0,1-.059.036c-2.655-2.2-4.445-4.855-7.911-5.894a10.473,10.473,0,0,0-3-.445,8.271,8.271,0,0,0-6.637,3.05.749.749,0,0,1-.145.122A15.654,15.654,0,0,1,380.1,96.382a14.112,14.112,0,0,0,1.462,2.045h-1.08a13.846,13.846,0,0,1-.826-1.53,14.576,14.576,0,0,1-1.549,1.53h-2.588a12.7,12.7,0,0,0,2.127-1.65,14.393,14.393,0,0,0,2.831-16.355A12.707,12.707,0,0,0,366.182,73.6c-5.035,1.265-7.839,5.476-9.326,10.318a13.86,13.86,0,0,1,1.6,1.68,4.863,4.863,0,0,1,3.058-4.541,4.411,4.411,0,0,1,5.852,3.5c.01.05-.053.1-.089.055a7.208,7.208,0,0,0-3.476-2.526c-2.7-.587-4.279,2.04-4.135,4.569a6.541,6.541,0,0,0,.1.833,14.38,14.38,0,0,1,1.274,2.877,4.73,4.73,0,0,0,2.3,1.738c2.59.818,4.454-1.088,4.755-3.658,0-.027.035-.04.049-.014,1.323,2.257-.717,4.808-2.925,5.144a4.9,4.9,0,0,1-3.651-.966,14.85,14.85,0,0,1,.056,4.209c-.03.217-.08.424-.117.637.624.355,1.257.681,1.894.974h-1.71q-.154-.163-.3-.334c-.025.112-.051.223-.079.334h-2.153a12.615,12.615,0,0,0,.4-1.905c.9-6.976-3.873-13.193-10.579-13.685-.3-.022-.6-.033-.894-.033h0c-6.227,0-10.389,4.924-11.535,10.971a23.274,23.274,0,0,0,.7,4.653h-1.574a12.3,12.3,0,0,1-.315-1.708.75.75,0,0,1-.489-.659,14.225,14.225,0,0,1,8.112-14.335c-4.929-2.51-9.725-1.105-13.859,2.643a.018.018,0,0,1-.028-.023c3.279-5.53,10.337-6.491,15.528-3.568a.738.738,0,0,1,.263.243,12.445,12.445,0,0,1,1.675-.342,12.708,12.708,0,0,0-8.861-3.767,10.608,10.608,0,0,0-9.626,6.022c-3.292,6.388-.534,12.255,4.407,15.493h-3.6a14.589,14.589,0,0,1-2.432-16.489,14,14,0,0,1,1.838-2.687,13.337,13.337,0,0,1-14.666-8.281c-2.544-6.529-.016-17,7.77-17.113a13.151,13.151,0,0,1,15.038,5.865A13.549,13.549,0,0,1,335.142,75.2a12.325,12.325,0,0,1,7.546.881c-3.031-4.558-3.578-12.231.137-16.3,8.849-9.7,24.128,2.006,19.841,13.565,6.848-3.369,16.554-1,19.755,7.813.024.065.04.131.064.2,9.643-8.534,24.807.247,21.045,13.8a14.188,14.188,0,0,1-1.354,3.278Zm-50.92-17.811a13.394,13.394,0,0,1,6.53,2.357,13.677,13.677,0,0,1,1.046-3.53,11.357,11.357,0,0,1-9.077.538q.184.234.362.479a.528.528,0,0,1,.065.114h.085C348.456,80.573,348.785,80.587,349.117,80.616Zm-4.691-19.8c-4.091,3.738-3.21,11.818.282,15.8,3.6,4.11,8.208,2.965,12.614,1.63a12.366,12.366,0,0,1,3.151-3.541c4.784-7.892-2.313-16.428-9.678-16.429A9.291,9.291,0,0,0,344.426,60.814Zm-25.3-5.231c-5.407,2.639-5.891,11.493-2.983,16.609a10.816,10.816,0,0,0,16.945,2.738,12.255,12.255,0,0,0,.2-16.952,10.736,10.736,0,0,0-8.168-3.431A20.177,20.177,0,0,0,319.123,55.583Zm37.264,42.844a9.7,9.7,0,0,0,.385-5.713c-.986-4.117-4.849-8.543-9.241-7.171a.449.449,0,0,1-.328-.817c6.644-3.634,12.31,6.8,10.585,13.7Zm-10.759,0a7.691,7.691,0,0,0,1.325-1.947c.965-2.035,1.2-4.836-.474-6.571-2.691-2.8-4.594.176-6.336,1.985a.332.332,0,0,1-.547-.335c.719-2.884,3.815-4.867,6.465-3.368,2.8,1.584,3,5.32,1.889,8.094a9.544,9.544,0,0,1-1.2,2.141Zm-5.972,0a6.472,6.472,0,0,1-.04-5.828.133.133,0,0,1,.247.07c-.142,1.973-.554,4.039.7,5.758Zm-36.4,0a53.68,53.68,0,0,0-1.536-14.462C297.465,66.71,285.885,55.108,271.559,50.2c14.645,9.85,22.837,30.787,24.487,47.941.009.094.018.189.026.284h-2.058c-1.467-17.244-10.132-36.019-22.776-45.18a28.666,28.666,0,0,0-17.281-5.594,43.773,43.773,0,0,0-13.106,2.228C230.726,53.073,220.811,57.4,215,67.183A93.564,93.564,0,0,0,204.261,95.37q-.3,1.545-.462,3.056h-2.543c.973-8.515,4.453-16.825,7.653-24.535,4.45-10.727,10.613-18.1,20.958-22.754,8.341-3.747,17.911-7.168,27.155-6.307,21.443.155,41.165,15.975,46.634,38.571a55.049,55.049,0,0,1,1.5,15.025Zm-13.813,0c.216-5.66-1.084-11.343-4.524-13.6a.482.482,0,0,1-.134-.661,23.063,23.063,0,0,0-4.894-15.127c-3.149-4.161-7.579-10.373-13.275-8.519a.312.312,0,0,1-.315-.1l-.2.11a.363.363,0,0,1-.451-.061A17.983,17.983,0,0,0,254.378,53.2c-3.379-.654-10.244-1.608-14.3.187a.525.525,0,0,1-.1.3,8.692,8.692,0,0,1-2.01,2.377.547.547,0,0,1-.3.014,16.122,16.122,0,0,0-5.054.072c-2.5.645-4.767,2.473-6.626,4.21C220.874,65.155,212.642,73,212.83,80.942c.005.015.021.022.025.04.152,1.176.231,1.831.364,3.012a.3.3,0,0,1-.141.257c-3.275,2.5-5.8,8.507-6.649,14.174h-.66c.368-1.679.892-3.342,1.4-4.933a31.75,31.75,0,0,1,2.717-6.866c1.2-1.955,2.574-2.717,2.572-5.209-1.272-7.369,3.8-12.7,8.578-17.887,2.777-3.016,5.567-6.405,9.3-8.135,2.71-1.256,6.547-.439,8.728-2.451a.538.538,0,0,1,.245-.122c3.07-2.656,8.449-1.716,12.277-1.236a24.464,24.464,0,0,1,8.288,2.4c.955.5,6.426,5.7,6.765,5.6a.011.011,0,0,1,.011,0,.025.025,0,0,0,.012,0c4.563-3.433,9.218,2.69,11.979,6.083,4.064,4.995,8.363,11.463,6.68,18.317a.31.31,0,0,1,.056.025c4.008,3.022,4.635,9.5,4.615,14.3,0,.037,0,.074,0,.112Zm-43.323,0a10.665,10.665,0,0,1-2.861-2.816,6.777,6.777,0,0,1-2.162,2.816h-2.421a5.69,5.69,0,0,0,4.054-3.908.437.437,0,0,1,.737-.2,13.86,13.86,0,0,0,5.509,4.112Zm-81.719,0a92.176,92.176,0,0,0-21.862-24.494A114.747,114.747,0,0,0,133,67.175V64.991c14.028,8.472,26.27,19.244,34.3,33.436Zm-9.965,0A101.8,101.8,0,0,0,140.11,82.058Q136.659,78.864,133,76v-2.25a118.356,118.356,0,0,1,9.6,8.267,100.9,100.9,0,0,1,13.822,16.409Zm98.444-.163c8.126-6.25,20.4-10.934,30.188-13.183a.5.5,0,0,1,.255.973,143.086,143.086,0,0,0-17.591,6.633c-4.217,1.93-8.355,4.484-12.838,5.614h-.005C252.873,98.3,252.867,98.276,252.882,98.264Zm15.524-.452a.135.135,0,0,1,0-.185c.609-.653,1.751-.523,2.55-.657a20.867,20.867,0,0,1,3.064-.451c.232-.006.284.309.112.431a6.629,6.629,0,0,1-3.168,1.111,9.737,9.737,0,0,1-1.37.164A1.612,1.612,0,0,1,268.406,97.812Zm-32.84-.422c-4.1-1.5-7.96-3.908-11.8-6.019-3.217-1.769-6.6-3.485-8.907-6.514-.175-.231.048-.634.326-.444,6.61,4.506,14.151,7.876,20.465,12.775.078.06.049.21-.045.21A.1.1,0,0,1,235.565,97.39Zm140.189-1.273c3.055-4.487,4.771-9.844,1.756-14.99-2.857-4.881-8.527-6.039-13.424-4.5-.835.262-1.136-1.031-.353-1.348a12.337,12.337,0,0,1,14.8,5.217c2.91,4.933,2.225,12.506-2.35,16.062a.239.239,0,0,1-.148.052A.338.338,0,0,1,375.754,96.117Zm-151.934-.181a8.012,8.012,0,0,1-1.388-.5c-.714-.342-.209-1.594.535-1.334a8.007,8.007,0,0,1,1.332.638,2.237,2.237,0,0,1,.992.774.4.4,0,0,1-.221.573,1.2,1.2,0,0,1-.331.046A3.488,3.488,0,0,1,223.821,95.936Zm-45.669-2.11a2.046,2.046,0,1,1,2.043,2.148A2.134,2.134,0,0,1,178.152,93.827Zm213.927,1.166a.265.265,0,0,1,.175-.445c1.966-.04,3.972.171,4.737-2.254a4.039,4.039,0,0,0-2.474-4.991c-4.368-1.615-7.979,4.5-4.034,7.52a.1.1,0,0,1-.1.176,4.713,4.713,0,0,1-2.046-6.176,5.264,5.264,0,0,1,9.7,4.025,4.717,4.717,0,0,1-4,3.064A2.518,2.518,0,0,1,392.078,94.993Zm-49.7.734a.469.469,0,0,1-.2-.512,2.724,2.724,0,0,1,.113-.313l0-.01.006-.033a4.732,4.732,0,0,1,.383-.8,3.328,3.328,0,0,0-.025-1.584.971.971,0,0,1,1.653-.719,2.647,2.647,0,0,1,.2,3.07,1.89,1.89,0,0,1-1.522,1.063A1.273,1.273,0,0,1,342.375,95.728Zm-94.982-2.293c5.213-10.335,11.637-20.118,17-30.422.236-.455.832-.055.646.4C260.79,73.761,255,85.353,247.543,93.556a.085.085,0,0,1-.064.031A.1.1,0,0,1,247.393,93.434Zm144.644-1.173c-.8-.392-.675-1.537-.178-2.139a1.574,1.574,0,0,1,2.255-.181,1.082,1.082,0,0,1,.355,1.252.62.62,0,0,1-.722.36c-.212-.04-.6-.522-.811-.441-.178.067-.174.567-.192.723a.5.5,0,0,1-.468.486A.547.547,0,0,1,392.037,92.262ZM242,91.522a76.4,76.4,0,0,1-4.815-34.04c.046-.495.764-.515.749,0a106.015,106.015,0,0,0,4.252,33.986.09.09,0,0,1-.089.122A.1.1,0,0,1,242,91.522Zm-8.976-.021a4.464,4.464,0,0,1-1.979-.9,2.71,2.71,0,0,1-1.345-1.513.272.272,0,0,1,.249-.345,2.562,2.562,0,0,1,1.873.715,4.664,4.664,0,0,1,1.525,1.451.4.4,0,0,1-.312.592Zm24.61-.362a7.173,7.173,0,0,1,1.539-1.436,2.93,2.93,0,0,1,1.79-.692.308.308,0,0,1,.249.455,3.044,3.044,0,0,1-1.469,1.262,6.834,6.834,0,0,1-1.968.664.15.15,0,0,1-.141-.253Zm105.557-2.28c-.035-.595.349-1.443-.209-1.884-.228-.18-.457-.173-.608-.476a.718.718,0,0,1,.018-.746.756.756,0,0,1,.842-.36c1.559.441,1.875,2.691.809,3.837a.45.45,0,0,1-.334.154A.546.546,0,0,1,363.192,88.86Zm-118.075-2.4a1.839,1.839,0,0,1-.4-1.441c.033-.779.066-1.552.156-2.327.085-.737,1.159-.784,1.13,0s-.113,1.552-.2,2.327a1.888,1.888,0,0,1-.61,1.441.075.075,0,0,1-.045.017A.045.045,0,0,1,245.117,86.464Zm-10.293-3.042a4.681,4.681,0,0,1-1.834-1.982c-.292-.53-1-1.765-.219-2.227.75-.443,1.317.706,1.563,1.239a7.034,7.034,0,0,1,.584,1.475,4.98,4.98,0,0,1,.008,1.432.073.073,0,0,1-.068.072A.067.067,0,0,1,234.824,83.422Zm38.368-.315a.25.25,0,0,1-.055-.443c.678-.3,1.432-.379,2.131-.643.587-.221,1.231-.771,1.869-.632a.194.194,0,0,1,.127.236c-.234.684-1.068.885-1.673,1.1a5.964,5.964,0,0,1-1.918.427A2.546,2.546,0,0,1,273.192,83.107Zm-75.957-.167a1.386,1.386,0,0,1-.456-1.827,2.677,2.677,0,0,1,.537-.624c.167-.138.442-.25.58-.383a.9.9,0,0,1,1.482.906,6.127,6.127,0,0,1-.407,1.448,1.323,1.323,0,0,1-1.117.657A1.177,1.177,0,0,1,197.235,82.94Zm15.936-.317a.03.03,0,0,1,0,.06C213.135,82.684,213.135,82.624,213.171,82.624ZM275.078,80.7a.176.176,0,0,1-.073-.286,3.864,3.864,0,0,1,1.6-.833,2.827,2.827,0,0,1,1.786-.324.271.271,0,0,1,.109.437,2.937,2.937,0,0,1-1.664.77,4.932,4.932,0,0,1-1.363.274A2.093,2.093,0,0,1,275.078,80.7ZM263.742,78.74a4.734,4.734,0,0,1,1.394-1.615c.423-.374.911-1.019,1.509-.964a.24.24,0,0,1,.23.242,1.367,1.367,0,0,1-.494.868,4.39,4.39,0,0,1-1.656,1.377.144.144,0,0,1-.07.01,2.485,2.485,0,0,1-.729.335.168.168,0,0,1-.185-.253Zm-40.785-.2a4.373,4.373,0,0,1-1.841-1.927.684.684,0,0,1,.1-.793,1.126,1.126,0,0,1,.126-.1.6.6,0,0,1,.754.1,4.51,4.51,0,0,1,1.3,2.371.359.359,0,0,1-.347.365A.267.267,0,0,1,222.956,78.538Zm250.722-.905a2.21,2.21,0,0,1-1.3-2.034,2.14,2.14,0,0,1,3.127-1.927,1.985,1.985,0,0,1,1.345,1.927,2.508,2.508,0,0,1-2.363,2.208A1.976,1.976,0,0,1,473.679,77.632ZM243.116,77.4a5.128,5.128,0,0,1-.445-2.2,3.284,3.284,0,0,1,.326-2.2.332.332,0,0,1,.58,0,3.349,3.349,0,0,1,.447,2.2,5.077,5.077,0,0,1-.327,2.2.3.3,0,0,1-.279.172A.344.344,0,0,1,243.116,77.4Zm111-.5c-2.126-1.007-2.469-3.938-1.6-5.971.777-1.813,2.935-3.726,4.944-2.95,2.145.829,1.842,3.646,1.033,5.383-.257.553-.986.142-.89-.394.206-1.155.98-3.331-.66-3.883-1.238-.418-2.668.987-3.229,1.983a4.115,4.115,0,0,0-.173,3.922c1,1.724,2.568,1.2,3.727.059a.026.026,0,0,1,.044.013c.261,1.379-.95,2.063-2.111,2.063A2.573,2.573,0,0,1,354.12,76.9ZM537.2,50.339c-8.632-9.367-18.962-14.416-31.3-15.2a.5.5,0,0,1,0-1.006c21.006-1.943,37.665,18.327,47.131,37.317v3.318C548.234,66.271,543.9,57.612,537.2,50.339ZM354.649,72.848a1.621,1.621,0,0,1,1.586-1.469.633.633,0,0,1,.6.479c.108.74-.659.71-.873,1.2-.147.331.023.762.034,1.111a.225.225,0,0,1-.213.224,1.018,1.018,0,0,1-.1.005C354.936,74.394,354.564,73.573,354.649,72.848Zm-216.814.967q-2.415-1.493-4.835-2.951V69.69q2.563,1.838,5.043,3.783a.208.208,0,0,1-.1.373A.2.2,0,0,1,137.834,73.814ZM322.3,70.6c-.054-.18.152-.393.317-.273,1.747,1.283,3.638,2.422,5.566.65a5.066,5.066,0,0,0,.286-6.929,4.161,4.161,0,0,0-5.677-.678c-2.221,1.622-1.6,4.169-.815,6.377a.127.127,0,0,1-.178.152c-2.521-1.39-1.9-5.487-.08-7.205a5.256,5.256,0,0,1,7.855.889,6.145,6.145,0,0,1-.758,8.109,5.03,5.03,0,0,1-3.173,1.081A3.217,3.217,0,0,1,322.3,70.6ZM252.79,72.463a2.244,2.244,0,0,1,.228-1.831,5.461,5.461,0,0,1,1.17-2.164.494.494,0,0,1,.837.364,5.241,5.241,0,0,1-.774,2.236c-.265.568-.592,1.35-1.244,1.489a.244.244,0,0,1-.045,0A.188.188,0,0,1,252.79,72.463Zm-84.271-2.63c-7.145-2.551-17.069-10.565-19.9-19.5A31.478,31.478,0,0,1,133,43.787V41.842q.44.4.94.791a31.07,31.07,0,0,0,14.256,6.153q1.294.215,2.586.321h.022c.42.036.839.06,1.248.072.352.012.7.023,1.044.023a28.893,28.893,0,0,0,13.893-3.434,18.626,18.626,0,0,0,9.153-11.042c.056-.143.1-.286.148-.429.159-.465.305-.942.453-1.431-.2.417-.431.834-.657,1.252-.068.119-.136.239-.193.357-4.854,8.407-13.915,14.083-23.272,13.022q-.527-.054-1.054-.143c-.329-.059-.658-.12-.975-.191a19.357,19.357,0,0,1-2.632-.763c-.045-.012-.022-.1.023-.084q1.31.161,2.586.215c.271.023.544.023.816.035.34.013.692.013,1.032.013,9.549-.024,17.851-4.079,22.672-12.843.067-.1.113-.2.169-.3q.443-.824.851-1.717c-.465.464-.93.906-1.406,1.336-.068.059-.124.119-.193.178-.669.6-1.35,1.157-2.041,1.67-.261.191-.59-.2-.363-.441.544-.6,1.1-1.2,1.644-1.836a.273.273,0,0,0,.08-.084c5.4-6.081,11.035-13.606,10.048-22.036-.045-.429-.113-.87-.2-1.311a16.659,16.659,0,0,0-.567-2.147C179.485-3.8,169.086-6.388,159.5-8.13c-.17-.023-.148-.3.011-.31a23.748,23.748,0,0,1,2.608-.084C150.258-16.069,137.473-11.247,133,2.637V-1.2A17.875,17.875,0,0,1,134-3.4q-.506.421-1,.856v-1.7c.932-.767,1.879-1.476,2.822-2.122a.5.5,0,0,1,.238-.1c6.555-7.93,19.223-10,27.071-2.206a.254.254,0,0,1,.08.167c8.971.537,17.953,5.963,21.038,15.144a17.054,17.054,0,0,1,.647,2.5c8.3-.024,15.991,6.415,18.362,14.679a.563.563,0,0,1,.181.191c4.287,7.024,7.5,17.028,4.775,25.351a10.268,10.268,0,0,1-5.637,6.427,6.813,6.813,0,0,1-2.824.8,9.034,9.034,0,0,1-3.209-.25c.17,6.01-1.395,11.256-7.054,13.605a25.708,25.708,0,0,1-9.829,1.843A33.6,33.6,0,0,1,168.519,69.833Zm-13.848-11.71a30.41,30.41,0,0,0,13.45,10.017,30.864,30.864,0,0,0,17.908,1.371c6.963-1.6,8.835-6.749,9.594-13.427a12.734,12.734,0,0,1-3.47-1.752,5.087,5.087,0,0,1-1.554-1.169c-.612.441-1.508.656-1.95.108a9.393,9.393,0,0,1-.5,1.538c.511,1.228.795,2.528,1.418,3.72.522,1,1.191,1.885,1.622,2.934a.1.1,0,0,1-.136.107c-1.667-.906-3.073-3.434-3.505-5.581a42.344,42.344,0,0,0-2.415,4.15,30.525,30.525,0,0,0-1.5,6.07,1.946,1.946,0,0,1-.5,2.158c-1.293,1.288-4.026,1.145-5.535.465-1.032-.465-2.37-1.61-2.007-2.933a.081.081,0,0,1,.136-.036l.012.012a5.93,5.93,0,0,1,1.282-5.473c1.088-1.408,2.551-2.421,3.561-3.911a8.993,8.993,0,0,0,.749-1.36c-1.781.442-3.357-1.336-3.81-3.208-3.6,3.2-9.028,4.794-13.553,3.16-.068-.023-.068-.131.012-.131,5.138.357,9.221-.561,13.224-4.126a.635.635,0,0,1,.193-.107,2.478,2.478,0,0,1,1.384-2.265c-1.168-1.085-.737-3.494.068-4.663a3.876,3.876,0,0,1,1.259-1.168c-.012-.012-.034-.024-.034-.048a18.648,18.648,0,0,0-.59-2.349.239.239,0,0,1,.012-.156c-.023-.048-.023-.083-.046-.131a13.494,13.494,0,0,0-1.316-2.683c-3.652,8.49-15.674,12.878-24.565,13.307,2.994,7.858,9.64,13.355,18.214,16.241.046.023.046.107-.012.1-9.186-.871-16.161-7.752-19.246-16.313-.5.013-1,0-1.486-.023A19.537,19.537,0,0,0,154.671,58.123Zm27.548-8.514a7.836,7.836,0,0,1-.534,7.071,18.045,18.045,0,0,1-2.642,3.208,11.119,11.119,0,0,0-2.823,6.547,5.224,5.224,0,0,0,1.327,1.347,5.54,5.54,0,0,0,4.139.393c.873-.083,1.214-.525,1.021-1.311.216-.6.046-.978-.533-1.157a7.166,7.166,0,0,0-1.769-.644,19.35,19.35,0,0,0-3.108-.477.1.1,0,0,1,0-.179,7.329,7.329,0,0,1,5.592.871,2.148,2.148,0,0,1,.351.3c0-.286,0-.572.022-.859a10.061,10.061,0,0,1-1.338-.656c-.51-.25-1.032-.477-1.531-.751a.055.055,0,0,1,.022-.1,6.081,6.081,0,0,1,2.949.572c.034-.191.08-.37.114-.549-.363-.167-.7-.405-1.078-.548-.306-.12-.669-.12-.862-.418a.045.045,0,0,1,.012-.036c.261-.25.669-.107.986-.023a3.954,3.954,0,0,1,1.066.393,17.872,17.872,0,0,1,1.18-3.339c.681-1.467,1.667-2.707,2.382-4.138a7.932,7.932,0,0,0,.567-5.223,4.965,4.965,0,0,0-.839-1.777c-1.044-1.407-2.166-2.433-3.947-1.777a.1.1,0,0,1-.114-.131,1.694,1.694,0,0,1,.873-.763,1.566,1.566,0,0,0-.511-.561,2.146,2.146,0,0,0-1.6-.191c-.964.382-.726,2.326-.839,3.22-.011.023-.034.023-.034,0-.465-1.181-.579-3.411.953-3.757a2.8,2.8,0,0,1,1.973.322,1.407,1.407,0,0,1,.692.87,3.982,3.982,0,0,1,2.574,1.169,6.579,6.579,0,0,1,1.406,2.277,4.037,4.037,0,0,0-2.619-4.937c-.012-.012-.012-.036,0-.036,3.062-.25,4.695,3.494,3.152,6.106a.468.468,0,0,1-.181.167,5.364,5.364,0,0,1,.09.74,7.219,7.219,0,0,1-.045,1.979,1.644,1.644,0,0,0,1.338-.107,2.047,2.047,0,0,0,.76-1.669,7.61,7.61,0,0,0-.885-3.231c-.147-.358.386-.715.624-.418a.1.1,0,0,1,.022.048,2.853,2.853,0,0,0,1.52-1.967,2.666,2.666,0,0,0-1.464-2.862c-.238.489-.85.2-.918-.25-.25-1.562-1.951-1.98-3.209-2.051h-.046a.9.9,0,0,1-.635.035c-1.044.131-1.576.787-2.007,1.837a.318.318,0,0,1,.012.441c-.023.012-.035.036-.057.048a.418.418,0,0,1-.511.334,3.468,3.468,0,0,0-3.947,1.431c-.839,1.359-.385,2.528-.261,3.935a.283.283,0,0,1,.159.465,3.116,3.116,0,0,0-.635,3.721,5.158,5.158,0,0,0,1.2,1.67,2.02,2.02,0,0,0,.363.155,4.743,4.743,0,0,0,1.418.048,9.337,9.337,0,0,0,.318-1.229,2.132,2.132,0,0,1-1.7-.966,1.9,1.9,0,0,1,.046-2.218.044.044,0,0,1,.08.023,2.989,2.989,0,0,0,.419,1.765,1.786,1.786,0,0,0,1.27.668,20.733,20.733,0,0,0,.136-2.838.061.061,0,0,1,.057-.058A.036.036,0,0,1,182.219,49.609Zm17.737-10.315a14.64,14.64,0,0,0-7.111,4.484,1.1,1.1,0,0,1-.193.167,3.456,3.456,0,0,1,.17,1.383c-.068.883-.828,2.528-1.8,2.826a5.127,5.127,0,0,1,.34,4.031,10.418,10.418,0,0,1,1.383,1.4,18.609,18.609,0,0,0,4.265,1.788,17.684,17.684,0,0,0,4.207,0,8.714,8.714,0,0,0,2.938-1.633c2.915-3.028,3.879-8.633,3.55-12.95A36.111,36.111,0,0,0,203.937,27.5a18.377,18.377,0,0,1-.635,6.655.444.444,0,1,1-.862-.215c1.418-13.081-6.045-22.537-17.364-23.372.624,6.44-2.234,13-6.328,18.173a.779.779,0,0,1,.261.465,13.906,13.906,0,0,1-.635,7.465c1.067,1.443,2.484,3.721,2.518,5.569a4.258,4.258,0,0,1,2.257-.155.407.407,0,0,1,.283-.1c-.227-1.085.829-1.86,1.939-2.255a.7.7,0,0,1,.034-.25A49.765,49.765,0,0,0,187.81,30.8a16.41,16.41,0,0,0-1.566-9.79.086.086,0,0,1,.136-.1c4.344,5.056,2.393,12.771.59,18.53h.068a4.192,4.192,0,0,1,3.073,1.419,3.048,3.048,0,0,1,.511.942,3.541,3.541,0,0,1,1.3.906l.034-.036a13.613,13.613,0,0,1,7.973-3.482A.05.05,0,0,1,199.956,39.294ZM482.224,70.431a.969.969,0,0,1,1.648-.718l.178.21a.767.767,0,0,1,0,1.015l-.178.211a.814.814,0,0,1-.635.3A1.045,1.045,0,0,1,482.224,70.431Zm-121.086.8a.454.454,0,0,1-.447-.457c-.341-4.381-2.337-8.855-6.825-9.892-4.03-.931-6.2,1.343-9.727,2.425a.029.029,0,0,1-.03-.042c5.408-8.21,18.289-1.679,17.486,7.51a.462.462,0,0,1-.455.457ZM475.631,69.2a1.907,1.907,0,1,1,1.905,2A1.989,1.989,0,0,1,475.631,69.2Zm60.015,1.823C524.916,61.99,501.264,59.379,501,41.13a.629.629,0,1,1,1.258,0c2.1,18.643,23.874,17.68,33.48,29.8a.065.065,0,0,1-.045.109A.069.069,0,0,1,535.646,71.025ZM325.085,68.1c.087-.676-.707-.5-1.09-.8a.6.6,0,0,1-.159-.573c.252-.884,1.347-.869,1.979-.458a1.991,1.991,0,0,1,.772,2.225.775.775,0,1,1-1.5-.389Zm10.289.48c-1.03-4.8-2.6-8.724-7.371-10.589a10.319,10.319,0,0,0-6.808-.339c-3,.969-3.9,2.782-5.327,5.273a.08.08,0,0,1-.149-.042c.021-5.753,7.164-7.975,11.586-6.817,5.031,1.318,9.271,6.97,8.462,12.514a.18.18,0,0,1-.188.153A.2.2,0,0,1,335.375,68.577Zm83.478-1.541a2.059,2.059,0,0,1-1.443-1.517,2.1,2.1,0,0,1,1.554-2.658h-.017l.086-.02c.032-.007.066,0,.1-.009a1.944,1.944,0,0,1,.408-.031,2.184,2.184,0,0,1,.349.039c.021.005.042,0,.063.007l.054.014h-.02a1.815,1.815,0,0,1,1.269.931,2.313,2.313,0,0,1,.157,1.616,1.534,1.534,0,0,1-.045.171,1.888,1.888,0,0,1-.076.211,2.093,2.093,0,0,1-1.98,1.291A2.419,2.419,0,0,1,418.853,67.036ZM232.1,64.786A2.647,2.647,0,0,1,231.914,63a2.921,2.921,0,0,1,.566-1.661.281.281,0,0,1,.451.062,2.948,2.948,0,0,1,.207,1.773,2.584,2.584,0,0,1-.551,1.674.3.3,0,0,1-.213.092A.331.331,0,0,1,232.1,64.786Zm143.742-4.327a.385.385,0,0,1-.037-.041,3.623,3.623,0,0,1-4.591-.436,4.061,4.061,0,0,1-1.287-3.764,1.9,1.9,0,0,1,.081-.2c-7.5-8.955-2.5-22.275,3.8-29.968,7.717-9.433,19.947-7.713,28.925-.164,9.191,7.729,8.339,22.027,1.581,30.811a19.995,19.995,0,0,1-28.47,3.766Zm6.3-1.344a12.385,12.385,0,0,0,4.008,3.584,11.706,11.706,0,0,0,2.35.91,18.213,18.213,0,0,0,3.793-.442,14.431,14.431,0,0,1-9.823-5.174c-.111-.14.039-.313.178-.2,2.107,1.715,3.986,3.262,6.568,4.028a30.748,30.748,0,0,0,4.954.807,18.766,18.766,0,0,0,8.143-5.581,25.8,25.8,0,0,0,4.941-8.852c-3.056,3.273-7.137,6.142-11.379,6.748-.034,0-.052-.055-.021-.07,4.746-2.3,8.676-4.475,11.98-8.815a19.254,19.254,0,0,0-2.151-14.578c-3.74,8.608-11.669,14.637-20.193,17.042-.1.028-.148-.132-.05-.161,9.092-2.695,15.369-8.8,20.1-17.089a18.455,18.455,0,0,0-2.2-2.759c-5.394,4.3-10.288,9.223-15.652,13.521-.017.013-.034-.014-.022-.029,3.919-5.478,9.614-10.227,14.915-14.234-.254-.234-.506-.467-.779-.691-.367-.3-.75-.578-1.129-.857a.3.3,0,0,1-.075.022C390.5,26.825,385.134,38.8,380.769,46.7a.063.063,0,0,1-.116-.048C382.3,37.72,391.029,27.17,399.8,25.6a24.207,24.207,0,0,0-6.828-3.206c-.386.264-.769.5-1.153.745a11.688,11.688,0,0,1,2.348.627c.028.01.028.055-.005.055-1.094.018-2.181-.044-3.268-.086-.546.352-1.086.709-1.6,1.1A28.491,28.491,0,0,1,393.8,24.7a.047.047,0,0,1,0,.093c-1.755.283-3.544.452-5.312.691a11.66,11.66,0,0,0-1,.975,23.106,23.106,0,0,0-3.786,6.241c-.013.029-.057.011-.049-.02a18.78,18.78,0,0,1,3.674-7.026,24.1,24.1,0,0,0-4.017.951c-3.57,5.074-5.15,10.833-6.34,17.894-.013.076-.113.056-.122-.014-.831-5.927,1.13-12.044,4.427-17.017a13.184,13.184,0,0,0-2.109,1.333c-3.011,2.345-4.376,5.533-5.773,8.834a20.851,20.851,0,0,0,.157,6.031c.011.063-.09.079-.1.016a18.229,18.229,0,0,1-.4-5.243c-.438,1.027-.891,2.058-1.412,3.074-.1.2-.382.068-.343-.143a22.414,22.414,0,0,1,2.421-6.8,22.55,22.55,0,0,1,1.188-3.246A26,26,0,0,0,370.5,42.057a8.334,8.334,0,0,1,.1,1.648c-.01.154-.183.228-.275.087-.023-.035-.037-.078-.058-.113a35.689,35.689,0,0,0-.219,6.423c.449.4.915.78,1.372,1.2a.019.019,0,0,1-.016.032,4.465,4.465,0,0,1-1.325-.68c.043.642.106,1.283.181,1.928a6.842,6.842,0,0,0,.815.294c.038.009.035.074-.005.074a4.358,4.358,0,0,1-.777-.1c.042.331.071.664.119.994.016.1-.127.155-.153.048q-.125-.545-.232-1.1a4.11,4.11,0,0,1-1.185-.517,5.947,5.947,0,0,1-.514-.385,14.446,14.446,0,0,0,1.927,3.654,6.774,6.774,0,0,1,2.454-2.02,4.2,4.2,0,0,0,.7-1.87,10.584,10.584,0,0,0-.045-1.625.463.463,0,0,1-.059-.047,8.344,8.344,0,0,1-2.255-5.227c0-.051.07-.084.1-.03a32.111,32.111,0,0,0,2.319,4.245c.017-.057.03-.115.051-.17.016-.038.048-.048.071-.074a1.638,1.638,0,0,1,2.083-1.372c.014.006.017.02.031.027a.721.721,0,0,1,.654.221.327.327,0,0,1,.018.423.9.9,0,0,1-.551.3,7.183,7.183,0,0,1,.245.807c.1.41.25.943-.011,1.305-.021.03-.064.02-.089,0-.3-.257-.344-.759-.474-1.129a6.152,6.152,0,0,0-.373-.807c-.249.1-.476.216-.708.323a1.884,1.884,0,0,0-.126.308A5.5,5.5,0,0,1,374.1,52.7a3.358,3.358,0,0,1-.553.934.269.269,0,0,1-.094.219,19.574,19.574,0,0,1-1.755,1.3,1.958,1.958,0,0,0-.99,1.74,2.7,2.7,0,0,0,.652,2.086,3.406,3.406,0,0,0,1.912,1.227c.026-.145.141-.273.3-.221,1.669.555,1.664-1.42,1.023-2.454a2.706,2.706,0,0,0-1.166-1.051c-.449-.209-.955-.15-1.38-.409a.029.029,0,0,1-.01-.038c.471-.664,1.56-.476,2.2-.2a3.091,3.091,0,0,1,1.76,2.13,2.7,2.7,0,0,1-.086,1.5.354.354,0,0,1,.1-.044c.022-.022.051-.036.073-.059.36-.723.03-2.1.108-2.763a2.8,2.8,0,0,1,.841-1.723,3.309,3.309,0,0,1,3.243-.8,1.88,1.88,0,0,0,.563-.479,1.363,1.363,0,0,0,.186-.53,3.789,3.789,0,0,0-.5-.1c-.5-.042-1.018-.063-1.521-.083a.038.038,0,0,1-.019-.069,2.357,2.357,0,0,1,1.62-.5c.168.01.355.021.534.048-.047-.15-.09-.3-.138-.445a9.668,9.668,0,0,0-.816-1.946,4.137,4.137,0,0,0-.374-.527,4.293,4.293,0,0,1-.535.906,2.765,2.765,0,0,1-1.17,1.091c-.033.014-.051-.027-.041-.053a10.272,10.272,0,0,1,.857-1.443c.167-.289.3-.624.5-.9a2.909,2.909,0,0,0-.805-.495c-.381-.156-.508-.166-.709-.547a.226.226,0,0,1,.06-.3c.733-.522,1.525.418,2.049.962a7.974,7.974,0,0,1,1.713,3.013l.069.214c10.639.068,20.148-.6,25.167-11.809.1-.216.435-.077.378.157-2.734,10.975-16.447,13.243-25.528,11.705a2.666,2.666,0,0,1-.047,2.291c5.889,4.429,11.384,4.436,17.953,2.136.185-.064.29.212.143.323-5.377,4.043-13.389,2.38-18.242-2.3a.949.949,0,0,1-.91.31c-.006,0-.008.012-.015.017-.7.441-1.405.339-2.155.637-1.43.568-1.076,1.765-1.287,3.067a2,2,0,0,1-.67,1.252,20.287,20.287,0,0,0,5.841,3.009,10.707,10.707,0,0,1-3.688-5.256c-.019-.069.077-.122.112-.052a12.838,12.838,0,0,0,3.535,4.736,8.09,8.09,0,0,0,1.739,1.034,19.008,19.008,0,0,0,2.22.352A12.217,12.217,0,0,1,382,59.211a.086.086,0,0,1,.072-.136A.1.1,0,0,1,382.15,59.115Zm-14.13-8.181a9.126,9.126,0,0,0,1.005.977,5.932,5.932,0,0,0,.942.558c-.128-.711-.234-1.432-.312-2.162a8.737,8.737,0,0,1-2.2-3.361A16.067,16.067,0,0,0,368.02,50.934Zm-.584-4.62a9.564,9.564,0,0,0,1.384,2.511,8.28,8.28,0,0,0,.777.854,32.762,32.762,0,0,1,.17-7.153,11.894,11.894,0,0,1,.207-6.431c0-.024,0-.049,0-.074A26,26,0,0,0,367.436,46.314Zm7.832-18.8a40.544,40.544,0,0,0-3.692,5.42c-.2.535-.454,1.063-.616,1.595s-.287,1.1-.427,1.642a24.3,24.3,0,0,0-.286,3.667A22.922,22.922,0,0,1,377.027,27.5a35.647,35.647,0,0,1,3.155-4.088A16.1,16.1,0,0,0,375.268,27.511Zm7.43-2.679a20.674,20.674,0,0,0-6.6,4.988,22.511,22.511,0,0,0-1.691,3.6,18.216,18.216,0,0,1,7.171-6.373c.583-.849,1.213-1.652,1.865-2.424C383.192,24.689,382.943,24.757,382.7,24.832Zm-1.043-2.107a43.552,43.552,0,0,0-3.3,3.739,15.921,15.921,0,0,1,2.112-1.25c.013-.014.014-.031.032-.041a20.241,20.241,0,0,1,3.741-1.463,27.508,27.508,0,0,1,2.083-2.066A15.7,15.7,0,0,0,381.655,22.725Zm6.047,1.047a20.7,20.7,0,0,0-2.46.4c-.563.645-1.095,1.3-1.585,1.964a22.9,22.9,0,0,1,4.219-1.122,15.531,15.531,0,0,1,1.372-1.309C388.734,23.708,388.219,23.725,387.7,23.772Zm-1.653-.489a17.964,17.964,0,0,1,4.145-.311,10.57,10.57,0,0,1,1.5-.9,19.11,19.11,0,0,0-3.946-.472C387.145,22.152,386.586,22.715,386.05,23.283ZM247.25,61.545a11.545,11.545,0,0,1,1-3.127.587.587,0,0,1,.511-.309.5.5,0,0,1,.418.183.693.693,0,0,1,.091.753,10.99,10.99,0,0,1-1.928,2.558.047.047,0,0,1-.038.019A.064.064,0,0,1,247.25,61.545Zm54.857-14.7a1.327,1.327,0,0,1,0,2.644A1.327,1.327,0,0,1,302.108,46.85ZM424.82,48.674a1.3,1.3,0,0,1,0-2.594,3.757,3.757,0,0,1,1.185.237,1.126,1.126,0,0,1,0,2.12,3.757,3.757,0,0,1-1.17.238Zm-71.746-4.363a1.961,1.961,0,1,1,1.958,2.059A2.046,2.046,0,0,1,353.074,44.311ZM141.889,45.65c-1.645-.036-4.2-1.085-4.866-2.814a1.94,1.94,0,0,1,.385-2.182,30.562,30.562,0,0,0,1-6.189,43.052,43.052,0,0,0-.578-4.818,8.8,8.8,0,0,1-4.83,3.5v-.623c.646-.5,1.348-.921,1.994-1.438,1.044-.811,1.8-1.885,2.756-2.779a8.6,8.6,0,0,1,.136-1.621c-.623.31-1.338-.274-1.735-.931a4.573,4.573,0,0,1-1.871.382,10.042,10.042,0,0,1-1.28.18V25.232c.347-.009.694-.018,1.042-.021a8.929,8.929,0,0,1,1.8-.68A4.958,4.958,0,0,1,137.715,21c-.771-.692-.817-2.516-.533-3.352a3.006,3.006,0,0,1,.7-1.193,1.013,1.013,0,0,1-.125-.226,15.476,15.476,0,0,0-4.729-7.167.047.047,0,0,1,.056-.072A14.411,14.411,0,0,1,139,15.6a.09.09,0,0,1,.012.048,3.788,3.788,0,0,1,1.553-.263,3.135,3.135,0,0,1,.828-.643,4.143,4.143,0,0,1,3.369.048.086.086,0,0,1,.046.023c.612-6.022,1.837-13.9,7.769-16.635a.082.082,0,0,1,.09.131,15.833,15.833,0,0,0-5.24,8.264,48.34,48.34,0,0,0-1.19,8.955,1.2,1.2,0,0,1-.068.238c.851.834,1.508,1.992.885,2.9a.4.4,0,0,1,.215.2,4.563,4.563,0,0,1,2.007,1.109c.647-1.443,2.359-2.719,3.788-3.6q.46-.286.851-.5a13.543,13.543,0,0,1,2.1-.966,11.026,11.026,0,0,1,3.856-.739c.022,0,.034.035.012.035a20.946,20.946,0,0,0-4.729,1.574,10.316,10.316,0,0,0-1.214.692,13.378,13.378,0,0,0-1.883,1.466c-.2.179-.4.37-.579.561a.668.668,0,0,0-.079.107.384.384,0,0,1-.057.143,19.125,19.125,0,0,0-1.451,1.885c-.012.023-.034.023-.056.036a4.618,4.618,0,0,1,.578,1.132c.046.155.091.31.125.477a4.728,4.728,0,0,1-.965,3.768,2.006,2.006,0,0,1-.805.513,2.565,2.565,0,0,1,.386,2.659.894.894,0,0,1,.136.191c.045.108.1.215.159.322a15.941,15.941,0,0,0,1.531,2.66,17.891,17.891,0,0,0,8.756,6.486c.068.024.022.12-.046.12a13.371,13.371,0,0,1-8.392-4.579,17.571,17.571,0,0,1-1.7-2.242,15.3,15.3,0,0,1-1.033-1.908c-1.145,1.5-3.278,2.444-4.718,1.276a8.461,8.461,0,0,0,.148,1.562c.34,1.788,1.27,3.351,1.723,5.1a5.967,5.967,0,0,1-.975,5.545c.011,0,.011,0,.022-.012a.085.085,0,0,1,.1.1c-.177,1.338-1.768,1.813-2.888,1.813ZM138,41.656c-.477.632-.34,1.18.419,1.633a5.585,5.585,0,0,0,3.936,1.418,4.542,4.542,0,0,0,1.723-.655,11.27,11.27,0,0,0-.011-7.178,19.285,19.285,0,0,1-1.169-4.067,7.783,7.783,0,0,1,2.28-6.677c.046-.036.091.023.08.071a18.978,18.978,0,0,0-.987,2.648,1.737,1.737,0,0,0,1.418-.06,2.868,2.868,0,0,0,1.066-1.431c.023-.035.068-.035.08.013a1.838,1.838,0,0,1-.817,2.039,2.015,2.015,0,0,1-1.928.143,9.49,9.49,0,0,0-.193,1.264,5.122,5.122,0,0,0,1.3.561,2.393,2.393,0,0,0,.408.023,5.008,5.008,0,0,0,1.735-1,3.116,3.116,0,0,0,.873-3.673.276.276,0,0,1,.329-.357c.657-1.229,1.519-2.1,1.293-3.7a3.634,3.634,0,0,0-3.039-3,.448.448,0,0,1-.34-.525c-.012-.024-.012-.048-.022-.072a.3.3,0,0,1,.181-.393,2.662,2.662,0,0,0-1.111-2.552.845.845,0,0,1-.568-.3.057.057,0,0,1-.045-.023c-1.18-.477-2.892-.835-3.72.489-.238.382-.907.382-.941-.167a2.524,2.524,0,0,0-2.45,1.979,3,3,0,0,0,.613,2.444.057.057,0,0,1,.046-.023c.329-.179.669.382.4.644a7.179,7.179,0,0,0-2.065,2.564,2.18,2.18,0,0,0,.046,1.86,1.686,1.686,0,0,0,1.18.668,7.473,7.473,0,0,1,.726-1.837,4.979,4.979,0,0,1,.374-.62.458.458,0,0,1-.1-.227c-.386-3.065,2.563-5.759,5.262-4.221.011.012,0,.036-.012.036a3.847,3.847,0,0,0-4.321,3.387,5.929,5.929,0,0,1,2.166-1.479,3.882,3.882,0,0,1,2.813.036,1.356,1.356,0,0,1,.975-.49,2.8,2.8,0,0,1,1.917.561c1.259.966.295,2.957-.589,3.839a.021.021,0,0,1-.034-.012c.238-.882,1.214-2.54.487-3.315a2.184,2.184,0,0,0-1.531-.513,1.438,1.438,0,0,0-.681.3,1.7,1.7,0,0,1,.488,1.061.093.093,0,0,1-.148.084c-1.372-1.371-2.8-.93-4.3-.084a4.8,4.8,0,0,0-1.463,1.253,7.867,7.867,0,0,0-1.508,5.02c.08,1.609.511,3.16.545,4.793a18.581,18.581,0,0,1-.216,3.553,3.953,3.953,0,0,1,1.123.1c.329.06.748.107.9.454a.043.043,0,0,1-.012.035c-.295.179-.623.036-.941.013a4.413,4.413,0,0,0-.682.007c-.174.01-.348.021-.52.016-.034.191-.068.37-.113.561a5.355,5.355,0,0,1,1.248.119,5.012,5.012,0,0,1,1.667.633.045.045,0,0,1-.023.083c-.555.036-1.122.024-1.689.036a10.209,10.209,0,0,1-1.474.024c-.09.262-.193.536-.306.787a2.393,2.393,0,0,1,.442-.119,7.4,7.4,0,0,1,5.433,1.622c.068.048.011.191-.08.155A20.524,20.524,0,0,0,140.8,41a7.608,7.608,0,0,0-1.871-.167,1.2,1.2,0,0,0-.206-.018C138.275,40.814,138.029,41.1,138,41.656Zm304.957-2C430.236,36.19,418.679,18.324,425.9,2.872c-4.316-.158-9.206-1.915-12.16-5.441-2.55-3.046-5.22-8.884-3.2-13.1a.354.354,0,0,1,.624-.016c2.122,4.234,1.975,8.784,5.585,12.173,3.076,2.889,6.611,3.161,10.166,4.3.27-9.643,8.741-19.1,15.881-22.263,11.938-5.285,26.951-2.936,34.257,10.607,4.617,8.56,4.149,19.911-.881,27.472a1.21,1.21,0,0,1,.043.441c-1.2,15.726-14.392,23.489-26.44,23.489A26.043,26.043,0,0,1,442.956,39.651Zm.434-1.6a25.808,25.808,0,0,0,12.286.27,14.675,14.675,0,0,1-3.158-1.406,21.42,21.42,0,0,1-9.43-.682c-6.458-2.055-14.267-8.551-15.212-17.181-.039-.354.342-.434.469-.158,2.05,4.447,3.367,8.245,6.757,11.5a19.291,19.291,0,0,0,10.906,5.41,19.464,19.464,0,0,0,4.832.035,38.364,38.364,0,0,1-4.041-3.271c-.039-.035,0-.1.044-.073a54.03,54.03,0,0,0,5.2,3.166,23.788,23.788,0,0,0,3.122-.774,25.349,25.349,0,0,1-4.753-3.192c-.075-.063-.005-.215.079-.171,1.949,1.024,3.905,2.066,5.907,2.939a83.689,83.689,0,0,0,9.906-4.817c.017-.008.028.018.016.031a21.67,21.67,0,0,1-7.747,5.553,13.536,13.536,0,0,1,2.832,1.15A22.5,22.5,0,0,0,474.324,19a17.4,17.4,0,0,1-5.443,4.055c-11.834,5.578-26.983,1.409-36.042-8.827-.081-.092.009-.25.107-.174,8.657,6.871,18.314,10.719,28.845,8.943.2-.034.4-.077.605-.117a24.177,24.177,0,0,1-5.408-2.219c-.807-.031-1.607-.078-2.379-.143-7.535-.63-16.27-3.327-21.06-10.878-.15-.235.11-.572.31-.385,5.745,5.387,13.587,9.527,21.418,10.385a31.521,31.521,0,0,1-5.087-4.124c-.022-.023,0-.063.026-.044a33.867,33.867,0,0,0,6.643,4.3A25.352,25.352,0,0,0,460,19.748a26.591,26.591,0,0,1-4.725-3.107c-.015-.012,0-.037.013-.031,2.292.886,4.491,2.1,6.8,2.9a21.481,21.481,0,0,0,12.381-6.647c.02-.02.045.014.03.037a14.054,14.054,0,0,1-10.014,7.254,10.773,10.773,0,0,0,6.392-.785,17.179,17.179,0,0,0,5.558-7.042,25.6,25.6,0,0,0,.215-19.749c-5.207-12.678-17.629-16.8-28.5-14.057-12.533,3.164-24.291,16.1-17.572,32.19a.212.212,0,0,1-.344.246A15.843,15.843,0,0,1,427.119,3.9C422.8,19.312,429.925,34.277,443.389,38.055Zm10.764-1.426a21.9,21.9,0,0,1,3,1.318A26.263,26.263,0,0,0,460.013,37a15.4,15.4,0,0,1-2.966-1.166A23.662,23.662,0,0,1,454.153,36.629Zm4.74-15.937a42.588,42.588,0,0,0,5.283,1.787,23.376,23.376,0,0,0,2.369-.763,15.319,15.319,0,0,1-4.778-1.147C460.81,20.659,459.849,20.687,458.894,20.692ZM329.825,35.055c-10.451-3.674-16.388-15.221-13.313-26.723.009-.025.02-.026.03-.051a4.089,4.089,0,0,1-1.223-4.667,3.819,3.819,0,0,1,2.9-2.59,1.572,1.572,0,0,1,.219.01c3.069-6.043,8.885-8.524,14.988-8.867,1.654-8.382,9.675-14.858,16.834-17.8,11.018-4.517,21.055,3.035,25.608,14.133,4.67,11.349-2.459,23.563-12.347,27.983a20.113,20.113,0,0,1-5.706,1.6,34.62,34.62,0,0,1-1.1,4.643C353.9,31.756,345.56,36.3,337.226,36.3A22.342,22.342,0,0,1,329.825,35.055Zm-8.547-20.943c-.8,2.676-1.519,5.065-1.3,7.871a34.979,34.979,0,0,0,1.013,5.16,18.869,18.869,0,0,0,7.822,6.075,23.23,23.23,0,0,0,9.608,1.772c-3.979-1.866-7.968-4.882-9.982-8.842-.026-.034.027-.076.051-.054,3.717,3.876,7.021,6.988,12.046,8.716A17.33,17.33,0,0,0,352.773,27.6c-8.976-.682-17.124-6.383-22.241-13.934-.067-.088.059-.2.125-.111,5.578,8.011,13.207,12.07,22.255,13.836a18.707,18.707,0,0,0,1.681-3.14c-5.718-3.807-11.8-6.909-17.509-10.695-.023-.008,0-.034.008-.024,6.259,1.942,12.484,5.892,17.906,9.711.114-.326.237-.664.336-1.013.145-.462.254-.93.374-1.412-.014-.023-.038-.031-.04-.056a13.8,13.8,0,0,0-1.4-2.569,20.333,20.333,0,0,1-15.077-8.248c-3.04-.67-6.066-1.1-8.7-1.579a.068.068,0,0,1,.009-.133,22.133,22.133,0,0,1,7.6.138,23.281,23.281,0,0,1-1.411-2.6.1.1,0,0,0-.017-.059,3.673,3.673,0,0,1-3.66-2.18c-.616.1-1.255.21-1.893.334-.066.008-.088-.086-.025-.129a15.338,15.338,0,0,1,1.666-.847,4.078,4.078,0,0,1,.6-3.793c.051-.053.116-.086.167-.139-.018-.068-.024-.129-.044-.2A20.293,20.293,0,0,0,330.677.2c-.052.043-.1-.059-.055-.089a15.571,15.571,0,0,1,2.82-1.583c-.052-.27-.1-.528-.143-.8-.461-.042-.913-.1-1.376-.16-.208-.023-.185-.35.015-.386.426-.075.853-.137,1.271-.176a6.6,6.6,0,0,1-.048-.666,21.141,21.141,0,0,0-2.115.288,7.229,7.229,0,0,1-1.434.675.149.149,0,0,1-.174-.231.777.777,0,0,1,.08-.106A31.732,31.732,0,0,0,323.711-1c-.2.576-.375,1.173-.585,1.773a.02.02,0,0,1-.034-.007,4.6,4.6,0,0,1,.142-1.54q-.829.4-1.655.844c0,.3,0,.6.018.91,0,.035-.05.067-.065.02a6.337,6.337,0,0,1-.189-.793c-.279.153-.561.294-.84.46-.086.046-.179-.075-.094-.133.3-.214.593-.419.893-.61a5.174,5.174,0,0,1,.048-1.35,6.207,6.207,0,0,1,.17-.644,13.92,13.92,0,0,0-2.591,3.177,6.554,6.554,0,0,1,2.661,1.711,3.68,3.68,0,0,0,1.911.036,9.342,9.342,0,0,0,1.429-.614c.009-.025.005-.049.026-.076a7.915,7.915,0,0,1,3.866-4.048c.045-.018.1.036.066.076a31.3,31.3,0,0,0-2.971,3.774.816.816,0,0,1,.169-.008c.036.007.049.03.085.05a1.649,1.649,0,0,1,1.95,1.567c0,.012-.009.024-.007.037a.82.82,0,0,1,.022.73.3.3,0,0,1-.371.164.939.939,0,0,1-.458-.437,6.27,6.27,0,0,1-.629.519c-.328.243-.76.582-1.161.45a.065.065,0,0,1-.033-.092c.118-.386.552-.606.832-.856a6.542,6.542,0,0,0,.591-.658c-.171-.208-.362-.389-.53-.585a1.431,1.431,0,0,0-.322-.009A4.848,4.848,0,0,1,322.814,3.9a2.98,2.98,0,0,1-1.028-.213.24.24,0,0,1-.231-.021A18.613,18.613,0,0,1,319.8,2.4a1.781,1.781,0,0,0-1.9-.373,2.536,2.536,0,0,0-1.633,1.37,3.837,3.837,0,0,0-.424,2.318.232.232,0,0,1,.3.217c.1,1.836,1.846,1.136,2.549.14a2.9,2.9,0,0,0,.532-1.516,13.479,13.479,0,0,1-.127-1.5c.011-.013.021-.026.032-.027.755.233.969,1.372.945,2.094a3.148,3.148,0,0,1-1.285,2.482,2.3,2.3,0,0,1-1.368.438c.026.033.063.052.078.087a.3.3,0,0,0,.074.051c.776.1,1.887-.7,2.51-.863a2.512,2.512,0,0,1,1.826.226,3.644,3.644,0,0,1,1.846,2.924,1.909,1.909,0,0,0,.623.382,1.157,1.157,0,0,0,.536,0,4.073,4.073,0,0,0-.091-.529c-.135-.512-.293-1.021-.451-1.53-.014-.034.017-.062.054-.043a2.609,2.609,0,0,1,1.01,1.429,4.286,4.286,0,0,1,.139.547c.115-.1.241-.2.345-.293a9.122,9.122,0,0,0,1.449-1.481,3.793,3.793,0,0,0,.339-.557,4.372,4.372,0,0,1-.992-.2,2.84,2.84,0,0,1-1.385-.772.048.048,0,0,1,.039-.064,9.09,9.09,0,0,1,1.589.338,6.619,6.619,0,0,1,.967.185,3.194,3.194,0,0,0,.158-.967c.011-.433-.026-.561.246-.894a.194.194,0,0,1,.281-.045c.72.538.166,1.648-.145,2.358a7.749,7.749,0,0,1-2.079,2.743,1.909,1.909,0,0,0-.168.14c3.654,10.5,7.583,19.63,19.314,20.656.23.022.226.4,0,.433-10.743,1.148-17.558-11.577-19.357-21.059a2.37,2.37,0,0,1-2.064.762c-1.879,7.34.03,12.766,4.383,18.427a.183.183,0,0,1-.246.258c-5.474-3.884-6.8-12.355-4.328-18.77a1.02,1.02,0,0,1-.588-.793c-.012,0-.012,0-.024-.01-.64-.536-.787-1.263-1.323-1.894-1-1.213-1.943-.453-3.183-.2a1.816,1.816,0,0,1-1.349-.223,23.017,23.017,0,0,0-.636,6.8,10.8,10.8,0,0,1,3.393-5.468c.053-.041.131.044.091.1a12.811,12.811,0,0,0-2.985,5.132A8.478,8.478,0,0,0,317,17.43c.108.779.271,1.552.454,2.31a12.917,12.917,0,0,1,2.322-5.786c.069-.092.2.014.137.115a13.089,13.089,0,0,0-1.79,5.207,12.989,12.989,0,0,0,.01,2.627,20.46,20.46,0,0,0,1.722,3.587A16.137,16.137,0,0,1,321.026,14a.145.145,0,0,1,.126-.081A.141.141,0,0,1,321.277,14.112Zm34.677,5.623c.106-.5.2-1.007.258-1.519-.409.014-.807.025-1.208.013A14.833,14.833,0,0,1,355.955,19.735ZM343.907,6.77a35.378,35.378,0,0,0,1.988,4.144,11.821,11.821,0,0,0,.951,1.411,9.99,9.99,0,0,0,1.059,1.242,33.854,33.854,0,0,0,4.016,3.158,13.422,13.422,0,0,0,1.379.2c.243.031.484.05.737.068a18.967,18.967,0,0,0,2.339-.014c.543-.042,1.072-.105,1.611-.194a17.391,17.391,0,0,0,3.617-.97,24.01,24.01,0,0,0,8.311-5.383c-3.736,1.237-8.049,1.787-11.8.746a10.869,10.869,0,0,1-1.253-.4c-.035-.007-.019-.068.016-.062.4.025.8.049,1.206.061,4.7.231,8.833.087,13.3-1.946a19.034,19.034,0,0,0,4.6-13.929,28.942,28.942,0,0,1-21.359,5.8,32.466,32.466,0,0,1-4.083-.713c-.094-.025-.065-.185.029-.16a31.2,31.2,0,0,0,3.882.642c7.693.752,14.74-1.541,21.5-5.816a19.543,19.543,0,0,0-.722-3.526c-6.681,1.132-13.2,3.073-19.851,4.215-.022,0-.026-.022,0-.036,5.908-2.9,13.052-4.292,19.516-5.207-.116-.334-.233-.668-.371-1-.2-.445-.414-.876-.621-1.307-.023-.01-.045-.006-.071-.028-8.672-4.21-18.151,2.62-25.392,7.444-.426.291-.84.567-1.257.833-.065.044-.129-.032-.08-.1.262-.33.533-.663.829-1C353.718-11.6,365.365-16,373.4-13.211a26.173,26.173,0,0,0-4.6-6.2c-.462.044-.906.06-1.348.089a13.106,13.106,0,0,1,1.8,1.718c.013.023-.005.061-.03.04-.98-.518-1.912-1.116-2.852-1.688-.635.041-1.281.093-1.911.18a30.382,30.382,0,0,1,4.051,2.11c.049.03.012.106-.036.088-1.677-.616-3.331-1.356-5-2.008a8.772,8.772,0,0,0-1.319.361,21.7,21.7,0,0,0-6.124,3.645c-.033.017-.059-.016-.039-.042a17.393,17.393,0,0,1,6.375-4.385,22.744,22.744,0,0,0-3.97-1.146c-5.414,2.721-9.379,7.021-13.586,12.672-.039.064-.116-.011-.1-.073,1.914-5.64,6.378-10.073,11.5-12.844a12.84,12.84,0,0,0-2.45.136c-3.716.587-6.339,2.723-9.042,4.955a20.583,20.583,0,0,0-2.556,5.4c-.016.062-.111.026-.095-.036a17.657,17.657,0,0,1,1.991-4.822c-.851.689-1.714,1.369-2.625,2.018-.182.117-.368-.136-.238-.3a21.085,21.085,0,0,1,5.176-4.818,21.922,21.922,0,0,1,2.494-2.277,24.347,24.347,0,0,0-8.686,7.3,8.656,8.656,0,0,1-.648,1.5.146.146,0,0,1-.28-.049c0-.048,0-.1,0-.132a33.9,33.9,0,0,0-2.321,3.984c-.253.511-.5,1.045-.732,1.576.1.276.208.551.317.826s.219.537.316.815a.4.4,0,0,0,.033.1c.013.011-.007.025-.02.014a.451.451,0,0,1-.1-.12l-.011,0a3.986,3.986,0,0,1-.551-.762c-.07-.124-.141-.248-.2-.372-.064.151-.127.3-.2.467-.09.215-.168.44-.258.667s-.17.429-.25.654c.052.054.093.121.145.175a4.47,4.47,0,0,0,.451.486c.026.032,0,.085-.039.065a4.372,4.372,0,0,1-.643-.463c-.072.188-.141.389-.212.577a3.219,3.219,0,0,0-.132.364.079.079,0,1,1-.153-.041c.023-.111.057-.211.08-.322.055-.223.111-.446.179-.669.007-.037.016-.062.023-.1a3.84,3.84,0,0,1-.573-.664c-.068-.1-.136-.2-.193-.3l-.042-.068c-.1-.18-.2-.383-.293-.6-.028.268-.056.535-.073.8,0,.073-.005.156-.009.229-.018.255-.025.507-.033.76,0,.216,0,.444.016.671.006.275.025.55.056.833.019.177.051.366.07.544a2.507,2.507,0,0,0,.039.26l.01.082a6.427,6.427,0,0,1,3.066-.568c.042-.031.086-.047.128-.076a3.773,3.773,0,0,0,1.1-.935,2.842,2.842,0,0,0,.23-.3c.067-.115.136-.22.2-.347.141-.281.257-.582.4-.876a2.1,2.1,0,0,1,.089-.227.547.547,0,0,1-.043-.078c-.062-.257-.113-.527-.153-.786a10.257,10.257,0,0,1-.159-2.118,6.356,6.356,0,0,1,.656-2.814c.028-.051.108-.05.1.012,0,.984-.03,1.948-.005,2.917a16.5,16.5,0,0,0,.157,1.985c.041-.041.082-.094.123-.135a.326.326,0,0,1,.1-.023,1.582,1.582,0,0,1,2.445-.184.042.042,0,0,1,.014.034.766.766,0,0,1,.479.518.306.306,0,0,1-.176.382.874.874,0,0,1-.615,0,.049.049,0,0,1-.008.037c-.029.267-.078.537-.131.795-.014.075-.03.148-.054.235a1.314,1.314,0,0,1-.521.89c-.01.013-.01.013-.021.014a.049.049,0,0,1-.073-.04,1.744,1.744,0,0,1,.05-1.013,1.548,1.548,0,0,1,.034-.22,6.96,6.96,0,0,0,.034-.844c-.116-.023-.221-.047-.339-.08a.094.094,0,0,0-.058,0l-.38-.028a1.832,1.832,0,0,0-.251.211,3.022,3.022,0,0,1-.16.739,5.281,5.281,0,0,1-.418.89c-.116.182-.235.365-.364.535a5.875,5.875,0,0,1-.806.889l-.093.083a2.911,2.911,0,0,1-.818.47.225.225,0,0,1-.177.153,18.5,18.5,0,0,1-2.127.278A1.8,1.8,0,0,0,333.759.084a2.7,2.7,0,0,0-.362,2.155,2.073,2.073,0,0,0,.1.35,3.318,3.318,0,0,0,.337.8,3.526,3.526,0,0,0,.712.887.23.23,0,0,1,.359-.055c1.1,1.178,1.92-.085,2-1.246a1.645,1.645,0,0,0,0-.409,2.872,2.872,0,0,0-.223-.91,2.212,2.212,0,0,0-.339-.6c-.307-.407-.773-.6-1.037-1.04a.075.075,0,0,1,.006-.049c.716-.349,1.59.351,2.027.912a2.585,2.585,0,0,1,.361.592,3.09,3.09,0,0,1,.331,1.376,3.069,3.069,0,0,1-.087.779,2.505,2.505,0,0,1-.74,1.29c.035.006.069,0,.1.01l.09-.01c.551-.391.87-1.46,1.178-2.1a1.769,1.769,0,0,1,.151-.293,2.617,2.617,0,0,1,1.513-1.105,3.341,3.341,0,0,1,3.223.888,1.607,1.607,0,0,0,.7-.144,1.153,1.153,0,0,0,.4-.373c-.137-.115-.265-.244-.4-.336-.013-.011-.037-.019-.049-.03-.406-.275-.833-.537-1.25-.8-.035-.008-.03-.058.016-.062a2.328,2.328,0,0,1,1.647.356,3.851,3.851,0,0,1,.444.308c.028-.16.057-.308.088-.454.032-.232.064-.464.083-.707a3.208,3.208,0,0,0,.045-.329,8.713,8.713,0,0,0,.019-1.093.952.952,0,0,0-.03-.176c-.018-.166-.047-.32-.074-.472a1.921,1.921,0,0,1-.349.257c-.171.105-.355.2-.518.278a3.481,3.481,0,0,1-.622.267,1.969,1.969,0,0,1-.9.119c-.034,0-.039-.044-.02-.07a2.862,2.862,0,0,1,.414-.29c.322-.205.659-.355.991-.562.01-.013.032-.015.041-.029.268-.165.52-.374.8-.515l-.132-.274a3.125,3.125,0,0,0-.356-.556c-.275-.329-.374-.4-.386-.831a.2.2,0,0,1,.022-.111.2.2,0,0,1,.158-.128.9.9,0,0,1,.864.486,5.419,5.419,0,0,1,.525,1.378c.02.069.039.152.058.22a5.606,5.606,0,0,1,.188,1.214,8.786,8.786,0,0,1,0,1.356c-.011.11-.023.207-.036.3a3.923,3.923,0,0,1-.047.414,1.456,1.456,0,0,1-.033.221c.546.307,1.082.616,1.627.9a46.334,46.334,0,0,0,9.887,4.366A16.83,16.83,0,0,0,373.26,3.14c.191-.143.426.14.263.316-4.178,4.771-10.243,5.266-16.048,3.713-.728-.19-1.448-.415-2.161-.667-.641-.224-1.283-.471-1.908-.757-.357-.137-.717-.3-1.067-.473-.768-.353-1.53-.753-2.26-1.158a33.986,33.986,0,0,1-3.461-2.252c-.3-.217-.583-.436-.858-.653a3.741,3.741,0,0,1-.088.455,2.637,2.637,0,0,1-.626,1.286,1.192,1.192,0,0,1-.349.258,21.376,21.376,0,0,0,1.773,3.1,3.919,3.919,0,0,0,.283.4,16.167,16.167,0,0,0,7.207,5.658,2.658,2.658,0,0,0,.37.148,10.4,10.4,0,0,0,.986.363,1.359,1.359,0,0,0,.284.085,7.916,7.916,0,0,0,.9.277c.555.162,1.118.3,1.7.434.456.1.922.19,1.4.276a.18.18,0,0,1-.019.351,9.259,9.259,0,0,1-1.405.1,9.725,9.725,0,0,1-1.669-.125c-4.245-.623-8.127-3.7-10.473-7.681-.07-.111-.138-.212-.2-.325A17.941,17.941,0,0,1,344.5,3.28a.963.963,0,0,1-.943-.176l-.023,0a4.65,4.65,0,0,1-1.662-.378c-.492-.013-.983-.015-1.483,0-.72.313-.98,1.185-1.547,1.96a1.925,1.925,0,0,1-1.148.774A21.582,21.582,0,0,0,339.618,8.7c.416.574.852,1.121,1.3,1.645.2.229.4.432.6.649a4.629,4.629,0,0,1-.231-.561A10.5,10.5,0,0,1,340.815,9a10.46,10.46,0,0,1-.219-4.461c.014-.073.129-.076.125.009a14.944,14.944,0,0,0,.516,4.571,10.572,10.572,0,0,0,.488,1.346.513.513,0,0,0,.057.113,8.279,8.279,0,0,0,1.025,1.666,20.8,20.8,0,0,0,1.8,1.406,11.953,11.953,0,0,1-1.231-2.625c-.15-.437-.277-.879-.382-1.322a11.221,11.221,0,0,1-.3-2.005c-.013-.119.146-.125.17-.008a16.289,16.289,0,0,0,.531,2.169,10.079,10.079,0,0,0,.521,1.342,11.464,11.464,0,0,0,.895,1.634,13.072,13.072,0,0,0,1.662,1.961,19.337,19.337,0,0,0,3.55,1.486,14.247,14.247,0,0,1-4.278-4.423,13.552,13.552,0,0,1-.786-1.358,14.172,14.172,0,0,1-1.305-3.637.145.145,0,0,1,.13-.184A.136.136,0,0,1,343.907,6.77ZM322.26-2.71a13.674,13.674,0,0,0-.519,1.333,7.727,7.727,0,0,0-.163,1.125c.588-.371,1.2-.732,1.813-1.069a8.871,8.871,0,0,1,2.231-3.337A14.674,14.674,0,0,0,322.26-2.71Zm3.92-2.183a9.152,9.152,0,0,0-1.756,2.237,8.806,8.806,0,0,0-.49,1.067,28.88,28.88,0,0,1,6.436-2.339,8.433,8.433,0,0,1,2.778-1.448,5.154,5.154,0,0,1,.045-.737A20.546,20.546,0,0,0,326.18-4.893Zm8.64.326c.084.134.166.256.259.378a3.584,3.584,0,0,1,.128-.4,4.675,4.675,0,0,1,.177-.574c.086-.262.173-.512.271-.764a.45.45,0,0,1,.033-.112c.026-.076.055-.139.081-.214a6.721,6.721,0,0,1-.4-1.631,9.563,9.563,0,0,1-.044-2.419,16.32,16.32,0,0,0-.938,2.416,13.608,13.608,0,0,0-.342,1.386c.038.127.074.255.111.394s.075.267.125.4a3.262,3.262,0,0,0,.219.551,1.535,1.535,0,0,0,.1.193l.011,0A1.885,1.885,0,0,0,334.82-4.568Zm-1.886.177.2-.025a.036.036,0,0,1,0-.046A1.077,1.077,0,0,0,332.935-4.39Zm2.656-6.485a9.482,9.482,0,0,0,.1,2.9.2.2,0,0,0,.02.083,8.028,8.028,0,0,0,.284,1.046c.135-.34.28-.681.427-1.012a32.207,32.207,0,0,1,2.918-5.221,11.481,11.481,0,0,1,3.052-5.571.223.223,0,0,1,.039-.066A24.475,24.475,0,0,0,335.59-10.876Zm15.3-12.744a38.481,38.481,0,0,0-5.684,2.969c-.417.374-.87.715-1.251,1.1-.39.407-.743.833-1.109,1.248a23.6,23.6,0,0,0-1.893,3.093,21.47,21.47,0,0,1,11.49-7.549,34.547,34.547,0,0,1,4.618-2.051l-.273,0A15.413,15.413,0,0,0,350.892-23.62Zm-.3,2.447a21.291,21.291,0,0,0-3.1,2.338,17.282,17.282,0,0,1,9.179-2.091c.887-.454,1.8-.851,2.723-1.212-.247-.067-.493-.122-.751-.187q-.626-.035-1.242-.035A19.466,19.466,0,0,0,350.6-21.173Zm8.317.485a22.645,22.645,0,0,1,4.225,1.08,16.36,16.36,0,0,1,1.8-.478c-.449-.247-.921-.491-1.4-.7a18.617,18.617,0,0,0-2.342-.861A24.3,24.3,0,0,0,358.913-20.687Zm3.382-1.34a17.944,17.944,0,0,1,3.81,1.767,10.365,10.365,0,0,1,1.727-.062,20.189,20.189,0,0,0-3.279-2.357C363.775-22.492,363.021-22.27,362.295-22.028Zm-1.78-.52a26.145,26.145,0,0,1,2.756-.8,15.41,15.41,0,0,0-4.609-1.346,38.42,38.42,0,0,0-4.578,1.674,13.7,13.7,0,0,1,2.425-.06.051.051,0,0,1,.042-.03A19.379,19.379,0,0,1,360.515-22.548ZM241.65,33.386l-.133-.1a2.281,2.281,0,0,1,0-3.765l.133-.1a2.1,2.1,0,0,1,2.206,0,2.068,2.068,0,0,1,.286.161,2.186,2.186,0,0,1,0,3.637,2.117,2.117,0,0,1-.286.169,2.561,2.561,0,0,1-1.193.316A1.67,1.67,0,0,1,241.65,33.386Zm18.79-9.8c-11.4-11.9-10.527-31.919,1.662-42.847a28.18,28.18,0,0,1,40.686,3.42c10.106,12.462,9.083,31.432-2.959,42.062a.365.365,0,0,1-.4.071A31.436,31.436,0,0,1,281,32.454,28.145,28.145,0,0,1,260.44,23.584ZM262.831-17.3c-10.918,10.335-11.558,28.6-1.173,39.6,10.52,11.139,26.677,10.607,38.579,2.281,9.221-10.869,10.721-26.742,1.636-38.432a27.022,27.022,0,0,0-21.316-10.5h0A25.6,25.6,0,0,0,262.831-17.3ZM405.78,23.056a5.1,5.1,0,0,1-.193-1.119,2,2,0,1,1,3.987,0,5.043,5.043,0,0,1-.193,1.119,1.858,1.858,0,0,1-3.6,0Zm-177.769-.451a.926.926,0,0,1,0,1.845A.926.926,0,0,1,228.011,22.605Zm258.96-3.217c2.633,0,2.638,4.3,0,4.3S484.332,19.389,486.97,19.389ZM288.681,23.1c-.664-.286-1.611-.727-1.811-1.538-.01-.041,0-.085-.008-.126a.775.775,0,0,1,.045-.719c.01-.021.031-.031.043-.049a1.262,1.262,0,0,1,.262-.4c.331-1.42.839-2.645.358-4.188-.173-.557-.47-1.117-.686-1.688a3.718,3.718,0,0,1-1.177,2.525.056.056,0,0,1-.073-.011,4.323,4.323,0,0,1-1.584,1.221.074.074,0,0,1-.087-.118,5.406,5.406,0,0,0,1.379-3.587,12.465,12.465,0,0,1,0-1.7,3.281,3.281,0,0,1,.929-1.933,3.741,3.741,0,0,1,2.324-.861c1.733-.156,3.354.022,4.933-.975a.128.128,0,0,1,.169.177c-.184.28-.358.528-.539.762h0a3.9,3.9,0,0,1-.345.391.211.211,0,0,1-.03.026,2.949,2.949,0,0,1-.874.61,6.258,6.258,0,0,1-2.149.286c-.089.013-.178.024-.263.039a10.622,10.622,0,0,1,2.321,3.957c.014.015.034.019.044.041a10.93,10.93,0,0,1,.909,3.173,6.259,6.259,0,0,1-.033,2.68.485.485,0,0,1,.084.417,2.589,2.589,0,0,1-2.609,1.907A3.883,3.883,0,0,1,288.681,23.1Zm-.4-2.344c-.136.025-.272.053-.408.083a1.89,1.89,0,0,0-.119.149.937.937,0,0,0,.142.313.769.769,0,0,0,.293.578c.261.092.563.139.789.205a.154.154,0,0,1,.1.092c.362.047.724.087,1.078.109a5.768,5.768,0,0,0,.837.042c.036-.019.08-.022.114-.042a1.543,1.543,0,0,0,.591-.728,1.061,1.061,0,0,0-.224-.266c-.1-.076-.206-.153-.306-.234a3.351,3.351,0,0,0-.313-.181,2.784,2.784,0,0,0-1.263-.27A7.173,7.173,0,0,0,288.279,20.756Zm3.543-.521c0-.224-.02-.446-.025-.669a3.19,3.19,0,0,0-1.719-.767c-.021,0-.02-.033-.006-.043a1.8,1.8,0,0,1,1.691-.145c-.005-.083,0-.165-.009-.246-.061-.212-.144-.42-.216-.628-.211-.025-.419-.073-.657-.086a3.6,3.6,0,0,0-.407.01,2.108,2.108,0,0,1-.66-.026.061.061,0,0,1-.034-.087,1.635,1.635,0,0,1,1.457-.661c-.092-.227-.2-.455-.3-.683a1.333,1.333,0,0,1-.6,0,1.716,1.716,0,0,0-.674,0,.012.012,0,0,1-.012-.02,3.293,3.293,0,0,1,.895-.808c-.124-.234-.258-.465-.4-.7a1.656,1.656,0,0,1-.8.548.194.194,0,0,1-.234-.14c-.146-.485.21-.886.534-1.215-.1-.158-.193-.319-.288-.478a4.876,4.876,0,0,1-.538.3.034.034,0,0,1-.051-.031,1.065,1.065,0,0,1,.32-.757c-.044-.082-.085-.164-.127-.245a2.284,2.284,0,0,1-.734.254c-.008,0-.013-.008-.012-.014a1.277,1.277,0,0,1,.384-.647c-.179-.171-.353-.344-.546-.5a2.387,2.387,0,0,0-.889,1.346A9.1,9.1,0,0,1,288.7,17.17a4.09,4.09,0,0,1-.9,3.017c.131-.023.251-.041.373-.057a2.684,2.684,0,0,1,1.689-.526A3.153,3.153,0,0,1,291.821,20.235Zm249.588,1.016-.19-.007a2.091,2.091,0,0,1,0-4.177l.19-.007a2.06,2.06,0,0,1,1.992,2.1,2.088,2.088,0,0,1-1.925,2.1ZM495.664,15.7c2.771,0,2.777,4.528,0,4.528S492.89,15.7,495.664,15.7ZM155.192,19.905c4.016-7.275,12.884-9.254,20.018-6.655.09.036.068.191-.034.167-7.927-1.681-13.984,1.229-19.78,6.642a.13.13,0,0,1-.2-.155Zm112.986-2.1a1.122,1.122,0,0,1,0,2.236A1.122,1.122,0,0,1,268.178,17.806ZM262.7,15.921a1.019,1.019,0,0,1,0,2.031A1.019,1.019,0,0,1,262.7,15.921Zm271.367-1.535a1.676,1.676,0,1,1,1.674,1.759A1.74,1.74,0,0,1,534.064,14.387Zm-267.87-1.316a1.187,1.187,0,0,1,0,2.366A1.187,1.187,0,0,1,266.193,13.071Zm279.751-1.495a1.225,1.225,0,0,1,0,2.441A1.225,1.225,0,0,1,545.945,11.576ZM281.031,11.35a1.019,1.019,0,0,1,0,2.031A1.019,1.019,0,0,1,281.031,11.35Zm-99.856-.6c-.023-.048-.034-.084-.057-.131-.125-.31-.261-.608-.4-.894-3.141-6.9-7.474-11.758-14.993-13.559A.085.085,0,0,1,165.751-4c7.179.668,14.165,5.844,15.515,13.583.056.334.1.668.136,1.013,0,.036.012.071.012.107a.113.113,0,0,1-.115.132A.134.134,0,0,1,181.176,10.747ZM492.263,8.619a1,1,0,0,1,0,1.994A1,1,0,0,1,492.263,8.619Zm-208.49-.98a1.253,1.253,0,0,1,0,2.5A1.253,1.253,0,0,1,283.772,7.639Zm-4.659,1-.1-.138a.6.6,0,1,1,1.009,0l-.1.138a.467.467,0,0,1-.812,0ZM212.13,8.405c-6.9-.694-14.239-3.626-19.162-8.932-4.253-4.583-3.623-10.05-1.126-15.452a9.187,9.187,0,0,1-3.028-1.165,7,7,0,0,1-2.256-1.944,10.718,10.718,0,0,1-2.633-8.291c.766-8.766,7.588-16.505,14.248-21.061a.6.6,0,0,1,.236-.1c6.555-7.922,19.231-10,27.077-2.208a.315.315,0,0,1,.075.175c8.974.534,17.953,5.958,21.043,15.14,2.563,7.617-.571,15.862-5.5,22.1a.781.781,0,0,1,.263.467c2.517,14.362-15.5,21.385-26.854,21.386C213.675,8.518,212.881,8.48,212.13,8.405ZM196.287.558a31.381,31.381,0,0,0,16.866,6.474A29.128,29.128,0,0,0,229.337,3.7c5.574-3.012,8.14-7.322,9.763-12.91C233.8,1.529,221.777,8.5,210.309,4.328c-.05-.019-.019-.093.027-.087,12.1,1.445,22.848-2.994,28.12-14.6a32.153,32.153,0,0,1-3.638,3.189c-.261.194-.591-.2-.367-.448,6.554-7.162,14.6-16.656,11.011-27.413-3.626-10.854-14.027-13.438-23.61-15.173a.16.16,0,0,1,.019-.313,24.045,24.045,0,0,1,2.6-.084C212.475-58.232,199.536-53.2,195.2-38.959a.444.444,0,1,1-.87-.177,18.3,18.3,0,0,1,2.012-6.338,34.443,34.443,0,0,0-8.608,10.489c-1.994,3.794-3.295,9.319-1.82,13.343a9.369,9.369,0,0,0,2.044,2.76,18.244,18.244,0,0,0,3.836,1.81,18.929,18.929,0,0,0,4.59.21,9.366,9.366,0,0,1,1.807-.676,4.937,4.937,0,0,1,1.874-3.527c-.771-.7-.816-2.528-.539-3.361a3.309,3.309,0,0,1,.7-1.19.7.7,0,0,1-.116-.225,15.582,15.582,0,0,0-4.731-7.165c-.038-.035,0-.1.048-.076a14.455,14.455,0,0,1,5.916,6.61c.009.018.006.033.014.05a3.528,3.528,0,0,1,1.547-.267,3.062,3.062,0,0,1,.828-.641,4.128,4.128,0,0,1,3.364.04l.056.025c.6-6.022,1.833-13.905,7.77-16.636.071-.033.144.079.084.134a15.845,15.845,0,0,0-5.242,8.26,49.327,49.327,0,0,0-1.193,8.957.74.74,0,0,1-.068.245c.852.834,1.51,1.994.891,2.89a.43.43,0,0,1,.218.208,4.419,4.419,0,0,1,2,1.115c.785-1.752,3.12-3.254,4.646-4.106a12.3,12.3,0,0,1,5.956-1.7c.019,0,.027.032.007.037a17.713,17.713,0,0,0-5.942,2.258,14.044,14.044,0,0,0-2.459,2.032c-.031.033-.056.07-.085.1a.254.254,0,0,1-.056.143,19.059,19.059,0,0,0-1.45,1.891c-.014.017-.034.015-.049.029a4.256,4.256,0,0,1,.693,1.61c.273,1.41-.272,3.793-1.764,4.28a2.552,2.552,0,0,1,.38,2.66.556.556,0,0,1,.136.189c2.262,4.973,5.63,7.567,10.448,9.464.07.028.025.129-.04.122-4.761-.464-9.1-4.271-11.131-8.727-1.146,1.509-3.278,2.448-4.717,1.276a8.461,8.461,0,0,0,.147,1.567c.342,1.789,1.275,3.344,1.723,5.1a5.95,5.95,0,0,1-.968,5.548l.019-.009a.082.082,0,0,1,.1.1c-.18,1.365-1.851,1.833-2.968,1.807-1.648-.039-4.2-1.079-4.874-2.818a1.95,1.95,0,0,1,.383-2.175A30.091,30.091,0,0,0,200.762-7.6a45.214,45.214,0,0,0-.577-4.828c-1.234,1.779-3.506,3.47-5.382,3.584A.1.1,0,0,1,194.73-9a30.261,30.261,0,0,1,2.621-1.976c1.039-.822,1.8-1.885,2.746-2.781a8.6,8.6,0,0,1,.142-1.618c-.622.3-1.345-.278-1.736-.937a4.746,4.746,0,0,1-1.877.383,11.878,11.878,0,0,1-3.851.105C190.866-9.407,190.566-3.907,196.287.558Zm4.07-.974q-.728.952.413,1.634A5.621,5.621,0,0,0,204.7,2.64a4.748,4.748,0,0,0,1.73-.657,11.249,11.249,0,0,0-.021-7.184,19.236,19.236,0,0,1-1.157-4.067,7.744,7.744,0,0,1,2.273-6.678c.042-.038.1.026.076.072a20.413,20.413,0,0,0-.981,2.642,1.709,1.709,0,0,0,1.414-.052,2.935,2.935,0,0,0,1.071-1.431.044.044,0,0,1,.082,0,1.855,1.855,0,0,1-.82,2.045,2.051,2.051,0,0,1-1.935.148,9.656,9.656,0,0,0-.193,1.257,5.111,5.111,0,0,0,1.31.568,1.9,1.9,0,0,0,.4.016,5.029,5.029,0,0,0,1.74-1,3.116,3.116,0,0,0,.869-3.677.279.279,0,0,1,.336-.355c.654-1.23,1.522-2.1,1.3-3.7a3.646,3.646,0,0,0-3.047-3.006.455.455,0,0,1-.336-.525l-.026-.076a.31.31,0,0,1,.179-.4,2.632,2.632,0,0,0-1.113-2.544.855.855,0,0,1-.564-.3c-.017-.007-.03-.015-.047-.023-1.173-.475-2.884-.835-3.721.49-.237.376-.907.377-.934-.169a2.531,2.531,0,0,0-2.455,1.976,2.987,2.987,0,0,0,.616,2.444.465.465,0,0,1,.04-.023c.339-.172.677.383.4.646a7.249,7.249,0,0,0-2.065,2.561,2.15,2.15,0,0,0,.038,1.859,1.708,1.708,0,0,0,1.18.675,7.3,7.3,0,0,1,.731-1.836,6.007,6.007,0,0,1,.367-.626.479.479,0,0,1-.092-.229c-.393-3.056,2.564-5.758,5.253-4.219a.019.019,0,0,1-.012.036,3.847,3.847,0,0,0-4.313,3.384,6.107,6.107,0,0,1,2.165-1.477,3.942,3.942,0,0,1,2.813.041,1.359,1.359,0,0,1,.971-.5,2.832,2.832,0,0,1,1.922.563c1.257.969.288,2.959-.6,3.839-.011.012-.036,0-.03-.015.243-.872,1.219-2.535.483-3.3a2.131,2.131,0,0,0-1.526-.515,1.355,1.355,0,0,0-.683.3,1.73,1.73,0,0,1,.492,1.066.089.089,0,0,1-.147.076c-1.37-1.373-2.8-.922-4.3-.083a4.685,4.685,0,0,0-1.462,1.259,7.864,7.864,0,0,0-1.514,5.01c.086,1.613.506,3.171.551,4.8a18.55,18.55,0,0,1-.22,3.56,3.629,3.629,0,0,1,1.122.089c.325.068.744.113.891.458a.03.03,0,0,1-.01.032c-.286.186-.622.033-.941.011a5.089,5.089,0,0,0-.674.012c-.175.011-.348.022-.521.019-.04.184-.071.37-.118.551a5.481,5.481,0,0,1,1.249.131,4.772,4.772,0,0,1,1.663.625c.038.023.03.086-.015.088-.439.028-.879.028-1.319.028h-.373a9.278,9.278,0,0,1-1.474.022c-.094.27-.2.536-.314.8a2.347,2.347,0,0,1,.443-.127A7.434,7.434,0,0,1,206.25-.328c.067.053.007.19-.076.16a20.021,20.021,0,0,0-3.021-.9,7.213,7.213,0,0,0-1.868-.174,1.322,1.322,0,0,0-.2-.016Q200.4-1.26,200.357-.416ZM533.288,6.922c-6.456-2.5-13.143-9.472-16.758-15.472-3.854-6.394-4.974-16.715-2.348-23.789,2.176-5.869,8.864-11.071,14.154-13.723,8.43-4.225,17.7-1.9,24.7,3.71v2.6a23.924,23.924,0,0,0-15.619-6.4,18.938,18.938,0,0,0-9.664,2.649c-4.933,2.888-10.876,7.655-12.333,13.64-1.56,6.4-.546,14.736,2.7,20.337A42.471,42.471,0,0,0,531.688,4.046c5.942,3.487,11.5,1.591,16.83-1.3-.091.021-.18.047-.273.067a.112.112,0,0,1-.056-.216,24.673,24.673,0,0,0,4.847-2.611V2.026c-4.34,3.125-9.4,5.851-14.609,5.851A14.093,14.093,0,0,1,533.288,6.922ZM304.471,3.408A27.869,27.869,0,0,0,265.613-17.1a.129.129,0,0,1-.126-.225c17.195-10.617,36.444.885,39.292,20.649a.182.182,0,0,1-.176.211A.133.133,0,0,1,304.471,3.408Zm234.74.081c-14.263,0-28.217-18.2-21.545-32.6.029-.062.121-.018.1.046-3.886,14.918,6.968,30.946,21.485,32.109.27.022.278.446,0,.447Zm3.852-2.363A6.671,6.671,0,0,0,543.3-.6c0-.529-.183-1.023-.2-1.545a.159.159,0,0,1,.3-.085,3.538,3.538,0,0,1-.252,3.393.043.043,0,0,1-.037.023A.046.046,0,0,1,543.062,1.126ZM262.669-2.54a1.166,1.166,0,0,1,1.981-.863l.095.1a1.133,1.133,0,0,1,0,1.527l-.095.1a1.088,1.088,0,0,1-.795.344A1.2,1.2,0,0,1,262.669-2.54Zm270.791.029a.048.048,0,0,1,0-.081,13.09,13.09,0,0,1,1.585-.523c.635-.266,1.1-.774,1.706-1.077a.118.118,0,0,1,.169.136,3.191,3.191,0,0,1-2.71,1.733A1.447,1.447,0,0,1,533.461-2.511Zm9.472-.377a1.691,1.691,0,0,1-.223-.4A9.033,9.033,0,0,0,540.6-4.647c-1.163-.34-2.051.125-3.132.44a.01.01,0,0,1-.012-.013,1.761,1.761,0,0,1,.155-.161.156.156,0,0,1,.009-.188,2.411,2.411,0,0,0,.042-2.1,6.434,6.434,0,0,0-.408-.837A7.1,7.1,0,0,0,535.892-9.2a7.5,7.5,0,0,0-3.637-1.8.124.124,0,0,1-.094-.111,10.869,10.869,0,0,1-1.354-.481.027.027,0,0,1,.013-.053,9.328,9.328,0,0,0,6.732-1.712,9.922,9.922,0,0,0,1.957-2.252c.126-.179.308-.389.493-.607.237-.65.312-1.344.542-1.985a.1.1,0,0,1,.093-.061c0-.024,0-.047.005-.069s.066-.048.081-.013c.973,2.359,1.978,4.421,4.5,5.261a6.979,6.979,0,0,0,5.683-.772,9.919,9.919,0,0,1,1.439-.845q.347-.223.688-.455v.689a8.989,8.989,0,0,1-1.646,1.222c-1.929,1.533-3.93,3.5-2.613,6.041h0a.181.181,0,0,1,.119.211c.07.122.14.243.226.367.035.049-.029.1-.073.076a2.177,2.177,0,0,1-.423-.277,13.8,13.8,0,0,0-3.292.46A3.263,3.263,0,0,0,542.962-2.9a.018.018,0,0,1-.017.02A.013.013,0,0,1,542.933-2.888Zm-.318-1.22a3.209,3.209,0,0,1,1.219-2,6.027,6.027,0,0,1,4.33-1.263,3.593,3.593,0,0,1-.128-2.965,6.36,6.36,0,0,1,1.18-1.993,7.336,7.336,0,0,1-4.819-.26,6.645,6.645,0,0,1-3.534-3.563,3.968,3.968,0,0,1-.7,1.99,8.718,8.718,0,0,1-2.373,2.248,6.492,6.492,0,0,1-3.67,1.106,7.221,7.221,0,0,1,2.994,2.216c.747.941,1.71,2.532,1.122,3.714a3.641,3.641,0,0,1,1.734-.411A3.177,3.177,0,0,1,542.615-4.108Zm-283.12.636c-.748-.473-.133-1.787.648-1.364a.793.793,0,0,1-.272,1.482A.7.7,0,0,1,259.495-3.471Zm292.04-.948a7.311,7.311,0,0,1-1.992-1.817c-.059-.092.059-.214.145-.153a25.368,25.368,0,0,0,2.079,1.553c.4.222.841.385,1.268.571v.707A6.773,6.773,0,0,1,551.535-4.419ZM261.681-6.4a.969.969,0,0,1,1.611-1.073,1,1,0,0,1-.849,1.555A.854.854,0,0,1,261.681-6.4ZM539.727-7.857a2.354,2.354,0,0,1,1.868-2.957,2.867,2.867,0,0,1,3.268,1.819c.107.257-.232.483-.368.227a2.33,2.33,0,0,0-2.977-1.169,4.937,4.937,0,0,0-1.741,2.086.025.025,0,0,1-.021.014A.032.032,0,0,1,539.727-7.857ZM261.092-11.506c4.921-6.565,14.067-6.049,21.093-4.807.082.014.056.142-.02.147-7.638.418-14.219.7-21.031,4.719a.037.037,0,0,1-.018.005A.039.039,0,0,1,261.092-11.506Zm265.355-2.451c-.005-.039.039-.054.065-.04.582.288,1.044.746,1.614,1.048s1.206.391,1.77.712a.212.212,0,0,1-.046.374,1.675,1.675,0,0,1-.651.124A2.955,2.955,0,0,1,526.447-13.956ZM540-19.733a9.6,9.6,0,0,1-.06-1.332c.024-.451.208-.892.221-1.331a.08.08,0,0,1,.157-.023c.119.419.4.8.534,1.224a8.91,8.91,0,0,1,.261,1.3.611.611,0,0,1-.394.733.876.876,0,0,1-.151.022h-.018A.6.6,0,0,1,540-19.733ZM243.525-31.324c-3.169-7.441-7.563-12.705-15.448-14.587a.085.085,0,0,1,.031-.166c7.519.7,14.834,6.338,15.657,14.7a.112.112,0,0,1-.116.133A.134.134,0,0,1,243.525-31.324Zm307.86-3.3c-2.852-2.851-6.257-3.853-9.734-5.5a.568.568,0,0,1,.269-1.041c3.964.195,8.111,2.995,11.115,6.694v1.745A18.08,18.08,0,0,0,551.385-34.619Zm1.3-2.052a22.13,22.13,0,0,0-21.039-5.534.727.727,0,0,1-.367-1.4c8-2.79,16-.126,21.761,5.377v1.91Q552.86-36.5,552.681-36.671Zm-52.959-3.322a2.743,2.743,0,0,1-.09-.7,1.924,1.924,0,0,1,1.852-1.947,1.952,1.952,0,0,1,1.852,1.947l-.027-.339a1.977,1.977,0,0,1-1.3,2.406,1.961,1.961,0,0,1-.46.055A1.881,1.881,0,0,1,499.721-39.993Zm-209.979.641a.009.009,0,0,1,0,.018ZM146.732-46.57a1.337,1.337,0,0,1,0,2.665A1.337,1.337,0,0,1,146.732-46.57Zm384.11-9.319h2.241a.868.868,0,0,1-.456.239c-.177.033-.34.122-.527.155a1.556,1.556,0,0,1-.257.022A1.356,1.356,0,0,1,530.842-55.888Z" transform="translate(-132.75 56.138)" fill="#fff" stroke="#fff" stroke-width="0.5" opacity="0.7"/>
</svg>
