<svg xmlns="http://www.w3.org/2000/svg" xmlns:xlink="http://www.w3.org/1999/xlink" width="150" height="150" viewBox="0 0 150 150">
  <defs>
    <clipPath id="clip-path">
      <rect id="Rectangle_1" data-name="Rectangle 1" width="150" height="150" transform="translate(-0.351 -0.351)"/>
    </clipPath>
    <clipPath id="clip-custom_1">
      <rect width="150" height="150"/>
    </clipPath>
  </defs>
  <g id="custom_1" data-name="custom – 1" clip-path="url(#clip-custom_1)">
    <g id="change-store-icon" transform="translate(0.351 0.351)" clip-path="url(#clip-path)">
      <g id="Group_3" data-name="Group 3" transform="translate(4.061 4.061)">
        <circle id="Ellipse_1" data-name="Ellipse 1" cx="71" cy="71" r="71" transform="translate(-0.412 -0.412)" fill="#f1f1f1"/>
        <g id="store" transform="translate(46.909 44.221)" opacity="0.9">
          <path id="Path_1" data-name="Path 1" d="M18,46h1.792v1.792H18Z" transform="translate(-6.35 -6.569)"/>
          <path id="Path_2" data-name="Path 2" d="M24,46h1.792v1.792H24Z" transform="translate(-6.973 -6.569)"/>
          <path id="Path_3" data-name="Path 3" d="M43,40.481A4.481,4.481,0,1,0,47.481,36,4.481,4.481,0,0,0,43,40.481Zm7.169,0a2.688,2.688,0,1,1-2.688-2.688,2.688,2.688,0,0,1,2.688,2.688Z" transform="translate(-8.946 -5.531)"/>
          <path id="Path_4" data-name="Path 4" d="M46.653,49.774c2.724-3.513,6.739-9.293,6.739-12.824a9.87,9.87,0,0,0-5.377-8.774V16.733a3.567,3.567,0,0,0,1.792-3.083V10.962a.84.84,0,0,0-.063-.332l-1.73-4.319V2.9a.9.9,0,0,0-.9-.9H7.688a.9.9,0,0,0-.9.9V6.311L5.062,10.63A.84.84,0,0,0,5,10.962V13.65a3.567,3.567,0,0,0,1.792,3.083V49.5a.9.9,0,0,0,.9.9h30.64c-1.156.5-1.962,1.237-1.962,2.24,0,2.151,3.719,3.137,7.169,3.137s7.169-.986,7.169-3.137C50.7,51.083,48.813,50.186,46.653,49.774ZM51.6,36.95c0,3.468-5.314,10.548-8.065,13.855C40.783,47.5,35.469,40.418,35.469,36.95a8.065,8.065,0,1,1,16.131,0ZM12.168,30.677V21.716H42.638v5.422a9.845,9.845,0,0,0-6.7,3.54ZM48.015,11.858V13.65a1.792,1.792,0,1,1-3.585,0V11.858ZM8.584,3.792H46.222V5.585H8.584ZM8.3,7.377H46.51l1.075,2.688H7.222Zm34.34,4.481V13.65a1.792,1.792,0,1,1-3.585,0V11.858Zm-5.377,0V13.65a1.792,1.792,0,1,1-3.585,0V11.858Zm-5.377,0V13.65a1.792,1.792,0,1,1-3.585,0V11.858Zm-5.377,0V13.65a1.792,1.792,0,1,1-3.585,0V11.858Zm-5.377,0V13.65a1.792,1.792,0,1,1-3.585,0V11.858Zm-5.377,0V13.65a1.792,1.792,0,1,1-3.585,0V11.858ZM6.792,13.65V11.858h3.585V13.65a1.792,1.792,0,1,1-3.585,0ZM19.338,48.6H14.857V36.054h4.481Zm6.273,0H21.13V36.054h4.481Zm1.792,0V35.158a.9.9,0,0,0-.9-.9H13.961a.9.9,0,0,0-.9.9V48.6H8.584V17.235A3.555,3.555,0,0,0,11.273,16a3.541,3.541,0,0,0,5.377,0,3.541,3.541,0,0,0,5.377,0A3.541,3.541,0,0,0,27.4,16a3.541,3.541,0,0,0,5.377,0,3.541,3.541,0,0,0,5.377,0,3.541,3.541,0,0,0,5.377,0,3.555,3.555,0,0,0,2.688,1.237V27.478a9.181,9.181,0,0,0-1.792-.341V20.819a.9.9,0,0,0-.9-.9H11.272a.9.9,0,0,0-.9.9V31.573a.9.9,0,0,0,.9.9H34.761a9.788,9.788,0,0,0-1.084,4.481c0,3.154,3.217,8.119,5.843,11.65Zm16.131,5.377c-3.441,0-5.269-.986-5.377-1.326.081-.278,1.228-.986,3.549-1.246.636.78,1.075,1.282,1.156,1.371a.9.9,0,0,0,1.344,0c.081-.09.52-.592,1.156-1.371,2.321.26,3.468.967,3.549,1.21C48.8,52.992,46.976,53.977,43.534,53.977Z" transform="translate(-4.999 -2)"/>
        </g>
      </g>
    </g>
  </g>
</svg>
