<svg xmlns="http://www.w3.org/2000/svg" width="382" height="154.484" viewBox="0 0 382 154.484"><g opacity=".8"><g transform="translate(143.5 19.277)" fill="#fff" stroke="#000" stroke-width="5"><circle cx="50.5" cy="50.5" r="50.5" stroke="none"/><circle cx="50.5" cy="50.5" r="48" fill="none"/></g><text transform="translate(193.5 97.277)" font-size="75" font-family="Roboto-Bold, Roboto" font-weight="700"><tspan x="-10.199" y="0">!</tspan></text><path d="M249 120.708l5.069 5.069m0-5.069L249 125.777" fill="none" stroke="red" stroke-linecap="round" stroke-width="2"/><path d="M239 4.708l5.069 5.069m0-5.069L239 9.777m-50 138.931l5.069 5.069m0-5.069L189 153.777M188 .708l5.069 5.069m0-5.069L188 5.777" fill="none" stroke="#2b2b2b" stroke-linecap="round"/><path d="M136 10.664l9.113 9.113m0-9.113L136 19.777" fill="none" stroke="red" stroke-linecap="round" stroke-width="2"/><g transform="translate(251.5 46.277)" fill="none" stroke="#707070"><circle cx="5" cy="5" r="5" stroke="none"/><circle cx="5" cy="5" r="4.5"/></g><g transform="translate(120.5 76.277)" fill="none" stroke="#707070"><circle cx="4" cy="4" r="4" stroke="none"/><circle cx="4" cy="4" r="3.5"/></g><g transform="translate(135.5 116.277)" fill="none" stroke="#707070"><circle cx="4" cy="4" r="4" stroke="none"/><circle cx="4" cy="4" r="3.5"/></g></g><g opacity=".5" fill="none" stroke="#707070"><path stroke-dasharray="21 12" d="M282 38.208h60"/><path stroke-dasharray="37 17" d="M312 71.208h70"/><path stroke-dasharray="12 13" d="M298 108.208h52"/></g><g opacity=".5" fill="none" stroke="#707070"><path stroke-dasharray="21 12" d="M100 38.208H40"/><path stroke-dasharray="37 17" d="M70 71.208H0"/><path stroke-dasharray="12 13" d="M84 108.208H32"/></g></svg>