<svg xmlns="http://www.w3.org/2000/svg" width="64" height="64" viewBox="0 0 64 64"><circle cx="32" cy="32" r="32" fill="#606060"/><g fill="#fff"><path d="M26.149 22.455a1.437 1.437 0 0 0 1.436-1.437v-5.6a4.543 4.543 0 1 1 9.086 0v5.6a1.436 1.436 0 1 0 2.872 0v-5.6a7.415 7.415 0 1 0-14.83 0v5.6a1.436 1.436 0 0 0 1.436 1.437z"/><path d="M48.605 19.227H40.98v1.791a2.873 2.873 0 0 1-5.746 0v-1.791h-6.212v1.791a2.872 2.872 0 1 1-5.745 0v-1.791h-7.71a.537.537 0 0 0-.547.7l5.025 27.995a2.947 2.947 0 0 0 2.704 2.079h18.674a2.949 2.949 0 0 0 2.7-2.083l5.03-27.994a.537.537 0 0 0-.548-.697z"/></g></svg>