<svg xmlns="http://www.w3.org/2000/svg" xmlns:xlink="http://www.w3.org/1999/xlink" width="97" height="93" viewBox="0 0 97 93">
  <defs>
    <clipPath id="clip-ico-no-results">
      <rect width="97" height="93"/>
    </clipPath>
  </defs>
  <g id="ico-no-results" clip-path="url(#clip-ico-no-results)">
    <g id="box" transform="translate(1 1.001)">
      <path id="Path_1" data-name="Path 1" d="M84.913,32.207,94.988,22.132a1.866,1.866,0,0,0-.421-2.955L82.454,12.527a1.866,1.866,0,0,0-1.8,3.271l9.933,5.454L81.945,29.9l-31.1-17.077,8.646-8.646,8.74,4.8a1.866,1.866,0,1,0,1.8-3.271L60.06.23a1.865,1.865,0,0,0-2.217.316L47.767,10.622,37.691.546A1.867,1.867,0,0,0,35.474.23L.968,19.178a1.866,1.866,0,0,0-.421,2.955L10.622,32.208.547,42.282a1.866,1.866,0,0,0,.421,2.955L11.4,50.963V70.1a1.867,1.867,0,0,0,.968,1.636L46.869,90.685a1.866,1.866,0,0,0,1.8,0L83.171,71.738a1.867,1.867,0,0,0,.968-1.636V50.963l10.427-5.725a1.866,1.866,0,0,0,.421-2.955ZM47.767,49.025,17.138,32.207,47.767,15.387,78.4,32.207ZM36.043,4.175l8.645,8.646L13.59,29.9,4.944,21.252ZM13.591,34.516l31.1,17.077L36.043,60.24,4.944,43.163ZM80.407,69,49.633,85.9V66.822a1.866,1.866,0,0,0-3.732,0V85.9L15.127,69V53.012L35.474,64.185a1.865,1.865,0,0,0,2.217-.316L47.767,53.793,57.843,63.869a1.865,1.865,0,0,0,2.217.316L80.407,53.012ZM59.492,60.24l-8.647-8.647,31.1-17.076,8.647,8.646Zm0,0" transform="translate(0 0)" fill="#868686" stroke="#868686" stroke-width="1"/>
      <path id="Path_2" data-name="Path 2" d="M396.667,51.908a1.868,1.868,0,1,0-1.319-.547A1.882,1.882,0,0,0,396.667,51.908Zm0,0" transform="translate(-321.135 -39.187)" fill="#868686" stroke="#868686" stroke-width="1"/>
      <path id="Path_3" data-name="Path 3" d="M247.866,314.926a1.866,1.866,0,1,0,1.319.547A1.878,1.878,0,0,0,247.866,314.926Zm0,0" transform="translate(-200.099 -256.164)" fill="#868686" stroke="#868686" stroke-width="1"/>
    </g>
  </g>
</svg>
