<svg xmlns="http://www.w3.org/2000/svg" xmlns:xlink="http://www.w3.org/1999/xlink" width="63" height="63" viewBox="0 0 63 63">
  <defs>
    <linearGradient id="linear-gradient" x1="0.5" y1="1" x2="0.5" gradientUnits="objectBoundingBox">
      <stop offset="0" stop-color="#fd5900"/>
      <stop offset="1" stop-color="#ffde00"/>
    </linearGradient>
    <linearGradient id="linear-gradient-2" x1="0.5" y1="1" x2="0.5" gradientUnits="objectBoundingBox">
      <stop offset="0" stop-color="#ffe59a"/>
      <stop offset="1" stop-color="#ffffd5"/>
    </linearGradient>
    <clipPath id="clip-ico-loyalty-points">
      <rect width="63" height="63"/>
    </clipPath>
  </defs>
  <g id="ico-loyalty-points" clip-path="url(#clip-ico-loyalty-points)">
    <g id="coin">
      <g id="Group_68" data-name="Group 68">
        <g id="Group_67" data-name="Group 67">
          <path id="Path_187" data-name="Path 187" d="M1.846,7.383H3.691V9.229a1.846,1.846,0,0,0,3.691,0V7.383H9.229a1.846,1.846,0,0,0,0-3.691H7.383V1.846a1.846,1.846,0,1,0-3.691,0V3.691H1.846a1.846,1.846,0,1,0,0,3.691Zm51.926,0h1.846V9.229a1.846,1.846,0,1,0,3.691,0V7.383h1.846a1.846,1.846,0,0,0,0-3.691H59.309V1.846a1.846,1.846,0,1,0-3.691,0V3.691H53.771a1.846,1.846,0,1,0,0,3.691ZM9.229,55.617H7.383V53.771a1.846,1.846,0,1,0-3.691,0v1.846H1.846a1.846,1.846,0,1,0,0,3.691H3.691v1.846a1.846,1.846,0,0,0,3.691,0V59.309H9.229a1.846,1.846,0,1,0,0-3.691Zm43.2-5.793a27.883,27.883,0,0,0,6.782-16.478l-3.6-1.846,3.6-1.846a27.883,27.883,0,0,0-6.782-16.478l-2.764.153.154-2.763A27.88,27.88,0,0,0,33.346,3.785L31.5,7.383l-1.846-3.6a27.881,27.881,0,0,0-16.478,6.781l.154,2.763-2.764-.153A27.884,27.884,0,0,0,3.785,29.654l3.6,1.846-3.6,1.846a27.883,27.883,0,0,0,6.782,16.478l2.764-.153-.154,2.763a27.88,27.88,0,0,0,16.478,6.781l1.846-3.6,1.846,3.6a27.881,27.881,0,0,0,16.478-6.781l-.154-2.763Zm8.721,5.793H59.309V53.771a1.846,1.846,0,1,0-3.691,0v1.846H53.771a1.846,1.846,0,1,0,0,3.691h1.846v1.846a1.846,1.846,0,0,0,3.691,0V59.309h1.846a1.846,1.846,0,0,0,0-3.691Z" fill="url(#linear-gradient)"/>
        </g>
      </g>
      <g id="Group_70" data-name="Group 70" transform="translate(3.691 3.691)">
        <g id="Group_69" data-name="Group 69">
          <path id="Path_188" data-name="Path 188" d="M35.537,55.963H30.094c-.041.613-.094,1.223-.094,1.846s.053,1.233.094,1.846h5.444a1.846,1.846,0,1,0,0-3.691Zm7.794-12.634a1.845,1.845,0,0,0,0-2.61l-3.845-3.845a27.883,27.883,0,0,0-2.61,2.61l3.846,3.845A1.845,1.845,0,0,0,43.331,43.329Zm14.478-5.946a1.845,1.845,0,0,0,1.846-1.846V30.094c-.613-.041-1.223-.094-1.846-.094s-1.233.053-1.846.094v5.444A1.845,1.845,0,0,0,57.809,37.383ZM74.9,43.329l3.846-3.845a27.883,27.883,0,0,0-2.61-2.61l-3.845,3.845a1.846,1.846,0,0,0,2.61,2.61ZM57.809,41.074A16.734,16.734,0,1,0,74.543,57.809,16.841,16.841,0,0,0,57.809,41.074Zm8.309,15.774L63.3,59.593l.667,3.877a1.846,1.846,0,0,1-2.679,1.945l-3.482-1.83-3.482,1.829a1.846,1.846,0,0,1-2.678-1.945l.667-3.877L49.5,56.848a1.844,1.844,0,0,1,1.02-3.147l3.893-.566,1.741-3.526a1.92,1.92,0,0,1,3.309,0L61.2,53.135,65.1,53.7a1.844,1.844,0,0,1,1.02,3.147Zm6.168,15.44a1.845,1.845,0,0,0,0,2.61l3.845,3.845a27.885,27.885,0,0,0,2.61-2.61L74.9,72.288A1.845,1.845,0,0,0,72.286,72.288Zm-31.565,0-3.846,3.845a27.885,27.885,0,0,0,2.61,2.61L43.331,74.9a1.846,1.846,0,1,0-2.61-2.61Zm44.8-16.325H80.08a1.846,1.846,0,0,0,0,3.691h5.444c.041-.613.094-1.223.094-1.846s-.053-1.233-.094-1.846ZM57.809,78.234a1.845,1.845,0,0,0-1.846,1.846v5.444c.613.041,1.223.094,1.846.094s1.233-.053,1.846-.094V80.08a1.845,1.845,0,0,0-1.846-1.846Z" transform="translate(-30 -30)" fill="url(#linear-gradient-2)"/>
        </g>
      </g>
    </g>
  </g>
</svg>
