<svg xmlns="http://www.w3.org/2000/svg" width="12.03" height="14.812" viewBox="0 0 12.03 14.812"><g fill="red"><path d="M8.061 5.364a.347.347 0 0 0-.347.347v6.556a.347.347 0 1 0 .694 0V5.714a.347.347 0 0 0-.347-.35zm-4.093 0a.347.347 0 0 0-.347.347v6.556a.347.347 0 1 0 .694 0V5.714a.347.347 0 0 0-.347-.35zm0 0"/><path d="M.985 4.41v8.547a1.914 1.914 0 0 0 .509 1.32 1.708 1.708 0 0 0 1.239.536h6.563a1.708 1.708 0 0 0 1.239-.536 1.914 1.914 0 0 0 .509-1.32V4.41a1.325 1.325 0 0 0-.341-2.608H8.929v-.431A1.363 1.363 0 0 0 7.555.002h-3.08a1.363 1.363 0 0 0-1.372 1.369v.431H1.325a1.325 1.325 0 0 0-.34 2.606zm8.311 9.709H2.733a1.1 1.1 0 0 1-1.054-1.162V4.441h8.672v8.516a1.1 1.1 0 0 1-1.054 1.162zM3.795 1.371a.668.668 0 0 1 .68-.676h3.08a.668.668 0 0 1 .68.676v.431h-4.44zm-2.47 1.131h9.378a.625.625 0 1 1 0 1.249H1.325a.625.625 0 0 1 0-1.249zm0 0"/><path d="M6.015 5.364a.347.347 0 0 0-.347.347v6.556a.347.347 0 1 0 .694 0V5.714a.347.347 0 0 0-.347-.35zm0 0"/></g></svg>