<svg xmlns="http://www.w3.org/2000/svg" xmlns:xlink="http://www.w3.org/1999/xlink" width="150" height="150" viewBox="0 0 150 150">
  <defs>
    <clipPath id="clip-ico-rewards-enroll">
      <rect width="150" height="150"/>
    </clipPath>
  </defs>
  <g id="ico-rewards-enroll" clip-path="url(#clip-ico-rewards-enroll)">
    <path id="Path_393" data-name="Path 393" d="M75,0A75,75,0,1,1,0,75,75,75,0,0,1,75,0Z" fill="rgba(226,226,226,0.43)"/>
    <g id="Group_12" data-name="Group 12" transform="translate(-379 -148)">
      <g id="Group_6" data-name="Group 6" transform="translate(414 184)">
        <g id="Group_5" data-name="Group 5" transform="translate(0 0)">
          <path id="Path_15" data-name="Path 15" d="M75.623,16.134H69.734a9.369,9.369,0,0,0,1.435-4.068A10.473,10.473,0,0,0,53.725,3.181L46.29,9.92A7.9,7.9,0,0,0,34.6,9.928L27.156,3.181A10.474,10.474,0,0,0,9.712,12.068a9.368,9.368,0,0,0,1.435,4.066H5.276A5.276,5.276,0,0,0,0,21.41v7.914a2.638,2.638,0,0,0,2.638,2.638H78.261A2.638,2.638,0,0,0,80.9,29.324V21.41A5.276,5.276,0,0,0,75.623,16.134Zm-43.087-.879v.879H20.125a5.193,5.193,0,0,1-2.191-9.9,5.078,5.078,0,0,1,5.681.86l8.922,8.087C32.537,15.2,32.535,15.229,32.535,15.255Zm33.4-3.89a5.344,5.344,0,0,1-5.422,4.769H48.363v-.879c0-.031,0-.062,0-.093L57.145,7.2a5.276,5.276,0,0,1,4.991-1.275A5.132,5.132,0,0,1,65.935,11.365Z" transform="translate(0 -0.448)" fill="#6c757d"/>
        </g>
      </g>
      <g id="Group_11" data-name="Group 11" transform="translate(419.004 219.029)">
        <g id="Group_8" data-name="Group 8" transform="translate(0 0)">
          <g id="Group_7" data-name="Group 7">
            <path id="Path_16" data-name="Path 16" d="M33.391,233.291v38.691c0,2.914,2.779,5.276,6.207,5.276H68.564V233.291Z" transform="translate(-33.391 -233.291)" fill="#6c757d"/>
          </g>
        </g>
        <g id="Group_10" data-name="Group 10" transform="translate(34.037 0)">
          <g id="Group_9" data-name="Group 9">
            <path id="Path_17" data-name="Path 17" d="M289.391,233.291v43.967h29.9c3.539,0,6.408-2.362,6.408-5.276V233.291Z" transform="translate(-289.391 -233.291)" fill="#6c757d"/>
          </g>
        </g>
      </g>
      <g id="locked-padlock-" transform="translate(443.572 224.659)">
        <path id="Path_11" data-name="Path 11" d="M245.1,10.688a12.866,12.866,0,0,1,3.035,1.709V7.455A7.713,7.713,0,0,0,240.2,0h-.122a7.712,7.712,0,0,0-7.928,7.455V12.4a12.866,12.866,0,0,1,3.035-1.709c.3-.118.6-.226.9-.322V7.455a3.884,3.884,0,0,1,4-3.755h.122a3.884,3.884,0,0,1,4,3.755V10.37C244.5,10.463,244.8,10.57,245.1,10.688Z" transform="translate(-229.175 0)" fill="#fff"/>
        <path id="Path_12" data-name="Path 12" d="M151.75,313.889a10.976,10.976,0,0,0,21.93,0,10.235,10.235,0,0,0-3.111-7.318,11.085,11.085,0,0,0-3.869-2.456,11.477,11.477,0,0,0-7.97,0,10.981,10.981,0,0,0-3.869,2.456A10.219,10.219,0,0,0,151.75,313.889Zm8.141-2.116a2.829,2.829,0,0,1,5.649.07,2.567,2.567,0,0,1-.043.463,2.7,2.7,0,0,1-1.281,1.824.722.722,0,0,0-.344.777l.84,3.807a.376.376,0,0,1-.379.448H161.1a.374.374,0,0,1-.379-.448l.84-3.807a.731.731,0,0,0-.344-.781,2.694,2.694,0,0,1-1.281-1.824A2.65,2.65,0,0,1,159.891,311.772Z" transform="translate(-151.75 -292.209)" fill="#fff"/>
      </g>
      <g id="Group_1" data-name="Group 1" transform="translate(424.991 224.659)">
        <g id="Group_140" data-name="Group 140">
          <g id="Group_139" data-name="Group 139">
            <path id="Path_386" data-name="Path 386" d="M151.908,464.429a2.289,2.289,0,1,0,.671,1.619A2.29,2.29,0,0,0,151.908,464.429Z" transform="translate(-147.999 -463.758)" fill="#fff"/>
          </g>
        </g>
        <g id="Group_116" data-name="Group 116" transform="translate(0 19.295)">
          <g id="Group_115" data-name="Group 115" transform="translate(0 0)">
            <path id="Path_374" data-name="Path 374" d="M248.279,453.757a2.291,2.291,0,0,0-2.291,2.291V464.8a2.291,2.291,0,0,0,4.582,0v-8.757a2.291,2.291,0,0,0-2.291-2.291Z" transform="translate(-245.988 -453.757)" fill="#fff"/>
          </g>
        </g>
      </g>
      <g id="Group_2" data-name="Group 2" transform="translate(479.422 224.659)">
        <g id="Group_140-2" data-name="Group 140" transform="translate(0 28.055)">
          <g id="Group_139-2" data-name="Group 139">
            <path id="Path_386-2" data-name="Path 386" d="M151.908,467.667a2.29,2.29,0,1,1,.671-1.619A2.29,2.29,0,0,1,151.908,467.667Z" transform="translate(-147.999 -463.758)" fill="#fff"/>
          </g>
        </g>
        <g id="Group_116-2" data-name="Group 116" transform="translate(0)">
          <g id="Group_115-2" data-name="Group 115">
            <path id="Path_374-2" data-name="Path 374" d="M248.279,467.1a2.291,2.291,0,0,1-2.291-2.291v-8.757a2.291,2.291,0,1,1,4.582,0V464.8A2.291,2.291,0,0,1,248.279,467.1Z" transform="translate(-245.988 -453.757)" fill="#fff"/>
          </g>
        </g>
      </g>
    </g>
  </g>
</svg>
