<svg xmlns="http://www.w3.org/2000/svg" width="150" height="150" viewBox="0 0 150 150">
  <g id="Group_276" data-name="Group 276" transform="translate(-869.537 -534.537)">
    <path id="Path_393" data-name="Path 393" d="M75,0A75,75,0,1,1,0,75,75,75,0,0,1,75,0Z" transform="translate(869.537 534.537)" fill="rgba(226,226,226,0.43)"/>
    <g id="gift-box_1_" data-name="gift-box (1)" transform="translate(902.537 569.537)">
      <circle id="Ellipse_16" data-name="Ellipse 16" cx="1.865" cy="1.865" r="1.865" transform="translate(80.816 11.188)" fill="#6c757d"/>
      <path id="Path_249" data-name="Path 249" d="M112.61,163.837l-4.583,2.914,5.6,8.8,9.449-6.007-5.6-8.8-4.791,3.046C112.66,163.808,112.635,163.823,112.61,163.837Z" transform="translate(-91.287 -136.768)" fill="#6c757d"/>
      <path id="Path_250" data-name="Path 250" d="M41.57,167.239a3.85,3.85,0,0,0,2.921,4.595l.753.168,5.723-3.588a1.039,1.039,0,0,1,.2-.1l3.362-2.137-8.366-1.862a3.855,3.855,0,0,0-4.6,2.921Z" transform="translate(-36.22 -139.649)" fill="#6c757d"/>
      <path id="Path_251" data-name="Path 251" d="M147.77,75.678a3.85,3.85,0,0,0-4.595,2.921l-2.6,11.662,3.406-2.166a1.033,1.033,0,0,1,.175-.142l5.679-3.6.85-4.066A3.858,3.858,0,0,0,147.77,75.678Z" transform="translate(-118.222 -66.303)" fill="#6c757d"/>
      <path id="Path_252" data-name="Path 252" d="M188.843,103.534a4.222,4.222,0,0,0-.917-.1,4.156,4.156,0,0,0-2.236.655l-12.776,8.123,5.6,8.8,16.306-10.368-3.352-5.272a4.156,4.156,0,0,0-2.62-1.839Z" transform="translate(-144.977 -89.346)" fill="#6c757d"/>
      <path id="Path_253" data-name="Path 253" d="M26,202l-13.056,8.3a4.188,4.188,0,0,0-1.285,5.775l3.352,5.272L31.6,210.8Z" transform="translate(-11.007 -170.905)" fill="#6c757d"/>
      <path id="Path_254" data-name="Path 254" d="M238.828,340.66h13.4a4.188,4.188,0,0,0,4.183-4.183v-27H238.828Z" transform="translate(-199.519 -259.836)" fill="#6c757d"/>
      <path id="Path_255" data-name="Path 255" d="M68.665,336.477a4.188,4.188,0,0,0,4.183,4.183H82.8V309.475H68.664Z" transform="translate(-58.716 -259.836)" fill="#6c757d"/>
      <path id="Path_256" data-name="Path 256" d="M162.564,309.475h11.088V340.66H162.564Z" transform="translate(-136.414 -259.836)" fill="#6c757d"/>
      <path id="Path_257" data-name="Path 257" d="M367.74,223.319l.5-2.887a1.035,1.035,0,0,0-1.5-1.091L364.14,220.7l-2.593-1.363a1.035,1.035,0,0,0-1.5,1.091l.5,2.887-2.1,2.045a1.035,1.035,0,0,0,.574,1.766l2.9.422,1.3,2.627a1.035,1.035,0,0,0,1.857,0l1.3-2.627,2.9-.422a1.035,1.035,0,0,0,.574-1.766Z" transform="translate(-298.235 -185.155)" fill="#6c757d"/>
      <path id="Path_258" data-name="Path 258" d="M429.191,140.659l-2.847-.692L425.3,137.23a1.035,1.035,0,0,0-1.849-.175l-1.538,2.494-2.926.147a1.035,1.035,0,0,0-.737,1.7l1.9,2.233-.763,2.828a1.035,1.035,0,0,0,1.393,1.228l2.709-1.114,2.454,1.6a1.035,1.035,0,0,0,1.6-.946l-.222-2.921,2.28-1.839a1.035,1.035,0,0,0-.405-1.812Z" transform="translate(-347.779 -116.76)" fill="#6c757d"/>
      <path id="Path_259" data-name="Path 259" d="M394.129,26.664a1.035,1.035,0,0,0-.766-.78l-2.847-.692-1.044-2.737a1.035,1.035,0,0,0-1.849-.174l-1.537,2.494-2.926.147a1.035,1.035,0,0,0-.737,1.7l1.9,2.233-.764,2.828a1.035,1.035,0,0,0,1.393,1.228l2.709-1.114,2.454,1.6a1.035,1.035,0,0,0,1.6-.946l-.222-2.921,2.28-1.839A1.035,1.035,0,0,0,394.129,26.664Z" transform="translate(-318.133 -21.788)" fill="#6c757d"/>
      <path id="Path_260" data-name="Path 260" d="M278.828,233.027a13.528,13.528,0,0,0-10.773,1.459,11.931,11.931,0,0,0-3.527,3.329,1.035,1.035,0,1,0,1.749,1.109c.155-.242,3.9-5.9,12.054-3.887a1.035,1.035,0,1,0,.5-2.01Z" transform="translate(-220.65 -196.173)" fill="#6c757d"/>
      <path id="Path_261" data-name="Path 261" d="M281.527,169.941a1.035,1.035,0,1,0,1.855.921,17.462,17.462,0,0,1,4.562-5.362c4.018-3.093,8.684-3.572,13.866-1.42a1.035,1.035,0,0,0,.794-1.913c-7.37-3.059-12.727-.768-15.922,1.692a19.413,19.413,0,0,0-5.154,6.082Z" transform="translate(-234.76 -136.73)" fill="#6c757d"/>
      <path id="Path_262" data-name="Path 262" d="M333.231,98.222a1.035,1.035,0,0,0-.636,1.97,15.557,15.557,0,0,0,4.389.634,10.8,10.8,0,0,0,5.524-1.375c2.347-1.39,3.851-3.759,4.475-7.04a1.035,1.035,0,1,0-2.034-.387,7.868,7.868,0,0,1-3.487,5.641C338.024,99.709,333.305,98.245,333.231,98.222Z" transform="translate(-276.512 -79.209)" fill="#6c757d"/>
      <circle id="Ellipse_17" data-name="Ellipse 17" cx="1.865" cy="1.865" r="1.865" transform="translate(39.866 42.7)" fill="#6c757d"/>
      <circle id="Ellipse_18" data-name="Ellipse 18" cx="1.865" cy="1.865" r="1.865" transform="translate(54.536 8.881)" fill="#6c757d"/>
      <circle id="Ellipse_19" data-name="Ellipse 19" cx="1.865" cy="1.865" r="1.865" transform="translate(37.239 34.066)" fill="#6c757d"/>
      <circle id="Ellipse_20" data-name="Ellipse 20" cx="1.865" cy="1.865" r="1.865" transform="translate(77.746 37.101)" fill="#6c757d"/>
    </g>
  </g>
</svg>
