<svg xmlns="http://www.w3.org/2000/svg" width="13.512" height="13.441" viewBox="0 0 13.512 13.441"><path d="M12.854 8.28a.347.347 0 0 0-.347.347v3.08a1.042 1.042 0 0 1-1.041 1.041H1.734a1.042 1.042 0 0 1-1.04-1.041V2.666a1.042 1.042 0 0 1 1.041-1.041h3.08a.347.347 0 0 0 0-.694H1.734A1.736 1.736 0 0 0 0 2.666v9.039a1.736 1.736 0 0 0 1.734 1.734h9.732a1.736 1.736 0 0 0 1.734-1.732v-3.08a.347.347 0 0 0-.346-.347zm0 0" fill="#a49d97"/><path d="M3.87 7.626l6.252-6.253 2.016 2.016-6.252 6.256zm-1.02 3.036l2.228-.617-1.611-1.611zM12.702.313a1.072 1.072 0 0 0-1.514 0l-.454.454 2.016 2.016.452-.452a1.072 1.072 0 0 0 0-1.514zm0 0" fill="#a49d97"/></svg>