<svg xmlns="http://www.w3.org/2000/svg" xmlns:xlink="http://www.w3.org/1999/xlink" width="47" height="63" viewBox="0 0 47 63">
  <defs>
    <clipPath id="clip-ico-reward-locked">
      <rect width="47" height="63"/>
    </clipPath>
  </defs>
  <g id="ico-reward-locked" clip-path="url(#clip-ico-reward-locked)">
    <g id="lock" transform="translate(-63.992 0.344)">
      <g id="Group_94" data-name="Group 94" transform="translate(64)">
        <path id="Path_240" data-name="Path 240" d="M109.687,23.5h-3.916V18.275a18.275,18.275,0,1,0-36.549,0V23.5H65.305A1.3,1.3,0,0,0,64,24.8V57.435a5.226,5.226,0,0,0,5.221,5.221h36.549a5.226,5.226,0,0,0,5.221-5.221V24.8A1.3,1.3,0,0,0,109.687,23.5ZM91.4,50.764a1.306,1.306,0,0,1-1.3,1.449H84.885a1.306,1.306,0,0,1-1.3-1.449l.823-7.4a5.164,5.164,0,0,1-2.136-4.2,5.221,5.221,0,0,1,10.443,0,5.164,5.164,0,0,1-2.136,4.2ZM97.939,23.5H77.053V18.275a10.443,10.443,0,1,1,20.885,0Z" transform="translate(-64)" fill="#6c757d"/>
      </g>
    </g>
  </g>
</svg>
