<svg xmlns="http://www.w3.org/2000/svg" width="150" height="150" viewBox="0 0 150 150">
  <g id="Group_31" data-name="Group 31" transform="translate(-203 -1483)">
    <path id="Path_393" data-name="Path 393" d="M75,0A75,75,0,1,1,0,75,75,75,0,0,1,75,0Z" transform="translate(203 1483)" fill="rgba(226,226,226,0.43)"/>
    <g id="tip" transform="translate(198.264 1490.007)">
      <path id="Path_1" data-name="Path 1" d="M84.816,196.841a5.9,5.9,0,0,1-1.412-.169l-26.867-6.633v.507a2.1,2.1,0,0,1-2.093,2.093H43.006a1.127,1.127,0,1,1,0-2.254H54.281V188.6a1.127,1.127,0,0,1,1.4-1.095l28.264,6.979a3.775,3.775,0,0,0,2.389-.207l29.134-12.931a1.127,1.127,0,1,1,.914,2.061L87.244,196.338a6.049,6.049,0,0,1-2.428.5Z" transform="translate(-1.177 -87.465)" fill="#6c757d"/>
      <path id="Path_2" data-name="Path 2" d="M142.2,59.254a13.9,13.9,0,1,1,13.9-13.9A13.9,13.9,0,0,1,142.2,59.254Zm0-25.542a11.644,11.644,0,1,0,11.644,11.644A11.644,11.644,0,0,0,142.2,33.712Z" transform="translate(-48.643 -5.198)" fill="#6c757d"/>
      <path id="Path_3" data-name="Path 3" d="M157.375,50.753a4.75,4.75,0,0,0-1.543-1.682,12.5,12.5,0,0,0-2.946-1.328,6.744,6.744,0,0,1-2.378-1.193,1.8,1.8,0,0,1-.521-1.415,1.964,1.964,0,0,1,.595-1.537,2.576,2.576,0,0,1,1.818-.579,2.193,2.193,0,0,1,1.774.715,2.856,2.856,0,0,1,.647,1.643,1.468,1.468,0,1,0,2.924-.271,5.567,5.567,0,0,0-1.2-3.146,4.726,4.726,0,0,0-2.74-1.6v-.915a1.375,1.375,0,1,0-2.75,0v.9a5.015,5.015,0,0,0-2.689,1.383,4.7,4.7,0,0,0-1.314,3.426,4.634,4.634,0,0,0,1.2,3.28,8.543,8.543,0,0,0,3.738,2.029,6.678,6.678,0,0,1,2.434,1.249,1.782,1.782,0,0,1,.527,1.362,1.835,1.835,0,0,1-.672,1.5,2.937,2.937,0,0,1-1.956.621,2.986,2.986,0,0,1-2.157-.719,2.443,2.443,0,0,1-.7-1.554,1.472,1.472,0,0,0-2.928.309,5.13,5.13,0,0,0,1.375,3.122,5.407,5.407,0,0,0,3.114,1.525v.65a1.369,1.369,0,1,0,2.739,0v-.673a5.2,5.2,0,0,0,2.781-1.368A4.619,4.619,0,0,0,157.9,53.06,4.878,4.878,0,0,0,157.375,50.753Z" transform="translate(-58.653 -8.832)" fill="#6c757d"/>
      <path id="Path_4" data-name="Path 4" d="M122.348,118.675a2.968,2.968,0,0,0-.965-1.053,7.711,7.711,0,0,0-1.82-.822,4.08,4.08,0,0,1-1.435-.717,1.042,1.042,0,0,1-.3-.822,1.147,1.147,0,0,1,.345-.9,1.523,1.523,0,0,1,1.072-.338,1.287,1.287,0,0,1,1.041.417,1.691,1.691,0,0,1,.382.972.962.962,0,0,0,1.915-.179,3.467,3.467,0,0,0-.748-1.963,2.947,2.947,0,0,0-1.665-.988v-.51a.9.9,0,0,0-1.809,0v.506a3.123,3.123,0,0,0-1.63.856,2.937,2.937,0,0,0-.823,2.143,2.9,2.9,0,0,0,.753,2.052,5.286,5.286,0,0,0,2.316,1.26,4,4,0,0,1,1.467.751,1.033,1.033,0,0,1,.3.791,1.067,1.067,0,0,1-.39.873,1.742,1.742,0,0,1-1.159.366,1.773,1.773,0,0,1-1.279-.423,1.423,1.423,0,0,1-.412-.915.965.965,0,0,0-1.919.2,3.2,3.2,0,0,0,.86,1.95,3.355,3.355,0,0,0,1.891.944v.346a.9.9,0,1,0,1.8,0v-.361a3.232,3.232,0,0,0,1.686-.845,2.891,2.891,0,0,0,.846-2.15,3.048,3.048,0,0,0-.328-1.444Z" transform="translate(-41.657 -48.814)" fill="#6c757d"/>
      <g id="Group_1" data-name="Group 1" transform="translate(39.736 21.993)">
        <path id="Path_5" data-name="Path 5" d="M118.8,164.848a6.9,6.9,0,0,0-8.348-4.012l-20.182,5.956a7.764,7.764,0,0,0-.138-1.969l-.018-.094a6,6,0,0,0-4.545-4.79l-16.022-4a5.936,5.936,0,0,0-3.677.262l-10.508,4.259v-2.833a2.1,2.1,0,0,0-2.093-2.093H41.829a2.1,2.1,0,0,0-2.093,2.093v23.306a2.1,2.1,0,0,0,2.093,2.093H53.265a2.1,2.1,0,0,0,2.093-2.093v-.507l26.871,6.634a5.9,5.9,0,0,0,1.413.169,6.048,6.048,0,0,0,2.429-.5l29.135-12.931a6.879,6.879,0,0,0,3.59-8.941Zm-4.508,6.882L85.155,184.66a3.778,3.778,0,0,1-2.389.207L54.5,177.888a1.148,1.148,0,0,0-.27-.032,1.127,1.127,0,0,0-1.127,1.127v1.785H41.99V157.784H53.1v17.085a1.127,1.127,0,0,0,2.254,0V162.888l11.357-4.6A3.7,3.7,0,0,1,69,158.122l16.021,4a3.756,3.756,0,0,1,2.865,2.972l.027.146a3.55,3.55,0,0,1-.423,2.849c-.631.76-1.91,1.163-3.7,1.163a21.86,21.86,0,0,1-4.047-.582c-.58-.119-1.127-.231-1.6-.305a1.127,1.127,0,1,0-.351,2.226c.417.066.939.173,1.493.287a23.84,23.84,0,0,0,4.5.627c2.522,0,4.351-.666,5.439-1.979l.09-.11c.027-.006.054-.013.08-.021l21.69-6.4a4.66,4.66,0,0,1,3.2,8.73Z" transform="translate(-39.736 -95.333)" fill="#6c757d"/>
        <path id="Path_6" data-name="Path 6" d="M53.149,165.592a3.21,3.21,0,1,0,3.21,3.21,3.21,3.21,0,0,0-3.21-3.21Zm0,4.166a.956.956,0,1,1,.956-.956A.956.956,0,0,1,53.149,169.758Z" transform="translate(-45.339 -100.86)" fill="#6c757d"/>
        <path id="Path_7" data-name="Path 7" d="M137,58.326A18.167,18.167,0,1,0,118.835,40.16,18.167,18.167,0,0,0,137,58.326Zm0-34.083a15.913,15.913,0,1,1-15.913,15.913A15.913,15.913,0,0,1,137,24.244Z" transform="translate(-83.178 -21.993)" fill="#6c757d"/>
        <path id="Path_8" data-name="Path 8" d="M97.782,111.753a11.571,11.571,0,1,0,11.571-11.571A11.571,11.571,0,0,0,97.782,111.753Zm20.887,0a9.317,9.317,0,1,1-9.317-9.317A9.317,9.317,0,0,1,118.669,111.753Z" transform="translate(-71.616 -64.935)" fill="#6c757d"/>
        <path id="Path_9" data-name="Path 9" d="M78.476,78.762A10.625,10.625,0,1,0,67.852,68.138,10.625,10.625,0,0,0,78.476,78.762Zm0-18.995a8.371,8.371,0,1,1-8.37,8.371A8.371,8.371,0,0,1,78.476,59.767Z" transform="translate(-55.178 -41.501)" fill="#6c757d"/>
      </g>
      <path id="Path_10" data-name="Path 10" d="M90.371,74.317a2.847,2.847,0,0,0-.923-1.009,7.148,7.148,0,0,0-1.69-.766,3.586,3.586,0,0,1-1.254-.623.789.789,0,0,1-.225-.642.908.908,0,0,1,.268-.711,1.249,1.249,0,0,1,.877-.27,1.037,1.037,0,0,1,.839.331,1.4,1.4,0,0,1,.312.8,1.017,1.017,0,0,0,2.025-.185,3.3,3.3,0,0,0-.713-1.864,2.8,2.8,0,0,0-1.481-.92v-.351a.966.966,0,1,0-1.931,0v.343a2.951,2.951,0,0,0-1.443.792,2.809,2.809,0,0,0-.788,2.05,2.777,2.777,0,0,0,.721,1.964,4.932,4.932,0,0,0,2.164,1.183,3.538,3.538,0,0,1,1.282.65.8.8,0,0,1,.234.617.825.825,0,0,1-.3.684,1.442,1.442,0,0,1-.961.3,1.477,1.477,0,0,1-1.061-.344,1.159,1.159,0,0,1-.333-.745,1.02,1.02,0,0,0-2.029.215,3.051,3.051,0,0,0,.822,1.857,3.145,3.145,0,0,0,1.68.878v.2a.963.963,0,1,0,1.926,0v-.212a3.038,3.038,0,0,0,1.49-.783,2.766,2.766,0,0,0,.811-2.057A2.916,2.916,0,0,0,90.371,74.317Z" transform="translate(-24.282 -24.798)" fill="#6c757d"/>
    </g>
  </g>
</svg>
