<svg xmlns="http://www.w3.org/2000/svg" xmlns:xlink="http://www.w3.org/1999/xlink" width="45" height="42" viewBox="0 0 45 42">
  <defs>
    <clipPath id="clip-ico-time-passed-alt">
      <rect width="45" height="42"/>
    </clipPath>
  </defs>
  <g id="ico-time-passed-alt" clip-path="url(#clip-ico-time-passed-alt)">
    <g id="passage-of-time" transform="translate(0)">
      <g id="Layer_1_65_" transform="translate(0 0)">
        <g id="Group_1" data-name="Group 1">
          <path id="Path_1" data-name="Path 1" d="M44.748,19.276a.943.943,0,0,0-.855-.543H41.1a20.71,20.71,0,1,0-2.425,14.136,1.884,1.884,0,0,0-3.262-1.888,16.975,16.975,0,1,1,1.832-12.247h-2.77a.942.942,0,0,0-.725,1.545l4.711,5.652a.942.942,0,0,0,1.447,0l4.711-5.652A.942.942,0,0,0,44.748,19.276Z" transform="translate(0 -1.775)" fill="#868686"/>
          <path id="Path_2" data-name="Path 2" d="M21.567,6.713A1.884,1.884,0,0,0,19.683,8.6V20.03a3.294,3.294,0,0,0,1.885,6,3.256,3.256,0,0,0,1.391-.319l6.554,3.783a1.864,1.864,0,0,0,.941.254,1.884,1.884,0,0,0,.943-3.515l-6.56-3.788a3.282,3.282,0,0,0-1.382-2.41V8.6A1.888,1.888,0,0,0,21.567,6.713Zm0,17.428a1.412,1.412,0,1,1,1.413-1.412A1.414,1.414,0,0,1,21.567,24.141Z" transform="translate(-0.841 -2.002)" fill="#868686"/>
        </g>
      </g>
    </g>
  </g>
</svg>
