<svg xmlns="http://www.w3.org/2000/svg" width="20.616" height="18" viewBox="0 0 20.616 18"><path d="M20.616 5.897a.47.47 0 0 0-.067-.249L17.482.256a.508.508 0 0 0-.438-.257H3.568a.5.5 0 0 0-.438.257L.068 5.648a.51.51 0 0 0-.067.249 2.957 2.957 0 0 0 1.769 2.7v8.893a.507.507 0 0 0 .505.505h16.062a.507.507 0 0 0 .505-.505V8.67a.223.223 0 0 0 0-.055 2.965 2.965 0 0 0 1.774-2.718zM3.863 1.015h12.886l2.4 4.217H1.47zm10.809 5.223a1.943 1.943 0 0 1-3.825 0zm-4.9 0a1.945 1.945 0 0 1-3.829 0zm-8.728 0h3.829a1.945 1.945 0 0 1-3.829 0zm7.631 10.753H5.407v-6.176h3.268zm9.156 0H9.506v-6.5a.532.532 0 0 0-.532-.532H5.107a.532.532 0 0 0-.532.532v6.5h-1.8V8.85h.177a2.954 2.954 0 0 1 4.9 0 2.95 2.95 0 0 1 4.9 0 2.95 2.95 0 0 1 4.9 0h.173zm-.173-9.145a1.942 1.942 0 0 1-1.912-1.6h3.829a1.954 1.954 0 0 1-1.916 1.598z"/><path d="M10.978 13.672h4.758a.492.492 0 0 0 .492-.492v-2.618a.492.492 0 0 0-.492-.492h-4.754a.492.492 0 0 0-.492.492v2.618a.492.492 0 0 0 .488.492zm4.433-2.806v2.01h-4.086v-2.01z"/></svg>