<svg xmlns="http://www.w3.org/2000/svg" width="288.976" height="277.211" viewBox="0 0 288.976 277.211"><g transform="translate(-120.269 -314.269)"><g transform="translate(196.304 395.715)" fill="#fff" stroke="#707070"><circle cx="62.352" cy="62.352" r="62.352" stroke="none"/><circle cx="62.352" cy="62.352" r="61.852" fill="none"/></g><path d="M234.934 459.645l14.6 14.6 33.461-33.462" fill="none" stroke="#28bf2e" stroke-linecap="round" stroke-width="8"/><path d="M229.052 355.103l5.024 5.024 11.517-11.517m-96.539 156.079l2.493 2.493 5.717-5.715m214.79-78.778l2.493 2.493 5.717-5.715" fill="none" stroke="#fff" stroke-linecap="round"/><g transform="translate(173.951 373.363)" fill="none" stroke="#fff"><circle cx="84.704" cy="84.704" r="84.704" stroke="none"/><circle cx="84.704" cy="84.704" r="84.204"/></g><g fill="none" stroke="#fff"><path stroke="none" d="M196.304 365.128h8.235v8.235h-8.235z"/><path d="M196.804 365.628h7.235v7.235h-7.235z"/></g><g fill="none" stroke="#fff"><path stroke="none" d="M317.477 554.535h8.235v8.235h-8.235z"/><path d="M317.977 555.035h7.235v7.235h-7.235z"/></g><g transform="translate(184.539 543.947)" fill="none" stroke="#fff"><circle cx="5.294" cy="5.294" r="5.294" stroke="none"/><circle cx="5.294" cy="5.294" r="4.794"/></g><g transform="translate(316.301 365.128)" fill="none" stroke="#fff"><circle cx="4.118" cy="4.118" r="4.118" stroke="none"/><circle cx="4.118" cy="4.118" r="3.618"/></g><rect width="50.587" height="218.819" rx="24" transform="rotate(45 -241.857 489.085)" fill="#fff" opacity=".15"/><rect width="50.587" height="263.523" rx="24" transform="rotate(45 -239.873 580.492)" fill="#fff" opacity=".15"/><rect width="50.587" height="221.172" rx="24" transform="rotate(45 -295.282 650.48)" fill="#fff" opacity=".15"/></g></svg>