<svg xmlns="http://www.w3.org/2000/svg" width="10.475" height="9.575" viewBox="0 0 10.475 9.575"><g fill="red"><path d="M5.237 6.729a.538.538 0 0 0 0 1.077.538.538 0 0 0 0-1.077z"/><path d="M10.219 8.637a1.838 1.838 0 0 0 0-1.86L6.847.937a1.858 1.858 0 0 0-3.226 0L.25 6.78a1.865 1.865 0 0 0 1.615 2.795H8.6a1.854 1.854 0 0 0 1.619-.938zm-.732-.419a1.018 1.018 0 0 1-.889.515H1.863a1 1 0 0 1-.879-.5 1.019 1.019 0 0 1 0-1.027L4.36 1.362a1.014 1.014 0 0 1 1.761 0l3.374 5.844a1 1 0 0 1-.008 1.012z"/><path d="M5.104 2.95a.585.585 0 0 0-.416.588l.037.512.11 1.931a.394.394 0 0 0 .4.379.4.4 0 0 0 .4-.392c0-.133 0-.256.013-.392.024-.416.05-.831.073-1.247.013-.269.037-.538.05-.807a.665.665 0 0 0-.05-.269.54.54 0 0 0-.617-.303z"/></g></svg>