<svg xmlns="http://www.w3.org/2000/svg" width="20.914" height="20.914" viewBox="0 0 20.914 20.914"><g fill="#f93664" stroke="#f93664" stroke-width=".5"><path d="M10.457 9.096a2.382 2.382 0 1 0-2.382-2.381 2.384 2.384 0 0 0 2.382 2.381zm0-4.083a1.7 1.7 0 1 1-1.7 1.7 1.7 1.7 0 0 1 1.7-1.7z"/><path d="M10.396 18.88l5.219-7.538a7.434 7.434 0 0 0-.606-9.18 6.524 6.524 0 0 0-9.227 0 7.432 7.432 0 0 0-.614 9.17zM6.264 2.642a5.844 5.844 0 0 1 8.265 0 6.717 6.717 0 0 1 .535 8.3l-4.668 6.742-4.67-6.751a6.714 6.714 0 0 1 .538-8.291z"/><path d="M14.579 14.88a.34.34 0 1 0-.08.676c3.578.421 5.483 1.556 5.483 2.214 0 .923-3.624 2.211-9.526 2.211S.93 18.695.93 17.771c0-.658 1.906-1.793 5.483-2.214a.34.34 0 0 0-.079-.677C2.75 15.304.25 16.492.25 17.771c0 1.437 3.506 2.892 10.207 2.892s10.207-1.455 10.207-2.892c0-1.279-2.502-2.467-6.085-2.891z"/></g></svg>