<svg xmlns="http://www.w3.org/2000/svg" xmlns:xlink="http://www.w3.org/1999/xlink" width="47" height="43" viewBox="0 0 47 43">
  <defs>
    <clipPath id="clip-ico-reward-coins">
      <rect width="47" height="43"/>
    </clipPath>
  </defs>
  <g id="ico-reward-coins" clip-path="url(#clip-ico-reward-coins)">
    <g id="coin_3_" data-name="coin (3)" transform="translate(-0.174 -21.308)">
      <path id="Path_192" data-name="Path 192" d="M39.521,327.514v5.3c0,1.161-.855,2.253-2.371,3.213-.216.132-.445.271-.7.4a.007.007,0,0,0-.007.007c-.216.118-.445.23-.688.348a20.846,20.846,0,0,1-2.782,1.05c-.229.07-.459.139-.7.209h-.007q-.334.094-.688.188c-.876.223-1.8.424-2.782.591-.229.042-.459.083-.7.118H28.1c-.229.035-.452.076-.688.1-.9.132-1.822.237-2.782.32-.229.021-.459.042-.7.056H23.93c-.229.021-.452.035-.688.049-.9.056-1.836.09-2.782.1-.229.007-.459.007-.7.007h-.007c-.236,0-.459,0-.688-.007-.946-.007-1.878-.042-2.782-.1-.236-.014-.466-.028-.7-.049h-.007c-.236-.014-.459-.035-.688-.056-.96-.083-1.885-.188-2.782-.32-.236-.028-.466-.07-.7-.1h-.007c-.236-.035-.459-.077-.688-.118-.981-.167-1.905-.369-2.782-.591-.236-.063-.473-.125-.7-.188H7.24c-.236-.07-.459-.139-.688-.209a20.847,20.847,0,0,1-2.782-1.05c-.243-.111-.473-.23-.7-.355a.007.007,0,0,1-.007-.007,6.556,6.556,0,0,1-.688-.389C.862,335.073,0,333.974,0,332.813v-5.3Z" transform="translate(0 -275.509)" fill="#f6c358"/>
      <path id="Path_193" data-name="Path 193" d="M39.521,267.234c0,1.161-.855,2.253-2.371,3.2a6.906,6.906,0,0,1-.7.41c-.216.125-.445.236-.688.355a21.859,21.859,0,0,1-2.782,1.05c-.229.07-.459.139-.7.208h-.007q-.334.094-.688.188c-.876.223-1.8.424-2.782.591-.229.042-.459.083-.7.118H28.1c-.229.035-.452.077-.688.1-.9.132-1.822.236-2.782.32-.229.021-.459.042-.7.056H23.93c-.229.021-.452.035-.688.049-.9.056-1.836.091-2.782.1-.229.007-.459.007-.7.007h-.007c-.236,0-.459,0-.688-.007-.946-.007-1.878-.042-2.782-.1-.236-.014-.466-.028-.7-.049h-.007c-.236-.014-.459-.035-.688-.056-.96-.083-1.885-.188-2.782-.32-.236-.028-.466-.07-.7-.1h-.007c-.236-.035-.459-.076-.688-.118-.981-.167-1.905-.369-2.782-.591-.236-.062-.473-.125-.7-.188H7.24c-.236-.069-.459-.139-.688-.208A20.876,20.876,0,0,1,3.77,271.2c-.243-.111-.473-.23-.7-.355a.007.007,0,0,1-.007-.007,6.572,6.572,0,0,1-.688-.389C.862,269.494,0,268.4,0,267.234c0-3.727,8.853-6.753,19.764-6.753S39.521,263.506,39.521,267.234Z" transform="translate(0 -215.228)" fill="#fcd462"/>
      <path id="Path_194" data-name="Path 194" d="M36.547,288.946c-.2,0-.384,0-.577-.006-.91-.007-1.811-.039-2.724-.095-.222-.013-.432-.026-.642-.045l-.084-.008h-.033c-.186-.012-.364-.028-.545-.045-1-.087-1.875-.188-2.708-.31-.192-.023-.325-.045-.458-.067l-.375-.058c-.14-.023-.495-.088-.495-.088-.9-.152-1.758-.335-2.656-.563-.208-.055-.435-.115-.648-.175l-.66-.2a19.9,19.9,0,0,1-2.144-.779V286.5l-1.047-.51-.338-.19H20.4c-.051-.03-.1-.062-.153-.095-1.123-.706-1.514-1.316-1.514-1.627,0-1.715,6.787-4.865,17.877-4.865s17.87,3.15,17.87,4.865c0,.31-.389.915-1.483,1.6a5.468,5.468,0,0,1-.548.324l-.1.056c-.172.1-.355.187-.548.281a20.077,20.077,0,0,1-2.534.953l-.653.194q-.321.09-.661.18c-.878.223-1.74.406-2.615.555-.186.034-.358.065-.531.093l-.382.059c-.125.021-.25.042-.381.057-.89.13-1.763.23-2.726.314-.2.018-.393.036-.59.049l-.117.008c-.21.019-.414.031-.63.044-.918.056-1.819.088-2.685.094-.236.007-.433.007-.633.007Z" transform="translate(-16.844 -232.075)" fill="#f6c358"/>
      <g id="Group_84" data-name="Group 84" transform="translate(2.378 55.204)">
        <path id="Path_195" data-name="Path 195" d="M25,360.159v5.3c-.243-.111-.473-.23-.7-.355a.007.007,0,0,1-.007-.007,6.55,6.55,0,0,1-.688-.389v-5.3a6.573,6.573,0,0,0,.688.39.007.007,0,0,0,.007.007C24.528,359.93,24.757,360.048,25,360.159Z" transform="translate(-23.61 -359.394)" fill="#dc8744"/>
        <path id="Path_196" data-name="Path 196" d="M66.422,377.684v5.3c-.236-.063-.473-.125-.7-.188h-.007c-.236-.07-.459-.139-.688-.209v-5.3c.229.07.452.139.688.208h.007C65.949,377.559,66.185,377.622,66.422,377.684Z" transform="translate(-60.858 -375.473)" fill="#dc8744"/>
        <path id="Path_197" data-name="Path 197" d="M107.842,387.314v5.3c-.236-.028-.466-.07-.7-.1h-.007c-.236-.035-.459-.077-.688-.118v-5.3c.229.042.452.083.688.118h.007C107.376,387.244,107.605,387.286,107.842,387.314Z" transform="translate(-98.106 -384.288)" fill="#dc8744"/>
        <path id="Path_198" data-name="Path 198" d="M149.263,392.58v5.3c-.236-.014-.466-.028-.7-.049h-.007c-.236-.014-.459-.035-.688-.056v-5.3c.229.021.452.042.688.056h.007C148.8,392.552,149.026,392.566,149.263,392.58Z" transform="translate(-135.354 -389.131)" fill="#dc8744"/>
        <path id="Path_199" data-name="Path 199" d="M190.683,394.477v5.3c-.229.007-.459.007-.7.007h-.007c-.236,0-.459,0-.688-.007v-5.3c.229.007.452.007.688.007h.007C190.224,394.484,190.453,394.484,190.683,394.477Z" transform="translate(-172.602 -390.93)" fill="#dc8744"/>
        <path id="Path_200" data-name="Path 200" d="M232.1,392.476v5.3c-.229.021-.459.042-.7.056H231.4c-.23.021-.452.035-.688.049v-5.3c.236-.014.459-.028.688-.049h.007C231.645,392.518,231.874,392.5,232.1,392.476Z" transform="translate(-209.85 -389.131)" fill="#dc8744"/>
        <path id="Path_201" data-name="Path 201" d="M273.524,387.091v5.3c-.23.042-.459.083-.7.118h-.007c-.23.035-.452.076-.688.1v-5.3c.236-.028.459-.069.688-.1h.007C273.065,387.174,273.294,387.133,273.524,387.091Z" transform="translate(-247.098 -384.289)" fill="#dc8744"/>
        <path id="Path_202" data-name="Path 202" d="M314.945,377.288v5.3c-.229.07-.459.139-.7.209h-.007q-.334.094-.688.188v-5.3q.355-.094.688-.188h.007C314.486,377.427,314.715,377.358,314.945,377.288Z" transform="translate(-284.346 -375.473)" fill="#dc8744"/>
        <path id="Path_203" data-name="Path 203" d="M356.365,359.27v5.313c-.216.132-.445.271-.7.4a.007.007,0,0,0-.007.007c-.216.118-.445.23-.688.348v-5.3c.243-.118.473-.23.688-.355A6.974,6.974,0,0,0,356.365,359.27Z" transform="translate(-321.594 -359.27)" fill="#dc8744"/>
      </g>
      <path id="Path_204" data-name="Path 204" d="M115.5,247.735v5.3c0,1.161-.855,2.253-2.371,3.213-.216.132-.445.271-.7.4a.007.007,0,0,0-.007.007c-.216.118-.445.23-.688.348a20.841,20.841,0,0,1-2.782,1.05c-.229.07-.459.139-.7.209h-.007q-.334.094-.688.188c-.876.223-1.8.424-2.782.591-.229.042-.459.083-.7.118h-.007c-.229.035-.452.076-.688.1-.9.132-1.822.236-2.782.32-.229.021-.459.042-.7.056h-.007c-.229.021-.452.035-.688.049-.9.056-1.836.09-2.782.1-.229.007-.459.007-.7.007h-.007c-.236,0-.459,0-.688-.007-.946-.007-1.878-.042-2.782-.1-.236-.014-.466-.028-.7-.049h-.007c-.236-.014-.459-.035-.688-.056-.96-.083-1.885-.188-2.782-.32-.236-.028-.466-.07-.7-.1h-.007c-.236-.035-.459-.077-.688-.118-.981-.167-1.905-.369-2.782-.591-.236-.063-.473-.125-.7-.188h-.007c-.236-.07-.459-.139-.688-.209A20.841,20.841,0,0,1,79.746,257c-.243-.111-.473-.23-.7-.355a.007.007,0,0,1-.007-.007,6.528,6.528,0,0,1-.688-.389c-1.516-.953-2.378-2.052-2.378-3.213v-5.3H115.5Z" transform="translate(-68.323 -203.766)" fill="#f6c358"/>
      <path id="Path_205" data-name="Path 205" d="M115.5,187.456c0,1.161-.855,2.253-2.371,3.2a6.921,6.921,0,0,1-.7.41c-.216.125-.445.236-.688.355a21.855,21.855,0,0,1-2.782,1.05c-.229.069-.459.139-.7.209h-.007q-.334.094-.688.188c-.876.223-1.8.424-2.782.591-.229.042-.459.083-.7.118h-.007c-.229.035-.452.077-.688.1-.9.132-1.822.236-2.782.32-.229.021-.459.042-.7.056H99.9c-.229.021-.452.035-.688.049-.9.056-1.836.091-2.782.1-.23.007-.459.007-.7.007h-.007c-.236,0-.459,0-.688-.007-.946-.007-1.878-.042-2.782-.1-.236-.014-.466-.028-.7-.049H91.56c-.236-.014-.459-.035-.688-.056-.96-.083-1.885-.188-2.782-.32-.236-.028-.466-.07-.7-.1h-.007c-.236-.035-.459-.076-.688-.118-.981-.167-1.905-.369-2.782-.591-.236-.062-.473-.125-.7-.188h-.007c-.236-.069-.459-.139-.688-.209a20.864,20.864,0,0,1-2.782-1.05c-.243-.111-.473-.229-.7-.355a.007.007,0,0,1-.007-.007,6.6,6.6,0,0,1-.688-.389c-1.516-.953-2.378-2.051-2.378-3.213,0-3.727,8.853-6.753,19.764-6.753S115.5,183.728,115.5,187.456Z" transform="translate(-68.322 -143.487)" fill="#fcd462"/>
      <path id="Path_206" data-name="Path 206" d="M112.519,209.165c-.2,0-.383,0-.575-.006-.916-.007-1.817-.039-2.723-.095-.222-.013-.432-.025-.641-.045l-.085-.008h-.035c-.179-.011-.35-.027-.524-.043-1.027-.09-1.9-.19-2.728-.312-.193-.023-.326-.045-.459-.067l-.375-.058c-.144-.023-.5-.088-.5-.088-.9-.154-1.762-.337-2.654-.564-.209-.055-.435-.115-.648-.175l-.659-.2a19.89,19.89,0,0,1-2.145-.78v-.007l-1.052-.511-.334-.188h-.013q-.076-.046-.154-.1c-1.122-.705-1.514-1.315-1.514-1.627,0-1.715,6.787-4.866,17.877-4.866s17.87,3.15,17.87,4.866c0,.31-.389.915-1.483,1.6a5.516,5.516,0,0,1-.548.324l-.1.055c-.172.1-.356.187-.55.281a19.979,19.979,0,0,1-2.534.954l-.654.194q-.321.09-.661.18c-.874.222-1.736.405-2.615.555-.185.034-.357.065-.529.092l-.385.06c-.125.021-.249.041-.379.057-.885.13-1.759.23-2.726.314-.2.018-.393.036-.589.049l-.12.008c-.209.019-.412.031-.627.044-.912.057-1.814.088-2.685.094-.236.007-.433.007-.633.007Z" transform="translate(-85.164 -160.331)" fill="#f6c358"/>
      <g id="Group_85" data-name="Group 85" transform="translate(10.031 47.168)">
        <path id="Path_207" data-name="Path 207" d="M100.973,280.38v5.3c-.243-.111-.473-.229-.7-.355a.007.007,0,0,1-.007-.007,6.554,6.554,0,0,1-.688-.389v-5.3a6.581,6.581,0,0,0,.688.389.007.007,0,0,0,.007.007C100.5,280.15,100.729,280.269,100.973,280.38Z" transform="translate(-99.582 -279.615)" fill="#dc8744"/>
        <path id="Path_208" data-name="Path 208" d="M142.394,297.905v5.3c-.236-.063-.473-.125-.7-.188h-.007c-.236-.07-.459-.139-.688-.209v-5.3c.229.07.452.139.688.209h.007C141.921,297.78,142.157,297.843,142.394,297.905Z" transform="translate(-136.83 -295.694)" fill="#dc8744"/>
        <path id="Path_209" data-name="Path 209" d="M183.814,307.534v5.3c-.236-.028-.466-.069-.7-.1h-.007c-.236-.035-.459-.077-.688-.118v-5.3c.229.042.452.083.688.118h.007C183.348,307.464,183.577,307.506,183.814,307.534Z" transform="translate(-174.078 -304.508)" fill="#dc8744"/>
        <path id="Path_210" data-name="Path 210" d="M225.235,312.8v5.3c-.236-.014-.466-.028-.7-.049h-.007c-.236-.014-.459-.035-.688-.056v-5.3c.229.021.452.042.688.056h.007C224.769,312.772,225,312.786,225.235,312.8Z" transform="translate(-211.326 -309.351)" fill="#dc8744"/>
        <path id="Path_211" data-name="Path 211" d="M266.655,314.7V320c-.23.007-.459.007-.7.007h-.007c-.236,0-.459,0-.688-.007v-5.3c.23.007.452.007.688.007h.007C266.2,314.7,266.425,314.7,266.655,314.7Z" transform="translate(-248.574 -311.15)" fill="#dc8744"/>
        <path id="Path_212" data-name="Path 212" d="M308.076,312.7V318c-.229.021-.459.042-.7.056h-.007c-.23.021-.452.035-.688.049v-5.3c.236-.014.459-.028.688-.049h.007C307.617,312.738,307.846,312.717,308.076,312.7Z" transform="translate(-285.822 -309.351)" fill="#dc8744"/>
        <path id="Path_213" data-name="Path 213" d="M349.5,307.311v5.3c-.229.042-.459.083-.7.118h-.007c-.229.035-.452.076-.688.1v-5.3c.236-.028.459-.069.688-.1h.007C349.037,307.394,349.266,307.353,349.5,307.311Z" transform="translate(-323.07 -304.509)" fill="#dc8744"/>
        <path id="Path_214" data-name="Path 214" d="M390.917,297.508v5.3c-.23.07-.459.139-.7.209h-.007q-.334.094-.688.188v-5.3q.355-.094.688-.188h.007C390.458,297.647,390.687,297.577,390.917,297.508Z" transform="translate(-360.318 -295.693)" fill="#dc8744"/>
        <path id="Path_215" data-name="Path 215" d="M432.337,279.49V284.8c-.216.132-.445.271-.7.4a.007.007,0,0,0-.007.007c-.215.118-.445.23-.688.348v-5.3c.243-.118.473-.229.688-.355A6.9,6.9,0,0,0,432.337,279.49Z" transform="translate(-397.566 -279.49)" fill="#dc8744"/>
      </g>
      <path id="Path_216" data-name="Path 216" d="M39.521,167.955v5.3c0,1.161-.855,2.253-2.371,3.213-.216.132-.445.271-.7.4a.007.007,0,0,0-.007.007c-.216.118-.445.23-.688.348a20.844,20.844,0,0,1-2.782,1.05c-.229.07-.459.139-.7.209h-.007q-.334.094-.688.188c-.876.223-1.8.424-2.782.591-.229.042-.459.083-.7.118H28.1c-.229.035-.452.076-.688.1-.9.132-1.822.237-2.782.32-.229.021-.459.042-.7.056H23.93c-.229.021-.452.035-.688.049-.9.055-1.836.09-2.782.1-.229.007-.459.007-.7.007h-.007c-.236,0-.459,0-.688-.007-.946-.007-1.878-.042-2.782-.1-.236-.014-.466-.028-.7-.049h-.007c-.236-.014-.459-.035-.688-.056-.96-.083-1.885-.188-2.782-.32-.236-.028-.466-.07-.7-.1h-.007c-.236-.035-.459-.077-.688-.118-.981-.167-1.905-.369-2.782-.591-.236-.063-.473-.125-.7-.188H7.24c-.236-.07-.459-.139-.688-.209a20.844,20.844,0,0,1-2.782-1.05c-.243-.111-.473-.229-.7-.355a.007.007,0,0,1-.007-.007,6.545,6.545,0,0,1-.688-.389C.862,175.514,0,174.415,0,173.254v-5.3Z" transform="translate(0 -132.023)" fill="#f6c358"/>
      <path id="Path_217" data-name="Path 217" d="M39.521,107.675c0,1.161-.855,2.253-2.371,3.2a6.919,6.919,0,0,1-.7.41c-.216.125-.445.236-.688.355a21.846,21.846,0,0,1-2.782,1.05c-.229.07-.459.139-.7.209h-.007q-.334.094-.688.188c-.876.223-1.8.424-2.782.591-.229.042-.459.083-.7.118H28.1c-.229.035-.452.077-.688.1-.9.132-1.822.236-2.782.32-.229.021-.459.042-.7.056H23.93c-.229.021-.452.035-.688.049-.9.056-1.836.09-2.782.1-.229.007-.459.007-.7.007h-.007c-.236,0-.459,0-.688-.007-.946-.007-1.878-.042-2.782-.1-.236-.014-.466-.028-.7-.049h-.007c-.236-.014-.459-.035-.688-.056-.96-.084-1.885-.188-2.782-.32-.236-.028-.466-.069-.7-.1h-.007c-.236-.035-.459-.076-.688-.118-.981-.167-1.905-.369-2.782-.591-.236-.062-.473-.125-.7-.188H7.24c-.236-.069-.459-.139-.688-.209a20.858,20.858,0,0,1-2.782-1.05c-.243-.111-.473-.229-.7-.355a.007.007,0,0,1-.007-.007,6.584,6.584,0,0,1-.688-.389C.862,109.935,0,108.836,0,107.675c0-3.727,8.853-6.753,19.764-6.753S39.521,103.947,39.521,107.675Z" transform="translate(0 -71.742)" fill="#fcd462"/>
      <path id="Path_218" data-name="Path 218" d="M36.549,129.385c-.2,0-.386,0-.58-.006-.913-.007-1.814-.039-2.721-.095-.22-.013-.43-.025-.64-.045l-.085-.008h-.035c-.179-.011-.35-.027-.524-.043-1.027-.09-1.9-.19-2.728-.312-.191-.023-.322-.045-.453-.066l-.38-.058c-.14-.023-.495-.088-.495-.088-.9-.153-1.759-.336-2.655-.564-.21-.055-.436-.115-.649-.175l-.658-.2a19.884,19.884,0,0,1-2.146-.78v-.007l-1.053-.512-.333-.187H20.4q-.076-.046-.153-.095c-1.123-.706-1.514-1.316-1.514-1.627,0-1.715,6.787-4.866,17.877-4.866s17.87,3.15,17.87,4.866c0,.31-.389.915-1.483,1.6a5.535,5.535,0,0,1-.548.324l-.1.055c-.172.1-.356.187-.55.281a20,20,0,0,1-2.534.954l-.654.194q-.32.09-.659.179c-.88.224-1.741.407-2.617.556-.19.034-.366.067-.542.095l-.376.058c-.124.02-.248.041-.376.056-.885.13-1.759.23-2.726.314-.2.018-.392.036-.589.049l-.121.008c-.21.019-.414.032-.63.044-.91.056-1.812.088-2.683.094-.234.006-.432.007-.633.007Z" transform="translate(-16.845 -88.587)" fill="#f6c358"/>
      <g id="Group_86" data-name="Group 86" transform="translate(2.378 39.131)">
        <path id="Path_219" data-name="Path 219" d="M25,200.6v5.3c-.243-.111-.473-.229-.7-.355a.007.007,0,0,1-.007-.007,6.525,6.525,0,0,1-.688-.389v-5.3a6.586,6.586,0,0,0,.688.389.007.007,0,0,0,.007.007C24.528,200.37,24.757,200.489,25,200.6Z" transform="translate(-23.61 -199.835)" fill="#dc8744"/>
        <path id="Path_220" data-name="Path 220" d="M66.422,218.125v5.3c-.236-.063-.473-.125-.7-.188h-.007c-.236-.07-.459-.139-.688-.209v-5.3c.229.07.452.139.688.208h.007C65.949,218,66.185,218.063,66.422,218.125Z" transform="translate(-60.858 -215.914)" fill="#dc8744"/>
        <path id="Path_221" data-name="Path 221" d="M107.842,227.753v5.3c-.236-.028-.466-.069-.7-.1h-.007c-.236-.035-.459-.077-.688-.118v-5.3c.229.042.452.083.688.118h.007C107.376,227.684,107.605,227.726,107.842,227.753Z" transform="translate(-98.106 -224.728)" fill="#dc8744"/>
        <path id="Path_222" data-name="Path 222" d="M149.263,233.02v5.3c-.236-.014-.466-.028-.7-.049h-.007c-.236-.014-.459-.035-.688-.056v-5.3c.229.021.452.042.688.056h.007C148.8,232.992,149.026,233.006,149.263,233.02Z" transform="translate(-135.354 -229.571)" fill="#dc8744"/>
        <path id="Path_223" data-name="Path 223" d="M190.683,234.918v5.3c-.229.007-.459.007-.7.007h-.007c-.236,0-.459,0-.688-.007v-5.3c.229.007.452.007.688.007h.007C190.224,234.925,190.453,234.925,190.683,234.918Z" transform="translate(-172.602 -231.371)" fill="#dc8744"/>
        <path id="Path_224" data-name="Path 224" d="M232.1,232.916v5.3c-.229.021-.459.042-.7.056H231.4c-.23.021-.452.035-.688.049v-5.3c.236-.014.459-.028.688-.049h.007C231.645,232.958,231.874,232.937,232.1,232.916Z" transform="translate(-209.85 -229.571)" fill="#dc8744"/>
        <path id="Path_225" data-name="Path 225" d="M273.524,227.531v5.3c-.23.042-.459.083-.7.118h-.007c-.23.035-.452.076-.688.1v-5.3c.236-.028.459-.069.688-.1h.007C273.065,227.615,273.294,227.573,273.524,227.531Z" transform="translate(-247.098 -224.728)" fill="#dc8744"/>
        <path id="Path_226" data-name="Path 226" d="M314.945,217.728v5.3c-.229.07-.459.139-.7.209h-.007q-.334.094-.688.188v-5.3q.355-.094.688-.188h.007C314.486,217.867,314.715,217.8,314.945,217.728Z" transform="translate(-284.346 -215.913)" fill="#dc8744"/>
        <path id="Path_227" data-name="Path 227" d="M356.365,199.71v5.313c-.216.132-.445.271-.7.4a.007.007,0,0,0-.007.007c-.216.118-.445.23-.688.348v-5.3c.243-.118.473-.229.688-.355A6.911,6.911,0,0,0,356.365,199.71Z" transform="translate(-321.594 -199.71)" fill="#dc8744"/>
      </g>
      <path id="Path_228" data-name="Path 228" d="M115.5,88.175v5.3c0,1.161-.855,2.253-2.371,3.213-.216.132-.445.271-.7.4a.007.007,0,0,0-.007.007c-.216.118-.445.23-.688.348a20.845,20.845,0,0,1-2.782,1.05c-.229.07-.459.139-.7.209h-.007q-.334.094-.688.188c-.876.223-1.8.424-2.782.591-.229.042-.459.083-.7.118h-.007c-.229.035-.452.076-.688.1-.9.132-1.822.237-2.782.32-.229.021-.459.042-.7.056h-.007c-.229.021-.452.035-.688.049-.9.055-1.836.09-2.782.1-.229.007-.459.007-.7.007h-.007c-.236,0-.459,0-.688-.007-.946-.007-1.878-.042-2.782-.1-.236-.014-.466-.028-.7-.049h-.007c-.236-.014-.459-.035-.688-.056-.96-.083-1.885-.188-2.782-.32-.236-.028-.466-.07-.7-.1h-.007c-.236-.035-.459-.077-.688-.118-.981-.167-1.905-.369-2.782-.591-.236-.063-.473-.125-.7-.188h-.007c-.236-.07-.459-.139-.688-.209a20.846,20.846,0,0,1-2.782-1.05c-.243-.111-.473-.229-.7-.355a.007.007,0,0,1-.007-.007,6.534,6.534,0,0,1-.688-.389c-1.516-.953-2.378-2.052-2.378-3.213v-5.3Z" transform="translate(-68.323 -60.279)" fill="#f6c358"/>
      <path id="Path_229" data-name="Path 229" d="M115.5,27.9c0,1.161-.855,2.253-2.371,3.2a6.926,6.926,0,0,1-.7.41c-.216.125-.445.236-.688.355a21.849,21.849,0,0,1-2.782,1.05c-.229.07-.459.139-.7.209h-.007q-.334.094-.688.188c-.876.223-1.8.424-2.782.591-.229.042-.459.083-.7.118h-.007c-.229.035-.452.077-.688.1-.9.132-1.822.236-2.782.32-.229.021-.459.042-.7.056H99.9c-.229.021-.452.035-.688.049-.9.056-1.836.09-2.782.1-.23.007-.459.007-.7.007h-.007c-.236,0-.459,0-.688-.007-.946-.007-1.878-.042-2.782-.1-.236-.014-.466-.028-.7-.049H91.56c-.236-.014-.459-.035-.688-.056-.96-.084-1.885-.188-2.782-.32-.236-.028-.466-.07-.7-.1h-.007c-.236-.035-.459-.076-.688-.118-.981-.167-1.905-.369-2.782-.591-.236-.062-.473-.125-.7-.188h-.007c-.236-.069-.459-.139-.688-.209a20.859,20.859,0,0,1-2.782-1.05c-.243-.111-.473-.229-.7-.355a.007.007,0,0,1-.007-.007,6.59,6.59,0,0,1-.688-.389c-1.516-.953-2.378-2.051-2.378-3.213,0-3.727,8.853-6.753,19.764-6.753S115.5,24.168,115.5,27.9Z" transform="translate(-68.322 0)" fill="#fcd462"/>
      <path id="Path_230" data-name="Path 230" d="M112.52,49.6c-.2,0-.383,0-.576-.006-.915-.007-1.817-.039-2.724-.095-.221-.013-.431-.026-.64-.045l-.085-.008h-.035c-.179-.011-.35-.027-.524-.043-1.026-.09-1.9-.19-2.729-.312-.187-.023-.319-.045-.449-.066l-.384-.059c-.139-.022-.5-.088-.5-.088-.9-.153-1.759-.336-2.654-.564-.21-.055-.436-.115-.648-.175l-.662-.2a19.912,19.912,0,0,1-2.143-.779v-.008l-1.052-.511-.334-.188h-.014c-.051-.03-.1-.062-.152-.094C95.1,45.659,94.7,45.049,94.7,44.738c0-1.715,6.787-4.866,17.877-4.866s17.87,3.15,17.87,4.866c0,.31-.389.915-1.483,1.6a5.538,5.538,0,0,1-.548.324l-.1.055c-.175.1-.363.191-.56.287a20.088,20.088,0,0,1-2.524.948l-.653.194q-.32.09-.659.179c-.88.224-1.741.407-2.617.556-.193.035-.368.067-.543.095l-.379.058c-.123.02-.246.041-.374.056-.884.13-1.758.23-2.724.314-.2.018-.393.036-.589.049l-.12.008c-.209.019-.412.032-.627.044-.913.056-1.814.088-2.686.094-.235.007-.432.007-.632.007Z" transform="translate(-85.165 -16.842)" fill="#f6c358"/>
      <g id="Group_87" data-name="Group 87" transform="translate(10.031 31.094)">
        <path id="Path_231" data-name="Path 231" d="M100.973,120.82v5.3c-.243-.111-.473-.229-.7-.355a.007.007,0,0,1-.007-.007,6.524,6.524,0,0,1-.688-.389v-5.3a6.568,6.568,0,0,0,.688.389.007.007,0,0,0,.007.007C100.5,120.59,100.729,120.709,100.973,120.82Z" transform="translate(-99.582 -120.055)" fill="#dc8744"/>
        <path id="Path_232" data-name="Path 232" d="M142.394,138.345v5.3c-.236-.063-.473-.125-.7-.188h-.007c-.236-.07-.459-.139-.688-.209v-5.3c.229.07.452.139.688.209h.007C141.921,138.22,142.157,138.283,142.394,138.345Z" transform="translate(-136.83 -136.134)" fill="#dc8744"/>
        <path id="Path_233" data-name="Path 233" d="M183.814,147.974v5.3c-.236-.028-.466-.07-.7-.1h-.007c-.236-.035-.459-.077-.688-.118v-5.3c.229.042.452.083.688.118h.007C183.348,147.9,183.577,147.946,183.814,147.974Z" transform="translate(-174.078 -144.949)" fill="#dc8744"/>
        <path id="Path_234" data-name="Path 234" d="M225.235,153.24v5.3c-.236-.014-.466-.028-.7-.049h-.007c-.236-.014-.459-.035-.688-.056v-5.3c.229.021.452.042.688.056h.007C224.769,153.212,225,153.226,225.235,153.24Z" transform="translate(-211.326 -149.791)" fill="#dc8744"/>
        <path id="Path_235" data-name="Path 235" d="M266.655,155.138v5.3c-.23.007-.459.007-.7.007h-.007c-.236,0-.459,0-.688-.007v-5.3c.23.007.452.007.688.007h.007C266.2,155.145,266.425,155.145,266.655,155.138Z" transform="translate(-248.574 -151.591)" fill="#dc8744"/>
        <path id="Path_236" data-name="Path 236" d="M308.076,153.137v5.3c-.229.021-.459.042-.7.056h-.007c-.23.021-.452.035-.688.049v-5.3c.236-.014.459-.028.688-.049h.007C307.617,153.179,307.846,153.158,308.076,153.137Z" transform="translate(-285.822 -149.792)" fill="#dc8744"/>
        <path id="Path_237" data-name="Path 237" d="M349.5,147.752v5.3c-.229.042-.459.083-.7.118h-.007c-.229.035-.452.076-.688.1v-5.3c.236-.028.459-.069.688-.1h.007C349.037,147.835,349.266,147.794,349.5,147.752Z" transform="translate(-323.07 -144.949)" fill="#dc8744"/>
        <path id="Path_238" data-name="Path 238" d="M390.917,137.949v5.3c-.23.07-.459.139-.7.209h-.007q-.334.094-.688.188v-5.3q.355-.094.688-.188h.007C390.458,138.088,390.687,138.019,390.917,137.949Z" transform="translate(-360.318 -136.134)" fill="#dc8744"/>
        <path id="Path_239" data-name="Path 239" d="M432.337,119.931v5.313c-.216.132-.445.271-.7.4a.007.007,0,0,0-.007.007c-.215.118-.445.23-.688.348v-5.3c.243-.118.473-.229.688-.355A6.947,6.947,0,0,0,432.337,119.931Z" transform="translate(-397.566 -119.931)" fill="#dc8744"/>
      </g>
    </g>
  </g>
</svg>
