<svg xmlns="http://www.w3.org/2000/svg" width="288.975" height="277.211" viewBox="0 0 288.975 277.211"><g transform="translate(-815.83 -144.145)"><rect width="50.587" height="218.819" rx="24" transform="rotate(45 311.28 1243.64)" fill="#fff" opacity=".15"/><rect width="50.587" height="263.523" rx="24" transform="rotate(45 313.264 1335.047)" fill="#fff" opacity=".15"/><rect width="50.587" height="221.172" rx="24" transform="rotate(45 257.857 1405.036)" fill="#fff" opacity=".15"/><g transform="translate(898 236)" fill="#fff" stroke="#707070"><circle cx="62.352" cy="62.352" r="62.352" stroke="none"/><circle cx="62.352" cy="62.352" r="61.852" fill="none"/></g><path d="M935.641 200.003l11.517-11.517m-94.042 158.572l5.717-5.715m217.283-76.285l5.717-5.715" fill="none" stroke="#fff" stroke-linecap="round"/><g transform="translate(875.513 213.239)" fill="none" stroke="#fff"><circle cx="84.704" cy="84.704" r="84.704" stroke="none"/><circle cx="84.704" cy="84.704" r="84.204"/></g><g fill="none" stroke="#fff"><path stroke="none" d="M897.865 205.004h8.235v8.235h-8.235z"/><path d="M898.365 205.504h7.235v7.235h-7.235z"/></g><g fill="none" stroke="#fff"><path stroke="none" d="M1019.039 394.411h8.235v8.235h-8.235z"/><path d="M1019.539 394.911h7.235v7.235h-7.235z"/></g><g transform="translate(886.101 383.823)" fill="none" stroke="#fff"><circle cx="5.294" cy="5.294" r="5.294" stroke="none"/><circle cx="5.294" cy="5.294" r="4.794"/></g><g transform="translate(1017.862 205.004)" fill="none" stroke="#fff"><circle cx="4.118" cy="4.118" r="4.118" stroke="none"/><circle cx="4.118" cy="4.118" r="3.618"/></g><path fill="none" stroke="red" stroke-linecap="round" stroke-width="6" d="M937.5 275.5l45 45m0-45l-45 45"/><path d="M947.158 200.003l-11.517-11.517m-76.812 158.572l-5.717-5.715m228.717-76.285l-5.717-5.715" fill="none" stroke="#fff" stroke-linecap="round"/></g></svg>