<svg xmlns="http://www.w3.org/2000/svg" width="26.403" height="18" viewBox="0 0 26.403 18"><path d="M21.586 13.161a2.438 2.438 0 0 0-1.72.71 2.389 2.389 0 0 0 0 3.419 2.447 2.447 0 0 0 1.72.71 2.42 2.42 0 0 0 0-4.839zm1.323 2.419a1.333 1.333 0 0 1-1.323 1.344 1.344 1.344 0 1 1 0-2.688m.624-9.134a.522.522 0 0 0-.36-.14h-3.3v5.488h5.452V6.957a.538.538 0 0 0-.177-.4zm.72 4.269h-3.3V6.032h2.01l1.29 1.161zm-14.473 3.79a2.438 2.438 0 0 0-1.72.71 2.389 2.389 0 0 0 0 3.419 2.447 2.447 0 0 0 1.72.71 2.42 2.42 0 0 0 0-4.839zM9.78 15.58a1.333 1.333 0 0 1-1.323 1.344 1.344 1.344 0 1 1 0-2.688m-3.336-.414H3.79v-1.68c-.466-.553-1.075-.219-1.075.25v2.505h2.156c.469.001.803-.608.25-1.074zm1.938-2.392c.462 0 .792-.577.276-1.075H.287c-.553.466-.219 1.075.25 1.075zm-5.43-2.48l6.522.038a.543.543 0 0 0 .543-.532.532.532 0 0 0-.532-.543L1.64 7.876h-.006a.538.538 0 0 0-.005 1.074zm1.1-2.441H9.5c.553-.466.219-1.075-.25-1.075H2.475c-.552.468-.218 1.077.251 1.077zM26.2 5.785l-3.849-3.188a.53.53 0 0 0-.344-.124h-4.523V.628A.628.628 0 0 0 16.856 0H3.343a.628.628 0 0 0-.628.628v4.1c.466.553 1.075.219 1.075-.25v-.966A2.432 2.432 0 0 1 6.222 1.08h10.192v10.842a1.9 1.9 0 0 1-1.9 1.9h-2.759c-.553.466-.219 1.075.25 1.075h6.815c.553-.466.219-1.075-.25-1.075h-1.081V3.55h4.333l3.505 2.9-.038 7.36h-.809c-.553.466-.219 1.075.25 1.075h1.091a.535.535 0 0 0 .538-.532l.043-8.151a.568.568 0 0 0-.202-.417z" fill="#2b2b2b"/></svg>