<svg xmlns="http://www.w3.org/2000/svg" xmlns:xlink="http://www.w3.org/1999/xlink" width="500" height="500" viewBox="0 0 500 500">
  <defs>
    <clipPath id="clip-path">
      <rect id="Rectangle_1" data-name="Rectangle 1" width="500" height="500"/>
    </clipPath>
  </defs>
  <g id="Group_1" data-name="Group 1" transform="translate(-544 6)">
    <g id="no-delivery-ico" transform="translate(544 -6)" clip-path="url(#clip-path)">
      <g id="Group_20" data-name="Group 20" transform="translate(-1298.651 -439.652)">
        <circle id="Ellipse_1" data-name="Ellipse 1" cx="250" cy="250" r="250" transform="translate(1298.651 439.651)" fill="#f6f6f6"/>
      </g>
    </g>
    <path id="store-slash-solid" d="M52.978,167.434V123.918a52.075,52.075,0,0,1-12.209,1.657,53.833,53.833,0,0,1-7.456-.523,50.088,50.088,0,0,1-6.793-1.57v85.81c0,7.718,5.926,13.953,13.255,13.953H220.516l-68.6-55.811Zm-12.209-55.85A39.542,39.542,0,0,0,68.675,99.706L10.461,52.345c-13.307,23.279-1.068,55.17,24.631,58.863a41.721,41.721,0,0,0,5.664.375ZM262.54,199.739,238.59,180.257V123.482a40.767,40.767,0,0,1-6.789,1.57,55.506,55.506,0,0,1-7.539.523,50.094,50.094,0,0,1-12.209-1.657v34.742L151.96,109.778a38.4,38.4,0,0,0,11.079,1.805,40.05,40.05,0,0,0,30.57-14.437,40.16,40.16,0,0,0,30.57,14.437,41.12,41.12,0,0,0,5.668-.4c26.013-3.667,38.37-36.1,24.444-59.474L227.406,6.54A13.124,13.124,0,0,0,216.182,0H48.831A13.129,13.129,0,0,0,37.613,6.54l-4.094,6.88L18.829,1.474A6.4,6.4,0,0,0,9.528,2.7L1.392,13.713a7.229,7.229,0,0,0,1.164,9.793L246.268,221.775a6.405,6.405,0,0,0,9.3-1.23l8.136-11.014A7.229,7.229,0,0,0,262.54,199.739Z" transform="translate(661.452 132.378)" fill="#b5b5b5"/>
  </g>
</svg>
