<svg xmlns="http://www.w3.org/2000/svg" width="22.12" height="25.136" viewBox="0 0 22.12 25.136"><g fill="#a49d97"><path d="M21.55 10.56l-.345.115a10.708 10.708 0 0 1-7.157 13.672c-.343-.248-.283-.314-.09-.821a18.6 18.6 0 0 0 .548-1.908.436.436 0 0 0-.3-.578 1.892 1.892 0 0 1-1.163-1.033.736.736 0 0 1-.068-.421 2.4 2.4 0 0 1 .464-1.311.582.582 0 0 0 .1-.251c.057-.259-.068-.433-.33-.411a1.447 1.447 0 0 1-1.1-.458 2.6 2.6 0 0 0-.88-.49 11.854 11.854 0 0 0-1.445-.313 1.522 1.522 0 0 1-1.147-.838c-.224-.428-.494-.831-.747-1.243-.058-.095-.128-.182-.193-.273l-.085.046.456 1.158a1.633 1.633 0 0 1-.855-1.145 1.7 1.7 0 0 0-.691-1.225.219.219 0 0 1-.083-.122 2.78 2.78 0 0 1-.105-1.774 10.366 10.366 0 0 0 .29-1.016.7.7 0 0 0-.119-.655.438.438 0 0 1-.014-.366.39.39 0 0 0-.116-.526l-.189.123a1.338 1.338 0 0 0 .026-1.206.652.652 0 0 0-.995-.427 3.384 3.384 0 0 0-1.144.869c-.263.305-.541.6-.819.891a1.679 1.679 0 0 1-.24.178l-.046-.054.914-1.1c-.55-.847.259-1.1.619-1.558-.219-.268-.024-.439.2-.526a1.414 1.414 0 0 0 .708-.522.424.424 0 0 1 .171-.121q.134-.065.269-.121v-.063a10.616 10.616 0 0 1 2.405-.986l-.1-.351a11.054 11.054 0 1 0 13.406 7.156z"/><path d="M13.014 17.201h.15c-.17-.15-.321-.294-.466-.421v.085c-.014.223.083.337.316.336zm1.856.644a.376.376 0 0 0 .658 0l4.964-8.977a6.013 6.013 0 1 0-10.584 0zm.329-14.838a3.006 3.006 0 1 1-3.006 3.006 3.01 3.01 0 0 1 3.006-3.007z"/></g></svg>