<svg id="Layer_1" xmlns="http://www.w3.org/2000/svg" viewBox="0 0 345.7 74.8"><style>.st0{fill:#f93664}.st1{fill:#2b2b2b}.st2{fill:#fff}</style><circle class="st0" cx="37.4" cy="37.4" r="37.4"/><path class="st0" d="M97 46.1c-2.1-1.3-3.9-3.1-5.2-5.3-1.3-2.2-1.9-4.6-1.9-7.1 0-4.9 2.5-9.5 6.8-12 2.1-1.2 4.5-1.9 6.9-1.9 2.3 0 4.5.5 6.6 1.5 2.1 1 3.8 2.4 5.2 4.2 1.3 1.6 2 3.6 2 5.7l-8.7.8c-.3-1-.9-1.8-1.7-2.4-.8-.6-1.7-.9-2.7-.9-1.4 0-2.7.5-3.7 1.5-1 .9-1.6 2.1-1.6 3.5 0 .9.3 1.8.8 2.5.5.8 1.2 1.5 2 2s1.7.8 2.6.8c.9 0 1.8-.3 2.5-.8.8-.5 1.4-1.1 1.7-2l8.5.8c0 2-.7 3.9-1.9 5.4-2.7 3.5-6.9 5.6-11.4 5.6-2.3.1-4.7-.6-6.8-1.9zm40.8 1.6V33.3c.1-1.3-.4-2.5-1.3-3.4-1-.9-2.2-1.3-3.5-1.2-2.4 0-4.1 1.3-5 3.8l.2 15.2-9.7-.2-.7-41.3h9.8l.3 17.3c1.1-1.2 2.5-2.2 4-2.8 1.6-.7 3.3-1.1 5-1.1 2.9-.1 5.7 1.2 7.5 3.5 1.9 2.3 2.8 5.4 2.9 9.3l.1 15.4-9.6-.1zm34-23.9c2.4 2.5 3.6 5.9 3.6 10.3 0 .7 0 1.3-.1 1.6l-18.3.2c.4 1.1 1 2 1.7 2.8.7.7 1.6 1.1 2.6 1.2 2.7.2 4.7-.6 6-2.4l7.4 2.1c-.5 1.6-1.4 3.1-2.6 4.4-1.3 1.3-2.8 2.3-4.6 3-1.7.7-3.6 1.1-5.5 1.1-.3 0-.7 0-1-.1-2.4-.2-4.6-1-6.6-2.3-2-1.4-3.7-3.2-4.8-5.4-1.2-2.3-1.8-4.8-1.8-7.3 0-.4 0-.8.1-1.2.1-2.2.8-4.3 2.1-6.1 1.3-1.8 3-3.2 4.9-4.2 2.1-1 4.4-1.5 6.8-1.5 4.4 0 7.7 1.3 10.1 3.8zm-14.7 5.8l8.7.1c-.1-.9-.5-1.7-1.2-2.3-.6-.5-1.5-.9-2.3-.9-2.3-.5-4.5.9-5.2 3.1zm39.2-8.7c1.2.6 2.2 1.5 3.1 2.5l-3.6 8c-.9-1.3-2.4-2.1-4.1-2.1-1.6-.1-3.2.6-4.1 2-.9 1.3-1.4 3.5-1.6 6.5v9.9h-9.6V20.2h9.6v2.4c.9-.8 2-1.5 3.2-1.9 1.1-.5 2.3-.7 3.5-.7 1.3 0 2.5.3 3.6.9zm23 0c1.2.6 2.2 1.5 3.1 2.5l-3.6 8c-.9-1.3-2.4-2.1-4.1-2.1-1.6-.1-3.2.6-4.1 2-.9 1.3-1.4 3.5-1.6 6.5v9.9h-9.6V20.2h9.6v2.4c.9-.8 2-1.5 3.2-1.9 1.1-.5 2.3-.7 3.5-.7 1.3 0 2.5.3 3.6.9z"/><path class="st0" d="M252 19.6l-7.2 26.9c-.9 3.8-2.9 7.3-5.6 10.2-2.3 2.3-5.4 3.6-8.6 3.6-1.5 0-3-.2-4.4-.6-1.5-.4-3-.9-4.4-1.6l2.3-9.6c.9.7 1.9 1.2 2.9 1.4 1 .4 2.1.6 3.2.6 1.5.1 2.8-.7 3.6-2l-11.5-28.1 10.1-.3 5.3 15.2 4-15.3 10.3-.4zm25.5 2.1c3.6 2.9 5.7 7.4 5.8 12 0 2.5-.5 4.9-1.5 7.1-.9 2.1-2.4 3.9-4.2 5.2-1.6 1.2-3.6 1.9-5.7 1.9-1.7 0-3.3-.3-4.9-.9-1.5-.5-2.8-1.3-4-2.3v2.9h-10V7l10.3-.8-.1 16c2.6-1.8 5.7-2.7 8.9-2.5 2 0 3.9.8 5.4 2zm-6.2 16.8c.8-.5 1.5-1.2 2-2.1 1.3-2.1.9-4.8-.9-6.5-1-1-2.3-1.6-3.7-1.6-1.5 0-2.9.6-3.9 1.6-1.8 1.7-2.2 4.4-.9 6.5.5.9 1.2 1.6 2.1 2.1.8.5 1.7.8 2.7.8.9 0 1.8-.3 2.6-.8zm15.1-21c-.9-.5-1.7-1.3-2.3-2.2-.6-.9-.9-1.9-.9-3 0-1.6.7-3.1 1.9-4.1 1.2-1.1 2.9-1.7 4.5-1.6 1.5-.1 2.9.5 4 1.5 1 1.1 1.6 2.5 1.5 4 .1 1.7-.5 3.3-1.6 4.5-1 1.2-2.6 1.8-4.1 1.8-1.1-.1-2.1-.4-3-.9zm-2.7 2.7h10.8v27.3h-9.9l-.9-27.3zm35.2 23.2c-1 1.6-2.5 2.9-4.1 3.7-1.9.9-3.9 1.3-5.9 1.2-3.1 0-5.5-.8-7-2.4-1.5-1.6-2.3-4.2-2.3-7.7 0-1.3.1-2.6.3-3.9l.7-5.9h-4.1l-.4-8.1 5.5-.1.7-6 9.2-.5-.7 6.4 5.8-.1 1 8.4h-7.7l-.5 4.6c-.1.6-.1 1.1-.1 1.3-.1 1.1.2 2.3.8 3.2.4.7 1.2 1.2 2.1 1.2.8 0 1.6-.2 2.3-.6.8-.5 1.6-1.2 2.2-2l2.2 7.3zm23.2-19.6c2.4 2.5 3.6 5.9 3.6 10.3 0 .7 0 1.3-.1 1.6l-18.2.2c.4 1.1 1 2 1.7 2.8.7.7 1.6 1.1 2.6 1.2 2.7.2 4.7-.6 6-2.4l7.4 2.1c-.5 1.6-1.4 3.1-2.6 4.4-1.3 1.3-2.8 2.3-4.6 3-1.7.7-3.6 1.1-5.5 1.1-.3 0-.7 0-1-.1-2.4-.2-4.6-1-6.6-2.3-2-1.4-3.7-3.2-4.8-5.4-1.2-2.3-1.8-4.8-1.8-7.3 0-.4 0-.8.1-1.2.1-2.2.8-4.3 2.1-6.1 1.3-1.8 3-3.2 4.9-4.2 2.1-1 4.4-1.5 6.8-1.5 4.3 0 7.7 1.3 10 3.8zm-14.7 5.8l8.7.1c-.1-.9-.5-1.7-1.2-2.3-.6-.5-1.4-.9-2.3-.9-2.2-.5-4.4.9-5.2 3.1z"/><path class="st1" d="M259.8 63.1c.3.5.5 1 .5 1.6.1 1-.4 2-1.2 2.6-.9.6-1.9.9-2.9.8h-3.9V56.5h3.4c1-.1 2 .2 2.9.7.7.5 1.1 1.3 1.1 2.2 0 .5-.1 1.1-.4 1.5-.2.4-.6.8-1 1 .6.4 1.1.8 1.5 1.2zm-5.1-1.8h1.4c.4 0 .7-.1 1-.4.2-.3.4-.6.3-1 0-.3-.1-.7-.4-.9-.3-.2-.7-.3-1.1-.3h-1.2v2.6zm2.7 4.4c.3-.2.5-.6.5-1 0-.8-.7-1.2-2-1.2h-1.3V66h1.5c.5 0 1-.1 1.3-.3zm13.7.2h-3.8l-.9 2.3h-2.3l5.2-12.1h.1l5.2 12.1H272l-.9-2.3zm-.8-2l-1.1-2.8-1.2 2.8h2.3zm11.4-2.6l.3-.4 3.8-4.3h3l-4.8 5.2 4.8 6.4h-2.9l-3.6-4.9-.6.6v4.4h-2.3V56.5h2.3v4.8zm19.9-4.8v2.2H296v2.5h5v2.2h-5v2.5h5.8v2.2h-8.1V56.5h7.9zm12 11.6l-2.4-3.7h-1.5v3.7h-2.3V56.5h3.5c1.2-.1 2.4.3 3.3 1 .8.7 1.2 1.8 1.2 2.9 0 .7-.1 1.4-.4 2-.3.6-.8 1.1-1.4 1.5l2.7 4.2h-2.7zm-3.9-5.8h1.6c.5 0 1-.2 1.4-.5.3-.3.4-.7.4-1.2 0-.4-.1-.8-.4-1.2-.3-.4-.9-.6-1.4-.6h-1.6v3.5zm20.3-5.8l-4.4 8v3.6h-2.3v-3.6l-4.3-8h2.8l2.7 5.4 2.6-5.4h2.9z"/><path class="st2" d="M53.6 18C38.9 19.2 34 28.6 32.7 32.1c-9.5.8-16.6 9.2-15.7 18.7.8 9 8.4 15.9 17.4 15.8-2.2-1-3.2-3.7-2.2-5.9 0-.1.1-.2.2-.3-2-2.1-2-5.5.1-7.5.4-.4.9-.7 1.4-1 .7-.3 1.4-.5 2.1-.5-.4-2.9 1.7-5.6 4.6-6 1.3-.2 2.6.1 3.7.9.5-.7 1.1-1.2 1.8-1.6 1.7-.8 3.7-.5 5.1.7-1.5-6.7-6.8-11.8-13.5-13.1-.1 0-.3-.1-.4-.1-.1 0-.3 0-.4-.1-.2 0-.3-.1-.5-.1-.8-.1-1.6-.1-2.5-.1 11.3-19.1 31.6-7.6 31.6-7.6s6.2-7.7-11.9-6.3zM20.9 45.9c-.5-3.4 3.8-9.7 6.7-10.2s3.1 1.7 3.1 1.7c-4.4 1.1-8.1 4.2-9.8 8.5z"/></svg>