<svg xmlns="http://www.w3.org/2000/svg" width="238" height="57" viewBox="0 0 238 57"><defs><clipPath id="a"><path transform="translate(78 41)" fill="none" d="M0 0h238v57H0z"/></clipPath></defs><g transform="translate(-78 -41)" clip-path="url(#a)"><g transform="translate(69 34.234)" fill="#fff"><circle cx="25.3" cy="25.3" r="25.3" transform="rotate(-45 43.19 17.89)"/><path d="M76.086 41.641a9.922 9.922 0 0 1-3.486-3.589 9.539 9.539 0 0 1-1.289-4.827 9.359 9.359 0 0 1 4.582-8.12 8.934 8.934 0 0 1 4.652-1.254 10.167 10.167 0 0 1 4.444 1.045 9.589 9.589 0 0 1 3.537 2.823 6.189 6.189 0 0 1 1.359 3.834l-5.854.523a3.122 3.122 0 0 0-1.133-1.621 3 3 0 0 0-1.83-.611 3.551 3.551 0 0 0-2.492 1.028 3.144 3.144 0 0 0-1.1 2.352 3.19 3.19 0 0 0 .523 1.708 4.173 4.173 0 0 0 1.377 1.359 3.329 3.329 0 0 0 1.76.523 3.158 3.158 0 0 0 1.725-.523 2.974 2.974 0 0 0 1.168-1.325l5.784.558a5.935 5.935 0 0 1-1.307 3.642 9.974 9.974 0 0 1-7.684 3.816 8.925 8.925 0 0 1-4.736-1.341zm27.635 1.098v-9.758a3.044 3.044 0 0 0-.872-2.3 3.281 3.281 0 0 0-2.37-.836 3.441 3.441 0 0 0-3.415 2.58l.14 10.28-6.552-.1-.487-27.95h6.621l.175 11.675a7.634 7.634 0 0 1 2.718-1.916 8.357 8.357 0 0 1 3.38-.732 6.245 6.245 0 0 1 5.106 2.335 9.855 9.855 0 0 1 1.935 6.309l.07 10.42zm22.966-16.17a9.69 9.69 0 0 1 2.4 6.936q0 .731-.035 1.115l-12.337.139a5.094 5.094 0 0 0 1.168 1.9 2.686 2.686 0 0 0 1.759.819 4.126 4.126 0 0 0 4.043-1.638l4.983 1.429a6.7 6.7 0 0 1-1.742 2.945 9.092 9.092 0 0 1-3.084 2.038 9.725 9.725 0 0 1-3.711.733 5.352 5.352 0 0 1-.7-.035 8.879 8.879 0 0 1-4.443-1.569 10.064 10.064 0 0 1-3.241-3.659 10.387 10.387 0 0 1-1.2-4.949 6.882 6.882 0 0 1 .034-.8 7.835 7.835 0 0 1 1.411-4.112 8.637 8.637 0 0 1 3.346-2.823 10.318 10.318 0 0 1 4.582-1.01 8.86 8.86 0 0 1 6.767 2.541zm-9.932 3.938l5.889.034a2.359 2.359 0 0 0-.819-1.568 2.747 2.747 0 0 0-1.551-.628 3.173 3.173 0 0 0-3.519 2.162zm26.559-5.905a6.555 6.555 0 0 1 2.091 1.725l-2.4 5.4a3.223 3.223 0 0 0-2.753-1.394 3.177 3.177 0 0 0-2.806 1.342 8.657 8.657 0 0 0-1.063 4.373v6.691h-6.482V24.165h6.482v1.6a7.089 7.089 0 0 1 2.144-1.308 6.531 6.531 0 0 1 2.388-.47 5.211 5.211 0 0 1 2.399.615zm15.573 0a6.555 6.555 0 0 1 2.091 1.725l-2.4 5.4a3.223 3.223 0 0 0-2.753-1.394 3.177 3.177 0 0 0-2.806 1.342 8.648 8.648 0 0 0-1.063 4.373v6.691h-6.482V24.165h6.482v1.6a7.088 7.088 0 0 1 2.143-1.308 6.527 6.527 0 0 1 2.388-.47 5.211 5.211 0 0 1 2.4.615z"/><path d="M180.981 23.749l-4.88 18.226a15.322 15.322 0 0 1-3.779 6.883 8.075 8.075 0 0 1-5.8 2.422 11.724 11.724 0 0 1-2.98-.419 15.416 15.416 0 0 1-2.98-1.115l1.569-6.516a5.865 5.865 0 0 0 1.986.976 7.608 7.608 0 0 0 2.2.418 2.68 2.68 0 0 0 2.4-1.324l-7.771-18.993 6.831-.174 3.549 10.316 2.682-10.385zm17.269 1.446a10.62 10.62 0 0 1 3.92 8.138 11.179 11.179 0 0 1-1.045 4.809 9.062 9.062 0 0 1-2.824 3.538 6.345 6.345 0 0 1-3.833 1.307 9.684 9.684 0 0 1-3.31-.593 8.458 8.458 0 0 1-2.718-1.534v1.952h-6.8v-27.6l6.969-.558-.07 10.8a9.313 9.313 0 0 1 6.029-1.673 6.091 6.091 0 0 1 3.682 1.414zm-4.217 11.326a4.055 4.055 0 0 0 1.36-1.411 3.575 3.575 0 0 0-.594-4.415 3.471 3.471 0 0 0-2.526-1.1 3.662 3.662 0 0 0-2.632 1.1 3.424 3.424 0 0 0-.592 4.39 4.237 4.237 0 0 0 1.412 1.429 3.383 3.383 0 0 0 1.812.541 3.248 3.248 0 0 0 1.76-.537zm10.245-14.222a4.444 4.444 0 0 1-1.568-1.481 3.649 3.649 0 0 1-.609-2.022 3.554 3.554 0 0 1 1.271-2.788 4.471 4.471 0 0 1 3.049-1.115 3.689 3.689 0 0 1 2.7 1.011 3.6 3.6 0 0 1 1.028 2.683 4.309 4.309 0 0 1-1.115 3.05 3.647 3.647 0 0 1-2.788 1.2 3.958 3.958 0 0 1-1.968-.538zm-1.829 1.865h7.283v18.47h-6.725zm23.801 15.648a7.25 7.25 0 0 1-2.805 2.527 9.018 9.018 0 0 1-4.025.819 6.313 6.313 0 0 1-4.739-1.621q-1.568-1.62-1.568-5.21a26.03 26.03 0 0 1 .174-2.649l.488-4.008h-2.753l-.244-5.506 3.695-.07.487-4.077 6.2-.314-.488 4.321 3.9-.07.663 5.68h-5.228l-.348 3.137c-.047.419-.07.721-.07.906a3.981 3.981 0 0 0 .523 2.2 1.593 1.593 0 0 0 1.393.8 3 3 0 0 0 1.534-.383 5.844 5.844 0 0 0 1.464-1.359zm15.717-13.243a9.686 9.686 0 0 1 2.4 6.936q0 .731-.034 1.115l-12.337.139a5.093 5.093 0 0 0 1.168 1.9 2.686 2.686 0 0 0 1.759.819 4.126 4.126 0 0 0 4.043-1.638l4.983 1.429a6.689 6.689 0 0 1-1.742 2.945 9.084 9.084 0 0 1-3.084 2.038 9.718 9.718 0 0 1-3.711.733 5.352 5.352 0 0 1-.7-.035 8.879 8.879 0 0 1-4.443-1.569 10.066 10.066 0 0 1-3.242-3.659 10.4 10.4 0 0 1-1.2-4.949 6.883 6.883 0 0 1 .034-.8 7.842 7.842 0 0 1 1.411-4.112 8.633 8.633 0 0 1 3.346-2.823 10.311 10.311 0 0 1 4.582-1.01 8.854 8.854 0 0 1 6.767 2.541zm-9.932 3.938l5.89.034a2.363 2.363 0 0 0-.82-1.568 2.742 2.742 0 0 0-1.549-.628 3.176 3.176 0 0 0-3.521 2.162zm-45.773 22.692a1.746 1.746 0 0 1 .346 1.072 2.009 2.009 0 0 1-.784 1.754 3.278 3.278 0 0 1-1.956.56h-2.615v-7.848h2.3a3.343 3.343 0 0 1 1.962.506 1.687 1.687 0 0 1 .714 1.467 2.086 2.086 0 0 1-.244 1.029 1.869 1.869 0 0 1-.694.709 2.488 2.488 0 0 1 .971.751zm-3.461-1.253h.939a.845.845 0 0 0 .661-.261.937.937 0 0 0 .234-.646.72.72 0 0 0-.266-.6 1.172 1.172 0 0 0-.737-.208h-.831zm1.872 2.981a.732.732 0 0 0 .336-.656q0-.833-1.324-.832h-.884v1.712h.992a1.588 1.588 0 0 0 .88-.224zm9.23.123h-2.6l-.64 1.535h-1.523l3.54-8.158h.086l3.54 8.158h-1.791zm-.512-1.3l-.758-1.91-.789 1.91zm7.709-1.824l.234-.3 2.56-2.889h2.006l-3.242 3.518 3.253 4.33h-1.962l-2.421-3.348-.384.383v2.965h-1.567v-7.848h1.567v2.794zm13.47-3.189v1.492h-3.807v1.675h3.369v1.493h-3.369v1.7h3.956v1.493h-5.5v-7.848zm8.115 7.848l-1.653-2.5h-1.034v2.5h-1.546v-7.848h2.378a3.314 3.314 0 0 1 2.266.709 2.443 2.443 0 0 1 .805 1.935 3.1 3.1 0 0 1-.3 1.359 2.252 2.252 0 0 1-.934 1l1.824 2.847zm-2.687-3.987h1.1a1.094 1.094 0 0 0 .917-.368 1.265 1.265 0 0 0 .289-.795 1.51 1.51 0 0 0-.246-.816 1.037 1.037 0 0 0-.949-.389H220zm13.786-3.861l-2.944 5.406v2.442h-1.545v-2.442l-2.891-5.406h1.909l1.8 3.625 1.76-3.625z"/></g><path d="M115.753 56.898c-9.935.795-13.235 7.175-14.12 9.529a11.7 11.7 0 0 0 1.148 23.365 3.015 3.015 0 0 1-1.364-4.206 3.585 3.585 0 0 1 1-5.725 3.494 3.494 0 0 1 1.444-.354 3.586 3.586 0 0 1 5.552-3.452 3.061 3.061 0 0 1 1.216-1.054 3.107 3.107 0 0 1 3.451.5 11.631 11.631 0 0 0-9.148-8.889 2.275 2.275 0 0 0-.284-.052c-.1-.014-.193-.033-.287-.044a3.639 3.639 0 0 0-.348-.047 11.463 11.463 0 0 0-1.658-.077c7.667-12.932 21.355-5.165 21.355-5.165s4.258-5.302-7.957-4.329zM93.619 75.77c-.356-2.3 2.586-6.532 4.543-6.921s2.118 1.12 2.118 1.12a9.755 9.755 0 0 0-6.66 5.801z" fill="#2b2b2b"/></g></svg>