<svg xmlns="http://www.w3.org/2000/svg" width="423.535" height="291.815" viewBox="0 0 423.535 291.815">
  <path id="Intersection_8" data-name="Intersection 8" d="M784.181,280.427q1.457-2.177,2.855-4.393v4.393Zm-94.543,0a23.309,23.309,0,0,0,7.858-15.169c1.393-13.661-9.126-25.781-22.978-26.733-.589-.04-1.171-.06-1.742-.06h-.006c-11.307,0-19.125,7.747-24.763,16.808-3.839,8.748,1.249,18.878,8.887,25.153h-5.535c-8-8.9-11.56-22.468-2.013-31.121,6.48-10.632,20.651-16.363,32.718-12.6a26.93,26.93,0,0,1,16.571,37.272,26.546,26.546,0,0,1-4.31,6.447Zm-118.419,0c11.5-8.047,14.095-24.839,4.67-35.607a23.975,23.975,0,0,0-18.148-8.155h0a24.936,24.936,0,0,0-17.061,6.747c-8.966,8.393-8.747,20-5.825,30.822a15.813,15.813,0,0,0,4.809,6.192H535.27a16.843,16.843,0,0,1-3.873-11.24c-3.356-11.99,2.115-26.269,13.093-32.536a26.915,26.915,0,0,1,38.555,13.282c4.174,10.5,1.115,22.605-6.458,30.494Zm-83.726,0c15.961-25.267,22.143-56.377,14.268-86.755-9.3-35.882-34.613-60.01-65.925-70.214,32.013,20.482,49.914,64.026,53.521,99.7a106.409,106.409,0,0,1-10.7,57.267h-4.619a97.461,97.461,0,0,0,10.132-30.155c6.67-41.083-14.323-96.552-49.03-120.481a64.841,64.841,0,0,0-37.772-11.632h-.007a100.026,100.026,0,0,0-28.637,4.633q-2.364.709-4.719,1.458v-6.2c13.008-4.23,26.688-6.945,40.056-5.764,46.87.317,89.978,33.219,101.931,80.214,7.8,30.682,1.625,62.213-14.356,87.924Zm-22.3,0c6.294-9.278,8.061-19.363,2.109-29.951a.826.826,0,0,1-.077-.236,9.854,9.854,0,0,1-.977.468c-.059.025-.1-.061-.059-.1,10.468-10.661,13.326-46.111-1.147-55.132a.974.974,0,0,1-.294-1.376c.148-12.2-3.079-21.88-10.7-31.46-6.88-8.652-16.565-21.57-29.014-17.717a.7.7,0,0,1-.689-.2l-.431.229a.824.824,0,0,1-.985-.126c-6.422-8.109-14.4-13.235-24.646-15.124-7.384-1.36-22.388-3.344-31.242.391a1.07,1.07,0,0,1-.22.63A40.347,40.347,0,0,1,364,134.373V129.8a9.087,9.087,0,0,0,.813-.635,1.205,1.205,0,0,1,.535-.256c6.707-5.523,18.464-3.568,26.833-2.569a55.573,55.573,0,0,1,18.114,4.989c2.087,1.03,14.044,11.844,14.786,11.638a.038.038,0,0,1,.024,0,.059.059,0,0,0,.025,0c9.972-7.14,20.147,5.594,26.181,12.65,8.881,10.388,18.278,23.839,14.6,38.093a.661.661,0,0,1,.124.051c8.76,6.285,10.13,19.76,10.085,29.749-.034,7.636-.622,21.011-7.619,25.957a.773.773,0,0,1,.176.2c5.732,9.536,4.518,21-.584,30.757Zm-46.208,0a128.321,128.321,0,0,1-22.026-28.121c-.1-.178.158-.4.3-.229a249.989,249.989,0,0,0,26.312,28.35Zm-27.573,0a4.363,4.363,0,0,1,.8-1.865.191.191,0,0,1,.257-.069,4.594,4.594,0,0,1,1.447,1.934Zm-13.972,0a167.368,167.368,0,0,1-.239-18.266.169.169,0,0,1,.33-.045,167.936,167.936,0,0,1,3.647,18.311Zm-11-2.4c-.979-1.913-.246-4.278.356-6.222.107-.345,1.136-3.235,1.991-2.622,1.19.853.811,2.723.644,3.965-.243,1.786-.418,3.79-1.871,5.022a.844.844,0,0,1-.542.2A.626.626,0,0,1,366.444,278.03Zm72.12-2.807q-1.3-.714-2.541-1.513c-1.056-.677-.974-.764-1.507-1.877a.361.361,0,0,1,.31-.535c.2,0,.373,0,.521,0a2.521,2.521,0,0,1,1.541.347c.88.454,1.75.915,2.65,1.328,1.512.695,3.312,1.223,4.331,2.6a.715.715,0,0,1-.424,1.046,3.618,3.618,0,0,1-.747.074A9.169,9.169,0,0,1,438.564,275.223Zm235.29-1.113c-.332-.2-.287-.838.147-.885,4.628-.527,9.3-1.483,10.021-7.039a10.171,10.171,0,0,0-9.06-11.221,9.425,9.425,0,0,0-10.239,7.154c-1.41,5.742,3.109,8.819,7.431,11.127a.275.275,0,0,1-.082.5c-6.046,1.478-10.666-5.81-10.039-11.127.806-6.817,7.531-11.244,14.1-9.971,6.261,1.212,10.951,7.308,9.9,13.745-.648,3.971-4.829,8.6-9.12,8.6A5.809,5.809,0,0,1,673.853,274.109Zm-124.071-5.135c-4.437-5.237-3.089-13.175,2.32-17.118,5.156-3.757,12.811-3.036,16.8,2.12,3.056,3.944,3.137,12.557-2.662,14.182-.374.1-.808-.36-.545-.713,2.768-3.745,5.25-7.813,1.686-12.131A10.166,10.166,0,0,0,553,254.3a9.428,9.428,0,0,0-1.75,12.372c3.235,4.947,8.567,3.736,13.2,2.146a.274.274,0,0,1,.305.4,7.089,7.089,0,0,1-6.511,3.479A11.6,11.6,0,0,1,549.782,268.974Zm25.25,2.34c.664-3.689,2.087-6.965,1.869-10.837a20.133,20.133,0,0,0-5.593-12.992c-6.63-6.722-16.969-6.928-24.78-2.3-1.157.684-2.1-1.021-1.037-1.774,8.329-5.922,20.495-5.277,27.847,2.047,6.041,6.021,9.32,19.679,2.372,26.257a.407.407,0,0,1-.278.119A.43.43,0,0,1,575.033,271.314Zm-110.6-.379a56.966,56.966,0,0,1-6.358-2.564.509.509,0,0,1,.256-.94,56.606,56.606,0,0,1,6.9.6,1.51,1.51,0,0,1,1.105,1.45,1.466,1.466,0,0,1-.205.76,1.548,1.548,0,0,1-1.318.752A1.216,1.216,0,0,1,464.434,270.935Zm226.778-1.36c1.118-8.022,1.534-15.421-5.047-21.5-5.991-5.531-13.033-5.467-20.581-4.62-.062.007-.072-.08-.03-.107,14.942-9.769,36.136,11.724,26.718,26.673a.551.551,0,0,1-.47.286A.632.632,0,0,1,691.213,269.575Zm-293.05-1.926c-1.845-.967-2.487-2.965-3.3-4.762-.751-1.656-1.269-3.211-.709-5.011.005-.02.03-.04.049-.031,1.79.7,2.7,2.112,3.552,3.765.924,1.791,2,3.472,1.606,5.548a.762.762,0,0,1-.791.589A.882.882,0,0,1,398.163,267.649Zm276.823-1.475c-.785-1.181-1.846.243-2.894.319a1.19,1.19,0,0,1-1.048-.661c-.8-1.744,1.013-3.306,2.613-3.576a4.033,4.033,0,0,1,4.325,2.353,1.7,1.7,0,0,1-1.523,2.42A1.757,1.757,0,0,1,674.986,266.174Zm-116.711-1.6c-1.822-.6-1.725-3-.833-4.352a4.029,4.029,0,0,1,4.669-1.56,1.69,1.69,0,0,1-.9,3.257c-1.4-.227-1.081,1.518-1.738,2.336a1.157,1.157,0,0,1-.876.367A1.058,1.058,0,0,1,558.275,264.572Zm51.458-.774a8.924,8.924,0,0,1-1.793-.742,4.908,4.908,0,0,1-2.372-1.322,2.839,2.839,0,0,1,0-3.945,4.96,4.96,0,0,1,2.364-1.319,8.977,8.977,0,0,1,1.8-.745,4.222,4.222,0,0,1,5.295,4.037,4.3,4.3,0,0,1-4.172,4.207A3.762,3.762,0,0,1,609.733,263.8Zm-204.315-8.673a9.577,9.577,0,0,1-3.6-4.254.127.127,0,0,1,.154-.157,29.888,29.888,0,0,1,4.982,3.016c1.567.976,3.651,1.52,4.775,3.019.4.531-.159,1.156-.689,1.2-.086.008-.175.012-.262.012C408.851,257.962,406.852,256.222,405.418,255.125Zm25.321.016a57.392,57.392,0,0,1-6.144-2.637c-.355-.158-.075-.619.242-.576a60.985,60.985,0,0,1,6.918,1.168c1.768.465,3.974.628,5.2,2.079a.68.68,0,0,1-.3,1.121,3.775,3.775,0,0,1-1.145.167C433.909,256.464,432.213,255.613,430.738,255.141Zm307.374-2.817a4.106,4.106,0,1,1,4.1,4.107A4.179,4.179,0,0,1,738.112,252.324ZM375.784,254.3a7.707,7.707,0,0,1-.625-.93.7.7,0,0,1-.821-.446A19.719,19.719,0,0,0,364,241.181v-5.906a11.826,11.826,0,0,0,0-2.849v-5.9a12.885,12.885,0,0,1,1.839,5.622c.186,2.125-1.525,5.614-.81,7.213.8,1.791,4.587,3.425,6.13,5.069a18.6,18.6,0,0,1,3.267,4.9c.649-3.281,4.194-5.949,7.865-6.581a13.261,13.261,0,0,1,1.485-.022,8.035,8.035,0,0,0,2.664-.175c.367-.446-.555-1.057-.627-1.753-.146-1.386-.931-2.751-1.083-4.2a13.951,13.951,0,0,1,2.7-9.72,24.048,24.048,0,0,1-13.442-8.986A13.656,13.656,0,0,1,364,225.981v-2.238a12.182,12.182,0,0,0,8.833-8.121.972.972,0,0,1,1.612-.423c4.543,4.922,9.025,8.094,15.641,9.614a1.336,1.336,0,0,1,.582,2.214c-4.308,4.249-5.771,10.791-1.455,15.962a1,1,0,0,1-.694,1.675c-4.893-.142-15.466.4-11.714,8.853a.755.755,0,0,1-.6,1.018A.526.526,0,0,1,375.784,254.3Zm86.539-4.4c-22.856-1.973-46.006-6.486-68.557-10.633-.689-.127-.541-1.327.166-1.235,22.75,2.939,46.177,5.693,68.535,10.8a.551.551,0,0,1-.1,1.074A.277.277,0,0,1,462.323,249.908Zm134.947-5.07c-7.316-1.7-14.095-7.065-18.179-13.833a1.518,1.518,0,0,1-.464.069H578.6c-20.68-.29-32.318-24.285-22.8-41.618a29.19,29.19,0,0,1,4.016-5.586c-12.929,2.415-26.954-4.775-32.053-17.22-5.56-13.577-.035-35.36,16.982-35.59,11.888-3.688,26.3,1.391,32.868,12.2a27.088,27.088,0,0,1-2.811,32.18,28.211,28.211,0,0,1,16.494,1.834c-6.626-9.477-7.823-25.437.3-33.906,19.339-20.166,52.734,4.173,43.367,28.21,14.966-7.007,36.18-2.074,43.177,16.248.052.134.086.273.139.41,21.074-17.746,54.218.512,46,28.7-7.342,25.17-41.51,25.635-52.186,3.636a30.258,30.258,0,0,1-4.98,4.374c-10.52,7.3-26.092,7.816-34.938-1.887a29.028,29.028,0,0,1-34.9,21.784Zm-19.4-30.766c.7,11.66,4.727,22.9,17.646,26.6,14.937,4.278,30.556-5.463,32.648-20.885a24.955,24.955,0,0,0-23.122-28.461c-.661-.046-1.313-.069-1.954-.069C589.474,191.255,580.373,201.494,577.868,214.071Zm102.519-17.8a1.659,1.659,0,0,1-.318.253,31.45,31.45,0,0,1-7.009,22.971c10.318,16.692,35.895,20.446,45.864.439,12.353-24.781-18.838-46.068-38.849-28.788a1.728,1.728,0,0,1-.8.379c.059.238.082.476.134.715,10.909-10.091,36.121-4.256,39.447,10.8a.077.077,0,0,1-.129.075c-5.8-4.583-9.715-10.1-17.293-12.257a23.972,23.972,0,0,0-6.548-.924A18.471,18.471,0,0,0,680.387,196.272ZM559.35,191.531c-8.892,16.415,2.4,31.172,17.945,36.009a25.875,25.875,0,0,1-2.024-7.345,1.57,1.57,0,0,1-1.069-1.369c-1.509-12.96,6.438-24.893,17.728-29.812-10.772-5.22-21.255-2.3-30.29,5.5a.038.038,0,0,1-.059-.048c7.166-11.5,22.592-13.5,33.939-7.42a1.58,1.58,0,0,1,.575.506,28.554,28.554,0,0,1,3.659-.711,28.492,28.492,0,0,0-19.365-7.831A23.339,23.339,0,0,0,559.35,191.531ZM632.691,220.4c-.064.452-.176.879-.257,1.324,11.64,6.294,24.532,8.33,35.263-1.406a28.866,28.866,0,0,0,6.189-34.011c-5.706-11.156-19.049-17.105-31.237-14.193-11.006,2.632-17.133,11.389-20.383,21.456a29.563,29.563,0,0,1,3.49,3.495c.332-4.152,2.344-8,6.685-9.444a9.671,9.671,0,0,1,12.788,7.281c.022.1-.114.209-.194.114-1.834-2.17-4.821-4.679-7.6-5.255-5.9-1.219-9.352,4.243-9.037,9.5a13,13,0,0,0,.228,1.731,29.229,29.229,0,0,1,2.784,5.983,10.308,10.308,0,0,0,5.029,3.616c5.662,1.7,9.737-2.264,10.391-7.608a.059.059,0,0,1,.109-.03c2.89,4.694-1.57,10-6.393,10.7a11.135,11.135,0,0,1-7.979-2.009A29.4,29.4,0,0,1,632.691,220.4Zm-27.34-33.691a30.244,30.244,0,0,1,14.272,4.9,27.416,27.416,0,0,1,2.285-7.34,25.978,25.978,0,0,1-19.838,1.12q.4.486.792,1a1.221,1.221,0,0,1,.142.238c.063,0,.127,0,.19,0Q604.266,186.62,605.351,186.707ZM595.1,145.526c-8.941,7.775-7.017,24.578.617,32.864,7.878,8.548,17.939,6.168,27.569,3.389a26.2,26.2,0,0,1,6.886-7.362c10.455-16.412-5.056-34.163-21.151-34.166A20.887,20.887,0,0,0,595.1,145.526Zm-55.3-10.876c-11.816,5.487-12.875,23.9-6.52,34.539,7.764,13,25.943,15.962,37.038,5.692,10.076-9.324,10.2-25.376.439-35.254a24.074,24.074,0,0,0-17.851-7.134A46.09,46.09,0,0,0,539.795,134.651Zm225.56,99.622c3.014,0,3.019,4.689,0,4.689S762.332,234.273,765.355,234.273Zm-354.58,1.384a.933.933,0,0,1,0-1.781,14.619,14.619,0,0,1,5.124-.632c1.579-.055,3.178-.286,4.563.6a.764.764,0,0,1,0,1.3c-1.331.96-2.987.809-4.563.849-.733.02-1.489.066-2.239.066A8.669,8.669,0,0,1,410.774,235.657Zm36.2-.438c-1.338-.169-1.911-2.193-.346-2.561,2.709-.637,6.92-1.4,9.377.211a.7.7,0,0,1,.139,1.085c-1.445,1.175-3.608,1.512-5.706,1.512A27.442,27.442,0,0,1,446.971,235.219Zm170.465-2.51c2.868-7.147,6.7-12.655,4.643-20.841-2.155-8.561-10.6-17.765-20.2-14.913a.934.934,0,0,1-.716-1.7c18.35-9.55,33.285,27.6,16.529,37.652a.158.158,0,0,1-.08.02C617.505,232.926,617.391,232.826,617.437,232.709Zm-28.548-4.879c-5.62-2.454-7.317-11.319-4.3-16.2.141-.23.563-.152.54.148-.317,4.18-1.247,8.565,1.68,12.181,4.928,6.085,11.272.853,13.817-4.255,2.107-4.23,2.613-10.056-1.036-13.664-5.882-5.818-10.041.367-13.846,4.129a.722.722,0,0,1-1.2-.7c1.571-6,8.339-10.122,14.132-7,6.117,3.293,6.554,11.062,4.129,16.831-1.809,4.306-5.867,9.216-10.772,9.216A7.77,7.77,0,0,1,588.889,227.83Zm159.674-3.784a4.2,4.2,0,0,1-2.868-5.053c.633-2.773,3.753-3.489,6.031-2.453a3.963,3.963,0,0,1,1.961,4.092,4.125,4.125,0,0,1-4.056,3.559A4.031,4.031,0,0,1,748.563,224.046Zm-353.546-.635c17.76-13,44.585-22.74,65.979-27.418a1.05,1.05,0,0,1,.558,2.023,322.893,322.893,0,0,0-38.448,13.8c-9.216,4.012-18.258,9.325-28.057,11.675a.019.019,0,0,1-.012,0A.043.043,0,0,1,395.017,223.411Zm33.929-.94a.273.273,0,0,1,0-.384c1.331-1.359,3.827-1.086,5.575-1.366a47.932,47.932,0,0,1,6.7-.938.486.486,0,0,1,.243.9,14.974,14.974,0,0,1-6.924,2.309,22.659,22.659,0,0,1-2.993.342A3.639,3.639,0,0,1,428.946,222.471Zm234.623-3.525c6.678-9.332,10.426-20.472,3.838-31.174-6.247-10.151-18.638-12.559-29.341-9.35-1.824.545-2.481-2.142-.771-2.8,11.427-4.414,25.839.365,32.338,10.849,6.361,10.26,4.864,26.007-5.136,33.4a.54.54,0,0,1-.324.109C663.7,219.982,663.256,219.38,663.569,218.946Zm35.677-2.337a.548.548,0,0,1,.382-.925c4.3-.083,8.68.355,10.354-4.688a8.31,8.31,0,0,0-5.408-10.381c-9.548-3.358-17.438,9.361-8.817,15.637a.213.213,0,0,1-.216.367,9.58,9.58,0,0,1-4.471-12.843,11.774,11.774,0,0,1,14.575-5.314c5.5,2.15,8.676,8,6.631,13.684-1.188,3.3-5.1,6.373-8.738,6.374A5.625,5.625,0,0,1,699.246,216.608Zm-108.632,1.526a.952.952,0,0,1-.431-1.065,5.615,5.615,0,0,1,.245-.652l.01-.021.015-.068a9.6,9.6,0,0,1,.838-1.667c.438-.987.064-2.272-.055-3.293-.208-1.828,2.454-2.786,3.612-1.5a5.3,5.3,0,0,1,.429,6.385,4.138,4.138,0,0,1-3.327,2.212A2.883,2.883,0,0,1,590.614,218.135Zm-207.595-4.767c11.395-21.493,25.435-41.837,37.162-63.266.518-.947,1.82-.113,1.413.826-9.293,21.528-21.957,45.634-38.245,62.693a.19.19,0,0,1-.14.063A.218.218,0,0,1,383.019,213.368Zm316.138-2.44c-1.745-.815-1.478-3.2-.39-4.45a3.561,3.561,0,0,1,4.928-.375,2.183,2.183,0,0,1,.773,2.6,1.374,1.374,0,0,1-1.577.749c-.464-.082-1.32-1.086-1.772-.918-.389.141-.379,1.181-.419,1.5a1.057,1.057,0,0,1-1.021,1.012A1.234,1.234,0,0,1,699.157,210.928ZM371.236,209.39A156.686,156.686,0,0,1,364,186.422V174.5a204.992,204.992,0,0,0,7.639,34.777.19.19,0,0,1-.194.255A.221.221,0,0,1,371.236,209.39Zm34.169-.8a15.351,15.351,0,0,1,3.364-2.986c1.254-.738,2.4-1.57,3.911-1.44a.638.638,0,0,1,.543.947c-.66,1.362-1.939,1.92-3.21,2.624a15.507,15.507,0,0,1-4.3,1.381.332.332,0,0,1-.077.01A.318.318,0,0,1,405.4,208.594Zm230.707-4.741c-.077-1.238.763-3-.456-3.919-.5-.373-1-.358-1.328-.989a1.43,1.43,0,0,1,.04-1.551,1.69,1.69,0,0,1,1.84-.75c3.406.917,4.1,5.6,1.768,7.98a1.008,1.008,0,0,1-.731.32A1.167,1.167,0,0,1,636.112,203.853Zm-258.067-4.983a3.686,3.686,0,0,1-.868-2.994c.072-1.622.143-3.229.339-4.841.186-1.533,2.533-1.63,2.471,0s-.247,3.226-.431,4.841a3.833,3.833,0,0,1-1.334,2.994.153.153,0,0,1-.1.037A.1.1,0,0,1,378.045,198.869Zm61.361-6.979a.508.508,0,0,1-.119-.92c1.482-.633,3.131-.789,4.658-1.337,1.282-.462,2.69-1.6,4.085-1.315a.4.4,0,0,1,.278.491c-.511,1.421-2.333,1.84-3.657,2.281a13.654,13.654,0,0,1-4.19.889A6,6,0,0,1,439.406,191.89Zm4.123-5a.359.359,0,0,1-.159-.595,8.575,8.575,0,0,1,3.505-1.733c1.241-.414,2.593-1.091,3.9-.674a.551.551,0,0,1,.238.91c-.853,1.064-2.387,1.257-3.636,1.6a11.248,11.248,0,0,1-2.983.571A4.806,4.806,0,0,1,443.529,186.888Zm-24.775-4.079a9.967,9.967,0,0,1,3.046-3.358c.923-.777,1.991-2.118,3.3-2a.509.509,0,0,1,.5.5,2.814,2.814,0,0,1-1.078,1.8,9.5,9.5,0,0,1-3.62,2.864.318.318,0,0,1-.153.02,5.545,5.545,0,0,1-1.594.7.372.372,0,0,1-.093.011A.366.366,0,0,1,418.754,182.809Zm-45.082-2.787a10.216,10.216,0,0,1-.974-4.568c-.127-1.728-.258-3.1.714-4.568a.744.744,0,0,1,1.266,0c1.058,1.417.995,2.821.977,4.568a10.116,10.116,0,0,1-.715,4.568.658.658,0,0,1-.61.358A.759.759,0,0,1,373.672,180.022Zm242.615-1.039c-4.648-2.1-5.4-8.191-3.495-12.417,1.7-3.772,6.414-7.749,10.8-6.134,4.69,1.723,4.026,7.581,2.258,11.193-.562,1.148-2.156.3-1.946-.821.448-2.4,2.142-6.925-1.443-8.074-2.706-.868-5.833,2.053-7.06,4.123-1.4,2.367-1.876,5.7-.376,8.157,2.186,3.587,5.611,2.488,8.145.124a.058.058,0,0,1,.1.028c.57,2.868-2.079,4.292-4.615,4.292A5.854,5.854,0,0,1,616.287,178.983Zm1.155-8.429a3.482,3.482,0,0,1,3.468-3.055,1.37,1.37,0,0,1,1.307,1c.238,1.538-1.44,1.477-1.909,2.489-.32.688.052,1.584.075,2.308a.479.479,0,0,1-.466.466c-.077.007-.154.011-.228.011C618.07,173.768,617.255,172.061,617.441,170.554Zm-70.708-4.675c-.117-.375.334-.818.694-.568,3.817,2.668,7.951,5.036,12.165,1.352a10.171,10.171,0,0,0,.625-14.411,9.42,9.42,0,0,0-12.408-1.409c-4.854,3.373-3.5,8.67-1.782,13.262a.274.274,0,0,1-.39.318c-5.51-2.892-4.159-11.412-.173-14.986,5.111-4.584,13.08-3.452,17.167,1.85,3.9,5.053,3.386,12.729-1.659,16.861a11.337,11.337,0,0,1-6.934,2.25C550.82,170.4,547.722,169.077,546.733,165.879Zm-151.917,3.875c-.649-1.21-.012-2.653.5-3.809.667-1.507,1.225-3.455,2.558-4.5a1.086,1.086,0,0,1,1.827.756c.047,1.664-.982,3.2-1.69,4.649-.581,1.181-1.294,2.807-2.72,3.1a.52.52,0,0,1-.1.01A.417.417,0,0,1,394.816,169.754Zm392.22-6.735v6.249A32.518,32.518,0,0,1,787.036,163.019Zm-156.389,3.213c-.746-9.11-5.108-18.414-14.918-20.569-8.806-1.937-13.561,2.793-21.257,5.041-.048.014-.1-.044-.068-.086,11.821-17.073,39.973-3.491,38.218,15.615a.99.99,0,0,1-1,.953A.971.971,0,0,1,630.646,166.233Zm-77.82-5.557c.191-1.406-1.544-1.039-2.382-1.673a1.2,1.2,0,0,1-.349-1.193c.55-1.838,2.945-1.808,4.325-.952a4.039,4.039,0,0,1,1.688,4.628,1.728,1.728,0,0,1-1.631,1.225A1.687,1.687,0,0,1,552.826,160.676Zm22.489,1c-2.253-9.988-5.676-18.141-16.112-22.02a23.626,23.626,0,0,0-14.878-.706c-6.558,2.015-8.534,5.785-11.642,10.966a.176.176,0,0,1-.325-.086c.048-11.966,15.658-16.585,25.323-14.178,11,2.74,20.262,14.494,18.494,26.025a.388.388,0,0,1-.411.32A.442.442,0,0,1,575.315,161.672Zm182.449-3.2a4.381,4.381,0,0,1-3.153-3.154c-.94-2.594,1.023-4.942,3.4-5.528h-.037l.188-.042c.069-.014.144-.005.216-.017a4.482,4.482,0,0,1,.892-.067,4.768,4.768,0,0,1,.764.082c.044.01.092,0,.136.014l.119.03h-.044a3.961,3.961,0,0,1,2.774,1.934,4.6,4.6,0,0,1,.344,3.362,2.985,2.985,0,0,1-.1.355,3.767,3.767,0,0,1-.166.438,4.589,4.589,0,0,1-4.328,2.682A5.6,5.6,0,0,1,757.764,158.469ZM663.77,144.79c-.035-.024-.049-.059-.079-.085-2.665,2.129-7.32,1.578-10.034-.907-2.046-1.869-3.654-5.069-2.813-7.828a3.89,3.89,0,0,1,.178-.425c-16.39-18.624-5.456-46.323,8.3-62.323,16.866-19.615,43.6-16.04,63.219-.339,20.088,16.074,18.226,45.807,3.455,64.074a45,45,0,0,1-35.077,16.812A45.848,45.848,0,0,1,663.77,144.79ZM677.547,142a24.293,24.293,0,0,0,13.9,9.344,41.774,41.774,0,0,0,8.289-.917,32.059,32.059,0,0,1-21.469-10.76.286.286,0,0,1,.39-.419c4.605,3.565,8.713,6.782,14.354,8.375a70.274,70.274,0,0,0,10.827,1.68,41.148,41.148,0,0,0,17.8-11.607,52.97,52.97,0,0,0,10.8-18.409c-6.68,6.807-15.6,12.774-24.869,14.032-.075.011-.114-.113-.045-.145,10.373-4.794,18.963-9.306,26.184-18.331,2.426-10.341,1.316-21.19-4.7-30.317-8.173,17.9-25.5,30.438-44.134,35.439-.213.057-.322-.275-.109-.335,19.869-5.6,33.589-18.3,43.941-35.539a38.61,38.61,0,0,0-4.816-5.737c-11.789,8.942-22.486,19.179-34.21,28.117-.037.027-.075-.03-.049-.06,8.566-11.392,21.012-21.267,32.6-29.6-.555-.487-1.105-.973-1.7-1.44-.8-.624-1.639-1.2-2.466-1.779a.773.773,0,0,1-.164.045C695.8,74.844,684.071,99.757,674.53,116.17a.138.138,0,0,1-.253-.1c3.589-18.57,22.675-40.508,41.839-43.779a54.162,54.162,0,0,0-14.925-6.666c-.843.548-1.681,1.044-2.519,1.549a26.525,26.525,0,0,1,5.132,1.306.058.058,0,0,1-.013.113c-2.39.038-4.766-.091-7.142-.179-1.192.732-2.372,1.477-3.507,2.292a65.782,65.782,0,0,1,9.868-.286.1.1,0,0,1,.005.194c-3.835.59-7.744.94-11.608,1.438a24.824,24.824,0,0,0-2.179,2.026,47.72,47.72,0,0,0-8.276,12.98.058.058,0,0,1-.107-.04,38.429,38.429,0,0,1,8.032-14.614,55.085,55.085,0,0,0-8.782,1.979c-7.8,10.552-11.256,22.53-13.856,37.213-.027.158-.246.114-.266-.032-1.816-12.326,2.47-25.045,9.675-35.389a29.1,29.1,0,0,0-4.611,2.773c-6.581,4.878-9.562,11.506-12.617,18.37a41.245,41.245,0,0,0,.342,12.542c.023.131-.2.166-.225.034a36.146,36.146,0,0,1-.865-10.9c-.958,2.135-1.948,4.28-3.086,6.393a.409.409,0,0,1-.749-.3,45.105,45.105,0,0,1,5.292-14.143,45.085,45.085,0,0,1,2.6-6.75,52.643,52.643,0,0,0-9.648,22.325,16.482,16.482,0,0,1,.223,3.427.326.326,0,0,1-.6.181c-.049-.072-.079-.161-.126-.236a70.745,70.745,0,0,0-.479,13.36c.982.832,2,1.622,3,2.5a.037.037,0,0,1-.034.064,9.918,9.918,0,0,1-2.9-1.413c.095,1.335.23,2.668.394,4.008a15.6,15.6,0,0,0,1.782.612c.082.021.077.154-.012.154a10.012,10.012,0,0,1-1.7-.2c.092.688.154,1.382.26,2.068.035.215-.278.322-.335.1q-.275-1.133-.508-2.291a9.18,9.18,0,0,1-2.59-1.074,13.243,13.243,0,0,1-1.123-.8,29.541,29.541,0,0,0,4.211,7.6,14.694,14.694,0,0,1,5.364-4.2,8.478,8.478,0,0,0,1.52-3.891,20.751,20.751,0,0,0-.1-3.376,1.174,1.174,0,0,1-.129-.1c-2.654-3-4.963-6.8-4.927-10.872,0-.106.154-.175.213-.062a65.79,65.79,0,0,0,5.069,8.828c.037-.116.065-.238.112-.351.035-.08.1-.1.156-.154.415-1.977,2.452-3.646,4.554-2.853.03.013.037.04.067.055a1.626,1.626,0,0,1,1.431.462.656.656,0,0,1,.039.88,2.012,2.012,0,0,1-1.2.623,14.058,14.058,0,0,1,.536,1.678c.221.851.548,1.962-.023,2.714a.141.141,0,0,1-.193,0c-.667-.533-.753-1.578-1.036-2.348a12.564,12.564,0,0,0-.815-1.679c-.543.205-1.039.448-1.547.671a3.724,3.724,0,0,0-.275.64c.927,2.177.394,5.439-.4,7.411a6.891,6.891,0,0,1-1.208,1.942.548.548,0,0,1-.205.456,43.122,43.122,0,0,1-3.835,2.693c-1.445,1.035-2.052,1.729-2.164,3.619a5.43,5.43,0,0,0,1.425,4.336,7.5,7.5,0,0,0,4.18,2.553.515.515,0,0,1,.652-.459c3.649,1.155,3.639-2.954,2.236-5.1a5.824,5.824,0,0,0-2.548-2.187c-.981-.433-2.087-.311-3.017-.85a.059.059,0,0,1-.022-.08c1.031-1.381,3.41-.99,4.806-.414A6.515,6.515,0,0,1,664.1,139.6a5.343,5.343,0,0,1-.188,3.128.83.83,0,0,1,.218-.092c.05-.045.112-.075.162-.125.786-1.5.064-4.374.235-5.746a5.715,5.715,0,0,1,1.84-3.583,7.492,7.492,0,0,1,7.089-1.656,4.076,4.076,0,0,0,1.229-1,2.729,2.729,0,0,0,.406-1.1,8.675,8.675,0,0,0-1.1-.212c-1.1-.086-2.223-.131-3.324-.17a.078.078,0,0,1-.042-.144,5.321,5.321,0,0,1,3.542-1.032c.367.02.776.042,1.167.1-.1-.313-.2-.633-.3-.925A19.6,19.6,0,0,0,673.249,123a8.594,8.594,0,0,0-.818-1.1,8.855,8.855,0,0,1-1.167,1.885,5.941,5.941,0,0,1-2.558,2.268c-.073.029-.112-.056-.09-.112a21.452,21.452,0,0,1,1.874-3,21.448,21.448,0,0,1,1.091-1.862,6.486,6.486,0,0,0-1.76-1.03c-.832-.322-1.111-.345-1.55-1.138a.454.454,0,0,1,.131-.615c1.6-1.086,3.335.87,4.479,2a16.4,16.4,0,0,1,3.743,6.266c.049.145.1.293.151.445,23.251.141,44.035-1.255,55-24.557.21-.449.951-.159.824.327-5.973,22.822-35.944,27.539-55.792,24.342.5,1.539.9,3.45-.1,4.764,12.87,9.211,24.88,9.225,39.239,4.441.4-.133.635.442.312.673-11.751,8.407-29.262,4.947-39.868-4.783a2.133,2.133,0,0,1-1.991.643c-.013.011-.017.026-.031.036-1.53.917-3.072.707-4.71,1.327-3.126,1.18-2.353,3.67-2.814,6.377a4.108,4.108,0,0,1-1.464,2.6,45.234,45.234,0,0,0,12.766,6.257,22.312,22.312,0,0,1-8.059-10.931c-.042-.144.168-.253.243-.109a26.851,26.851,0,0,0,7.727,9.85,17.92,17.92,0,0,0,3.8,2.15,43.69,43.69,0,0,0,4.853.732,26.074,26.074,0,0,1-9.488-8.955.18.18,0,0,1,.156-.284A.214.214,0,0,1,677.547,142Zm-30.883-17.014a19.364,19.364,0,0,0,2.2,2.031,13.374,13.374,0,0,0,2.06,1.161c-.28-1.48-.51-2.979-.681-4.5a18.131,18.131,0,0,1-4.807-6.99A31.962,31.962,0,0,0,646.664,124.981Zm-1.276-9.607a19.621,19.621,0,0,0,3.024,5.223,17.617,17.617,0,0,0,1.7,1.775,64.833,64.833,0,0,1,.373-14.876c-1.322-4.109-.8-9.614.451-13.373,0-.05,0-.1.01-.152C647.68,100.8,645.471,108.171,645.387,115.375Zm17.118-39.1a84.232,84.232,0,0,0-8.07,11.271c-.436,1.113-.992,2.21-1.346,3.315-.362,1.127-.627,2.281-.934,3.415a48.233,48.233,0,0,0-.625,7.625c2.374-10.073,7.27-19.34,14.82-25.643a74.642,74.642,0,0,1,6.9-8.5A34.87,34.87,0,0,0,662.505,76.272ZM678.744,70.7a45.03,45.03,0,0,0-14.432,10.374,45.585,45.585,0,0,0-3.7,7.476A39.233,39.233,0,0,1,676.29,75.3a63.86,63.86,0,0,1,4.075-5.041C679.825,70.4,679.282,70.544,678.744,70.7Zm-2.278-4.381a92.438,92.438,0,0,0-7.216,7.773,35.523,35.523,0,0,1,4.616-2.6c.027-.027.032-.065.071-.085a45.628,45.628,0,0,1,8.176-3.042,58.642,58.642,0,0,1,4.55-4.295A35.735,35.735,0,0,0,676.466,66.318ZM689.683,68.5a47.152,47.152,0,0,0-5.377.83c-1.229,1.343-2.392,2.7-3.462,4.084a52.135,52.135,0,0,1,9.221-2.332,33.07,33.07,0,0,1,3-2.723C691.939,68.36,690.813,68.4,689.683,68.5Zm-3.612-1.016a41.076,41.076,0,0,1,9.058-.645,23.284,23.284,0,0,1,3.287-1.877,43.835,43.835,0,0,0-8.624-.982C688.466,65.126,687.244,66.3,686.071,67.479ZM382.71,147.049c.615-2.165.944-4.587,2.193-6.5a1.3,1.3,0,0,1,1.116-.643,1.124,1.124,0,0,1,.914.379,1.389,1.389,0,0,1,.2,1.569c-.9,2.056-2.764,3.652-4.214,5.319a.106.106,0,0,1-.083.04A.133.133,0,0,1,382.71,147.049Zm119.9-30.561c3.537,0,3.545,5.5,0,5.5S499.061,116.488,502.605,116.488Zm268.2,3.794c-3.47-.013-3.475-5.381,0-5.395a8.6,8.6,0,0,1,2.59.491,2.307,2.307,0,0,1,0,4.41,8.588,8.588,0,0,1-2.564.494ZM614,111.209a4.282,4.282,0,1,1,4.28,4.282A4.357,4.357,0,0,1,614,111.209ZM563.184,91.96a45.2,45.2,0,0,1-29.1-55.573c.02-.052.045-.055.065-.107-2.918-1.741-4.033-6.306-2.672-9.706,1.054-2.589,3.475-5.21,6.349-5.386a3.573,3.573,0,0,1,.478.02c6.708-12.566,19.418-17.726,32.759-18.44a38.029,38.029,0,0,1,5.976-13.655h3.873a42.054,42.054,0,0,0-5.127,7.329A18.848,18.848,0,0,0,576,2.482a.382.382,0,0,0,.045.171,15.925,15.925,0,0,0,.619,2.175c.3-.707.613-1.417.934-2.1a65.912,65.912,0,0,1,6.378-10.857,15.7,15.7,0,0,1,.78-2.756h3.324Q586.921-9.6,585.833-8.24a17.561,17.561,0,0,1-1.416,3.129.322.322,0,0,1-.612-.1c-.01-.1,0-.2-.005-.274A69.714,69.714,0,0,0,578.725,2.8c-.553,1.061-1.1,2.173-1.6,3.276.213.575.454,1.146.694,1.718s.476,1.119.689,1.694a.789.789,0,0,0,.075.216c.027.023-.018.052-.045.03a1.007,1.007,0,0,1-.229-.248l-.024,0a8.3,8.3,0,0,1-1.2-1.584c-.154-.258-.307-.517-.438-.774-.14.315-.278.63-.439.972-.2.446-.369.915-.565,1.386-.2.446-.372.893-.545,1.362.114.112.2.25.318.362a9.536,9.536,0,0,0,.986,1.012c.057.068-.005.176-.085.134a9.429,9.429,0,0,1-1.4-.962c-.157.391-.308.808-.464,1.2a6.573,6.573,0,0,0-.288.756.173.173,0,0,1-.335-.086c.049-.231.124-.439.174-.67.122-.464.243-.928.392-1.391.014-.077.034-.129.049-.206a8.072,8.072,0,0,1-1.252-1.382c-.149-.208-.3-.414-.422-.625l-.091-.141a13.437,13.437,0,0,1-.64-1.25c-.062.558-.124,1.114-.161,1.667-.007.151-.013.325-.02.476-.04.528-.055,1.054-.072,1.58,0,.449,0,.923.034,1.394.015.572.055,1.143.121,1.733.042.369.113.761.154,1.13a4.412,4.412,0,0,0,.085.541l.02.171a14.692,14.692,0,0,1,6.7-1.183c.092-.062.188-.1.281-.157a8.156,8.156,0,0,0,2.4-1.944,6.209,6.209,0,0,0,.5-.633c.146-.24.3-.458.441-.724.307-.583.56-1.21.868-1.821a3.894,3.894,0,0,1,.2-.471.979.979,0,0,1-.094-.164c-.137-.534-.248-1.1-.335-1.634a20.244,20.244,0,0,1-.349-4.4A12.687,12.687,0,0,1,584.241-2.7c.061-.107.238-.1.228.024.005,2.047-.067,4.05-.013,6.066a32.827,32.827,0,0,0,.342,4.129c.092-.085.179-.194.268-.281a.783.783,0,0,1,.221-.049c1.3-1.544,3.857-2.058,5.344-.382a.093.093,0,0,1,.032.072,1.624,1.624,0,0,1,1.046,1.078.628.628,0,0,1-.384.794,2,2,0,0,1-1.345,0,.093.093,0,0,1-.018.076c-.062.556-.171,1.119-.285,1.654-.031.154-.067.308-.119.489a2.712,2.712,0,0,1-1.138,1.85c-.023.027-.023.027-.047.03a.108.108,0,0,1-.158-.082,3.458,3.458,0,0,1,.108-2.108,3.074,3.074,0,0,1,.075-.456,13.717,13.717,0,0,0,.075-1.756c-.256-.048-.483-.1-.742-.167a.2.2,0,0,0-.126-.01l-.831-.057a3.915,3.915,0,0,0-.547.437,6.068,6.068,0,0,1-.35,1.537,10.933,10.933,0,0,1-.914,1.85c-.256.379-.513.759-.8,1.113a12.35,12.35,0,0,1-1.762,1.848l-.2.173a6.452,6.452,0,0,1-1.787.977.482.482,0,0,1-.387.318,42.46,42.46,0,0,1-4.649.578c-1.745.223-2.633.548-3.595,2.18a5.38,5.38,0,0,0-.791,4.481,4.1,4.1,0,0,0,.209.726,6.711,6.711,0,0,0,.736,1.661,7.464,7.464,0,0,0,1.556,1.845.519.519,0,0,1,.787-.114c2.4,2.451,4.2-.176,4.37-2.591a3.184,3.184,0,0,0,0-.848,5.663,5.663,0,0,0-.488-1.893,4.5,4.5,0,0,0-.739-1.239c-.671-.846-1.69-1.256-2.268-2.163a.147.147,0,0,1,.015-.1c1.564-.726,3.475.729,4.429,1.895a5.285,5.285,0,0,1,.788,1.233,6.154,6.154,0,0,1,.724,2.861,6.063,6.063,0,0,1-.191,1.619,5.143,5.143,0,0,1-1.615,2.681c.076.015.151.007.228.022l.2-.022c1.2-.811,1.9-3.036,2.575-4.36a3.619,3.619,0,0,1,.33-.61,5.709,5.709,0,0,1,3.307-2.3,7.554,7.554,0,0,1,7.044,1.848,3.658,3.658,0,0,0,1.537-.3,2.488,2.488,0,0,0,.885-.773c-.3-.241-.581-.509-.878-.7-.027-.023-.079-.041-.107-.062-.887-.573-1.822-1.116-2.732-1.661-.076-.018-.064-.12.035-.13a5.3,5.3,0,0,1,3.6.739,8.619,8.619,0,0,1,.969.64c.061-.332.126-.64.193-.944.068-.484.139-.965.181-1.471a6.644,6.644,0,0,0,.1-.685,17.39,17.39,0,0,0,.04-2.274,1.867,1.867,0,0,0-.065-.366c-.04-.345-.1-.665-.161-.982a4.3,4.3,0,0,1-.763.536c-.374.218-.776.414-1.133.578a7.771,7.771,0,0,1-1.358.555,4.487,4.487,0,0,1-1.968.247c-.075.008-.084-.091-.042-.146a6.319,6.319,0,0,1,.9-.6c.7-.427,1.441-.736,2.165-1.167.022-.028.072-.032.092-.06.585-.342,1.135-.778,1.75-1.071l-.287-.568a6.589,6.589,0,0,0-.781-1.158c-.6-.681-.818-.831-.842-1.726a.4.4,0,0,1,.047-.23.429.429,0,0,1,.345-.265,1.979,1.979,0,0,1,1.886,1.009,10.911,10.911,0,0,1,1.148,2.866c.042.144.085.315.126.459a11.1,11.1,0,0,1,.412,2.524,17.549,17.549,0,0,1-.005,2.82c-.024.228-.052.431-.079.632a7.5,7.5,0,0,1-.1.86,2.943,2.943,0,0,1-.072.459c1.2.637,2.365,1.28,3.555,1.868,7.322,3.861,14.488,7.216,21.61,9.079,11.491,3.015,22.945,2.165,34.925-6.8a.44.44,0,0,1,.575.657c-9.13,9.922-22.386,10.951-35.075,7.722-1.591-.394-3.164-.863-4.721-1.386-1.4-.466-2.8-.979-4.17-1.575-.78-.285-1.567-.62-2.333-.982-1.678-.734-3.344-1.567-4.937-2.41a74.179,74.179,0,0,1-7.564-4.682q-.975-.678-1.877-1.359a7.507,7.507,0,0,1-.191.945,5.392,5.392,0,0,1-1.368,2.676,2.6,2.6,0,0,1-.763.535,43.677,43.677,0,0,0,3.875,6.448,8.069,8.069,0,0,0,.616.828,35.13,35.13,0,0,0,15.753,11.767,5.982,5.982,0,0,0,.808.308c.709.292,1.433.535,2.156.754a3.2,3.2,0,0,0,.62.178,17.778,17.778,0,0,0,1.96.575c1.212.338,2.442.623,3.721.9,1,.211,2.015.394,3.059.576a.37.37,0,0,1-.042.729,21.036,21.036,0,0,1-3.071.2,22.258,22.258,0,0,1-3.647-.26c-9.278-1.3-17.762-7.695-22.892-15.973-.15-.23-.3-.438-.426-.674a36.481,36.481,0,0,1-2.922-6.207,2.192,2.192,0,0,1-2.063-.365l-.049.005a10.558,10.558,0,0,1-3.632-.787c-1.076-.027-2.149-.032-3.242-.007-1.574.653-2.142,2.465-3.381,4.077a4.243,4.243,0,0,1-2.511,1.609,44.361,44.361,0,0,0,4.2,6.736c.91,1.2,1.861,2.333,2.833,3.422.429.476.875.9,1.3,1.349a9.655,9.655,0,0,1-.506-1.166,20.963,20.963,0,0,1-1.011-2.981,20.733,20.733,0,0,1-.479-9.28c.032-.151.283-.156.275.02a29.553,29.553,0,0,0,1.128,9.506,21.048,21.048,0,0,0,1.066,2.8,1.077,1.077,0,0,0,.127.235,17.1,17.1,0,0,0,2.238,3.465,45.747,45.747,0,0,0,3.924,2.923,24.264,24.264,0,0,1-2.69-5.46q-.49-1.365-.835-2.75a22.427,22.427,0,0,1-.647-4.169c-.027-.248.32-.26.372-.017a32.773,32.773,0,0,0,1.16,4.511,20.561,20.561,0,0,0,1.14,2.79,23.5,23.5,0,0,0,1.956,3.4,27.638,27.638,0,0,0,3.631,4.079,43.671,43.671,0,0,0,7.759,3.091,30.371,30.371,0,0,1-9.35-9.2,28.24,28.24,0,0,1-1.718-2.825,28.513,28.513,0,0,1-2.85-7.563.3.3,0,0,1,.283-.382.3.3,0,0,1,.268.194,72.007,72.007,0,0,0,4.345,8.618,24.327,24.327,0,0,0,2.079,2.934,20.95,20.95,0,0,0,2.313,2.584,73.672,73.672,0,0,0,8.777,6.566c.995.186,2.006.319,3.014.407.531.065,1.059.1,1.612.141a43.459,43.459,0,0,0,5.111-.03c1.187-.087,2.344-.219,3.523-.4a39.532,39.532,0,0,0,7.9-2.018,52.8,52.8,0,0,0,18.164-11.194c-8.165,2.574-17.591,3.717-25.794,1.553a24.737,24.737,0,0,1-2.739-.839c-.077-.014-.042-.143.035-.129.879.052,1.757.1,2.634.127,10.282.481,19.3.181,29.079-4.047,6.977-7.978,11.1-18.078,10.063-28.967C650.91,18.545,633.737,22.215,617.4,20.5a74.254,74.254,0,0,1-8.923-1.483c-.206-.052-.144-.384.062-.332a71.519,71.519,0,0,0,8.484,1.334c16.816,1.562,32.217-3.2,47-12.094A38.91,38.91,0,0,0,662.446.59c-14.6,2.354-28.838,6.39-43.386,8.763-.049.005-.057-.044-.009-.074C631.962,3.248,647.576.355,661.7-1.548c-.252-.694-.508-1.388-.81-2.077-.429-.925-.9-1.821-1.356-2.718-.052-.02-.1-.013-.156-.058-18.953-8.756-39.67,5.449-55.5,15.479-.93.606-1.837,1.181-2.746,1.733-.141.092-.283-.067-.174-.205.57-.688,1.165-1.379,1.81-2.076,12.631-13.586,38.086-22.738,55.658-16.944q-.712-1.258-1.483-2.473h3.909a66.757,66.757,0,0,1,2.965,6.029c10.208,23.6-5.374,49-26.983,58.192a45.677,45.677,0,0,1-12.471,3.335,69.125,69.125,0,0,1-2.4,9.656c-6.168,18.773-24.4,28.228-42.612,28.228A51.132,51.132,0,0,1,563.184,91.96ZM544.5,48.407c-1.74,5.565-3.321,10.535-2.836,16.369a69.806,69.806,0,0,0,2.214,10.731,41.007,41.007,0,0,0,17.1,12.633,53.053,53.053,0,0,0,21,3.686c-8.7-3.88-17.416-10.154-21.816-18.391-.057-.068.058-.156.112-.112,8.123,8.063,15.344,14.533,26.327,18.129,10.527-1.32,20.307-6.173,26.742-14.99-19.62-1.418-37.427-13.273-48.612-28.976-.146-.184.13-.414.274-.23,12.19,16.659,28.865,25.1,48.638,28.773a38.282,38.282,0,0,0,3.676-6.532c-12.5-7.916-25.8-14.368-38.267-22.239-.052-.017-.01-.072.018-.052,13.68,4.04,27.284,12.256,39.135,20.2.247-.677.518-1.381.734-2.105.317-.959.555-1.934.815-2.936-.03-.048-.082-.067-.086-.117a28.4,28.4,0,0,0-3.052-5.344,45.084,45.084,0,0,1-32.953-17.15c-6.643-1.394-13.256-2.291-19.007-3.286-.154-.032-.151-.233.02-.278a50.838,50.838,0,0,1,16.62.288,47.6,47.6,0,0,1-3.083-5.416.231.231,0,0,0-.038-.122c-3.029.568-6.465-1.562-8-4.532-1.348.2-2.743.436-4.136.694-.147.017-.193-.178-.055-.268a34.655,34.655,0,0,1,3.641-1.76c-.788-2.557-.644-5.917,1.3-7.886.112-.112.253-.178.365-.29-.04-.144-.055-.268-.1-.415a45.307,45.307,0,0,0-6.147,2.993c-.114.089-.213-.124-.119-.185a34.582,34.582,0,0,1,6.161-3.294c-.113-.56-.225-1.1-.312-1.661-1.009-.086-2-.2-3.006-.332-.456-.049-.407-.729.031-.8.932-.156,1.865-.285,2.779-.365a12.734,12.734,0,0,1-.106-1.386c-1.534.124-3.082.325-4.623.6a16.224,16.224,0,0,1-3.133,1.4.314.314,0,0,1-.38-.481,1.449,1.449,0,0,1,.174-.22,71.441,71.441,0,0,0-12.691,4.235c-.439,1.2-.821,2.437-1.279,3.687a.046.046,0,0,1-.075-.014,9.148,9.148,0,0,1,.31-3.2q-1.814.84-3.619,1.755c0,.625-.007,1.25.04,1.893.01.074-.109.139-.144.041a12.506,12.506,0,0,1-.411-1.649c-.612.318-1.227.613-1.837.958-.188.094-.391-.157-.205-.278q.971-.67,1.95-1.27a10.314,10.314,0,0,1,.107-2.807,12.417,12.417,0,0,1,.372-1.339,29.268,29.268,0,0,0-5.664,6.607,14.417,14.417,0,0,1,5.818,3.559,8.438,8.438,0,0,0,4.173.074,20.918,20.918,0,0,0,3.124-1.277c.02-.051.013-.1.057-.156,1.869-3.532,4.616-7.038,8.45-8.419.1-.037.208.075.144.159a66.038,66.038,0,0,0-6.494,7.848,1.89,1.89,0,0,1,.372-.017c.077.015.107.062.186.1,1.988-.3,4.28,1.012,4.261,3.259,0,.024-.02.051-.014.076a1.633,1.633,0,0,1,.047,1.517.661.661,0,0,1-.811.342,2.023,2.023,0,0,1-1-.91,13.764,13.764,0,0,1-1.373,1.079c-.716.506-1.66,1.212-2.538.937a.133.133,0,0,1-.073-.191c.258-.8,1.205-1.26,1.82-1.78a13.961,13.961,0,0,0,1.292-1.369c-.374-.432-.79-.808-1.16-1.215a3.165,3.165,0,0,0-.7-.02c-1.713,1.616-4.957,2.259-7.085,2.2a6.771,6.771,0,0,1-2.246-.445.55.55,0,0,1-.506-.041,40.873,40.873,0,0,1-3.839-2.634c-1.488-1-2.347-1.331-4.154-.776a5.481,5.481,0,0,0-3.569,2.849,7.639,7.639,0,0,0-.924,4.82.5.5,0,0,1,.649.452c.209,3.819,4.036,2.363,5.573.292A5.882,5.882,0,0,0,540,28.528c.058-1.057-.456-2.046-.277-3.115.023-.027.045-.055.069-.057,1.651.486,2.12,2.854,2.065,4.357a6.454,6.454,0,0,1-2.808,5.161,5.213,5.213,0,0,1-2.99.913c.058.069.137.109.171.181a.666.666,0,0,0,.161.107c1.7.208,4.125-1.466,5.486-1.8a5.739,5.739,0,0,1,3.993.471,7.55,7.55,0,0,1,4.033,6.08,4.227,4.227,0,0,0,1.362.794,2.679,2.679,0,0,0,1.172-.007,8.012,8.012,0,0,0-.2-1.1c-.3-1.064-.64-2.122-.984-3.181-.032-.072.037-.129.116-.089a5.428,5.428,0,0,1,2.206,2.971,8.619,8.619,0,0,1,.305,1.138c.25-.2.526-.41.753-.61a19.517,19.517,0,0,0,3.168-3.08,7.859,7.859,0,0,0,.742-1.158,9.9,9.9,0,0,1-2.167-.427,6.281,6.281,0,0,1-3.026-1.6.1.1,0,0,1,.084-.133,20.646,20.646,0,0,1,3.473.7,15.062,15.062,0,0,1,2.114.384,6.409,6.409,0,0,0,.345-2.012c.023-.9-.057-1.166.538-1.857a.437.437,0,0,1,.615-.094c1.574,1.119.362,3.427-.318,4.9a16.26,16.26,0,0,1-4.543,5.707,3.7,3.7,0,0,0-.367.29c7.987,21.83,16.575,40.823,42.214,42.956a.458.458,0,0,1,0,.9C574.031,88.61,559.133,62.148,555.2,42.428c-1.282,1.019-2.91,2.05-4.511,1.584-4.108,15.267.064,26.547,9.581,38.321.265.345-.213.747-.538.536-11.966-8.077-14.86-25.694-9.462-39.036a2.139,2.139,0,0,1-1.284-1.649c-.024,0-.024,0-.051-.02-1.4-1.113-1.721-2.626-2.893-3.941-2.182-2.522-4.247-.94-6.956-.409a4.146,4.146,0,0,1-2.947-.464,45.61,45.61,0,0,0-1.391,14.132,22.328,22.328,0,0,1,7.417-11.372c.114-.086.285.092.2.2a26.385,26.385,0,0,0-6.524,10.673,16.906,16.906,0,0,0-.684,4.32,46.731,46.731,0,0,0,.995,4.8,26.158,26.158,0,0,1,5.073-12.032c.151-.191.427.028.3.241a26.329,26.329,0,0,0-3.911,10.826,25.763,25.763,0,0,0,.02,5.464,41.84,41.84,0,0,0,3.765,7.458,32.09,32.09,0,0,1,2.556-23.9.317.317,0,0,1,.275-.169A.3.3,0,0,1,544.5,48.407ZM620.294,60.1c.23-1.049.436-2.1.565-3.159-.895.027-1.765.052-2.642.025A30.819,30.819,0,0,1,620.294,60.1ZM546.65,13.424a27.685,27.685,0,0,0-1.132,2.772,15.521,15.521,0,0,0-.357,2.339c1.284-.771,2.62-1.52,3.964-2.222A18.376,18.376,0,0,1,554,9.372,32.515,32.515,0,0,0,546.65,13.424Zm8.567-4.54a19.246,19.246,0,0,0-3.838,4.652,17.958,17.958,0,0,0-1.071,2.219,65.242,65.242,0,0,1,14.067-4.865,18.79,18.79,0,0,1,6.07-3.01,10.163,10.163,0,0,1,.1-1.533A46.96,46.96,0,0,0,555.217,8.883ZM574.1,9.56c.184.28.362.533.565.786a7.311,7.311,0,0,1,.28-.831,9.409,9.409,0,0,1,.387-1.193c.188-.545.379-1.066.595-1.589A.843.843,0,0,1,576,6.5c.058-.157.12-.288.176-.444a13.442,13.442,0,0,1-.885-3.393,18.907,18.907,0,0,1-.1-5.032,33.133,33.133,0,0,0-2.05,5.025,27.222,27.222,0,0,0-.746,2.882c.082.266.161.53.243.821.079.266.163.555.27.841a6.732,6.732,0,0,0,.478,1.146,3.385,3.385,0,0,0,.22.4l.025,0A3.834,3.834,0,0,0,574.1,9.56Zm-4.122.369.441-.051a.073.073,0,0,1-.01-.1A2.544,2.544,0,0,0,569.981,9.929ZM370.47,88.491l-.29-.207c-2.942-2.09-2.843-5.723,0-7.829l.29-.214c1.406-1.04,3.386-.7,4.821,0a4.563,4.563,0,0,1,.625.335,4.428,4.428,0,0,1,0,7.564,4.867,4.867,0,0,1-.625.352,5.833,5.833,0,0,1-2.608.656A3.779,3.779,0,0,1,370.47,88.491ZM773.177,25.032c-9.432-.328-20.12-3.983-26.577-11.316-5.036-5.72-10.283-16.179-7.992-24.6h3.628c3.4,8.013,3.851,16.31,10.95,22.651,6.723,6.007,14.449,6.572,22.217,8.941.294-9.981,5.027-19.867,11.633-28.091v4.848c-8.188,11.778-11.063,27-3.65,43.88a.457.457,0,0,1-.751.51,32.154,32.154,0,0,1-6.8-14.685c-6.3,21.392-1.459,42.365,11.2,56.289v4.331C771.141,72.36,762.15,47.471,773.177,25.032ZM411.536,68.1c-21.569-21.42-23.036-55.481-5.772-78.991h5.229c-18.156,22.027-17.5,55.469,3.205,76.325C437.191,88.6,472.5,87.5,498.518,70.179c20.153-22.6,23.431-55.613,3.578-79.923q-.474-.58-.959-1.144H506.5c19.478,25.879,16.449,63.2-8.87,84.469a.832.832,0,0,1-.868.149,71.075,71.075,0,0,1-40.295,12.82A63.06,63.06,0,0,1,411.536,68.1Zm365.947-9.416a.54.54,0,0,1,1.026-.33c2.954,6.094,5.211,11.6,8.527,16.591V78.99C782.03,73.3,778.37,66.4,777.483,58.688Zm-48.289,8.32a10.1,10.1,0,0,1-.422-2.326,4.382,4.382,0,0,1,4.358-4.36c2.226.1,4.524,1.924,4.355,4.36a10.05,10.05,0,0,1-.421,2.326,4.116,4.116,0,0,1-7.87,0ZM473.26,67.1c-1.45-.595-3.523-1.513-3.959-3.2a2.592,2.592,0,0,1-.017-.263,1.541,1.541,0,0,1,.1-1.5c.022-.042.069-.062.094-.1a2.621,2.621,0,0,1,.573-.828c.721-2.954,1.834-5.5.783-8.709-.38-1.158-1.029-2.321-1.5-3.509-.374,2-.826,4-2.573,5.252a.128.128,0,0,1-.161-.022,9.4,9.4,0,0,1-3.461,2.54.158.158,0,0,1-.191-.246,10.943,10.943,0,0,0,3.014-7.459,24.963,24.963,0,0,1,0-3.529,6.7,6.7,0,0,1,2.03-4.02,8.427,8.427,0,0,1,5.08-1.79c3.787-.325,7.33.045,10.782-2.029.223-.131.526.141.37.37-.4.582-.784,1.1-1.18,1.584l0,0a8.534,8.534,0,0,1-.753.814.429.429,0,0,1-.065.054,6.476,6.476,0,0,1-1.911,1.27,14.342,14.342,0,0,1-4.7.6c-.193.027-.39.049-.575.079,2.332,2.036,3.9,5.329,5.071,8.23.032.032.074.04.1.086a21.93,21.93,0,0,1,1.988,6.6c.233,1.763.538,3.848-.075,5.575a.966.966,0,0,1,.186.865,5.646,5.646,0,0,1-5.705,3.967A8.866,8.866,0,0,1,473.26,67.1Zm-.88-4.875c-.3.052-.595.109-.89.171a4,4,0,0,0-.26.31,1.893,1.893,0,0,0,.31.65,1.57,1.57,0,0,0,.639,1.2c.571.191,1.229.288,1.725.427a.333.333,0,0,1,.211.191c.791.1,1.581.181,2.355.226a13.148,13.148,0,0,0,1.832.089c.076-.04.174-.045.247-.089a3.235,3.235,0,0,0,1.292-1.513,2.2,2.2,0,0,0-.488-.555c-.229-.157-.451-.318-.67-.486A7.765,7.765,0,0,0,478,62.47a6.355,6.355,0,0,0-2.759-.562A16.416,16.416,0,0,0,472.379,62.224Zm7.744-1.084c-.01-.466-.042-.928-.054-1.391a7.158,7.158,0,0,0-3.758-1.595c-.044,0-.042-.069-.012-.089a4.109,4.109,0,0,1,3.7-.3c-.013-.171,0-.342-.02-.51-.134-.439-.315-.873-.471-1.308-.461-.051-.917-.151-1.438-.178a8.3,8.3,0,0,0-.886.021,4.9,4.9,0,0,1-1.446-.056.125.125,0,0,1-.075-.181,3.647,3.647,0,0,1,3.185-1.373c-.2-.472-.438-.948-.66-1.421a3.038,3.038,0,0,1-1.309,0,3.918,3.918,0,0,0-1.474,0,.026.026,0,0,1-.025-.042,7.073,7.073,0,0,1,1.956-1.681c-.27-.486-.565-.967-.872-1.448a3.635,3.635,0,0,1-1.748,1.141.428.428,0,0,1-.511-.291c-.32-1.009.459-1.842,1.168-2.527-.216-.329-.421-.661-.63-.994a10.745,10.745,0,0,1-1.177.622.075.075,0,0,1-.112-.064,2.173,2.173,0,0,1,.7-1.575c-.095-.168-.186-.34-.278-.508a5.176,5.176,0,0,1-1.6.528c-.017,0-.027-.017-.024-.03a2.632,2.632,0,0,1,.84-1.346c-.392-.355-.77-.715-1.194-1.044a4.95,4.95,0,0,0-1.941,2.8,18.374,18.374,0,0,1,3.354,8.473,8.23,8.23,0,0,1-1.958,6.274c.285-.05.548-.085.813-.119a6.079,6.079,0,0,1,3.694-1.094A7.125,7.125,0,0,1,480.123,61.141Zm-51.674-5.052c2.992,0,3,4.65,0,4.65S425.454,56.089,428.449,56.089Zm-11.98-3.92c2.717,0,2.722,4.225,0,4.225S413.747,52.169,416.469,52.169Zm7.642-5.927c3.165,0,3.171,4.919,0,4.919S420.941,46.242,424.111,46.242Zm32.43-3.578c2.719,0,2.722,4.223,0,4.223S453.821,42.664,456.54,42.664Zm5.991-7.717c3.341,0,3.344,5.193,0,5.193S459.188,34.946,462.532,34.946Zm-10.184,2.081c-.069-.095-.143-.192-.215-.285-.61-.8.223-1.924,1.1-1.924s1.713,1.123,1.1,1.924c-.072.094-.144.191-.216.285a1.048,1.048,0,0,1-1.775,0Zm55.423-10.879a57.2,57.2,0,0,0-24.608-37.035h5.978a61.991,61.991,0,0,1,19.3,36.849.385.385,0,0,1-.383.438A.284.284,0,0,1,507.771,26.148Zm-91.362-12.37a2.564,2.564,0,0,1,4.33-1.8l.209.206a2.276,2.276,0,0,1,0,3.176c-.07.07-.139.139-.209.206a2.439,2.439,0,0,1-1.736.715A2.551,2.551,0,0,1,416.409,13.778ZM364,2.646q.469-1.343.893-2.737-.432.834-.893,1.655V-6.87c1.123-1.312,2.231-2.653,3.306-4.017h3.729q-.865,1.125-1.771,2.213a1.612,1.612,0,0,1,.575.972A27.744,27.744,0,0,1,364,15.43Zm45.471,9.2c-1.636-.985-.293-3.717,1.415-2.837a1.631,1.631,0,0,1-.595,3.083A1.581,1.581,0,0,1,409.471,11.841Zm4.779-6.1c-1.334-2.279,2-4.3,3.522-2.232,1.165,1.58-.361,3.235-1.857,3.235A1.879,1.879,0,0,1,414.25,5.741Zm181.482-3a42.528,42.528,0,0,1,8.129-13.628h4.17A137.052,137.052,0,0,0,595.95,2.892a.1.1,0,0,1-.082.051A.167.167,0,0,1,595.733,2.74Zm-5.775-4.96a35.853,35.853,0,0,1,3.535-8.668h.634a42.758,42.758,0,0,0-3.961,8.742.086.086,0,0,1-.087.068A.118.118,0,0,1,589.957-2.219Zm-177-2.649a26.958,26.958,0,0,1,6.627-6.019h8.565a65.058,65.058,0,0,0-15.1,6.141.091.091,0,0,1-.04.011A.079.079,0,0,1,412.961-4.868Zm175.091-3.8q.941-1.159,1.918-2.22h2.554c-1.285.966-2.594,1.915-3.951,2.835a.4.4,0,0,1-.209.062A.418.418,0,0,1,588.053-8.667Z" transform="translate(-363.75 11.137)" fill="#fff" stroke="#fff" stroke-width="0.5" opacity="0.7"/>
</svg>
