<svg xmlns="http://www.w3.org/2000/svg" xmlns:xlink="http://www.w3.org/1999/xlink" width="1080" height="1080" viewBox="0 0 1080 1080">
  <defs>
    <clipPath id="clip-promo-code-success">
      <rect width="1080" height="1080"/>
    </clipPath>
  </defs>
  <g id="promo-code-success" clip-path="url(#clip-promo-code-success)">
    <g id="confetti" transform="translate(38.881 39.092)">
      <path id="Path_5" data-name="Path 5" d="M119.1,1000.461H54.922c0-50.085,29.4-76.215,50.879-95.341,19.816-17.65,29.347-27,29.347-47.374s-9.531-29.756-29.347-47.39C84.325,791.263,54.922,765.1,54.922,715.024s29.4-76.215,50.879-95.333c19.816-17.65,29.347-27,29.347-47.333s-9.531-29.732-29.347-47.333C84.333,505.931,54.922,479.777,54.922,429.7s29.411-76.215,50.879-95.3c19.816-17.65,29.347-27,29.347-47.333s-9.531-29.74-29.347-47.333c-21.477-19.094-50.879-45.248-50.879-95.317S84.333,68.2,105.8,49.1c19.816-17.65,29.347-27,29.347-47.333h64.181c0,50.077-29.411,76.215-50.879,95.317-19.824,17.65-29.347,27-29.347,47.333s9.523,29.732,29.347,47.333c21.469,19.094,50.879,45.248,50.879,95.325s-29.411,76.215-50.887,95.309c-19.816,17.65-29.339,26.988-29.339,47.333s9.523,29.74,29.347,47.333c21.477,19.094,50.879,45.248,50.879,95.325s-29.4,76.215-50.879,95.333c-19.824,17.65-29.347,27-29.347,47.333s9.523,29.748,29.347,47.333c21.477,19.1,50.879,45.264,50.879,95.349s-29.4,76.215-50.879,95.341c-19.824,17.65-29.347,27.028-29.347,47.4Z" transform="translate(373.414 0.105)" fill="#28bf2e"/>
      <path id="Path_6" data-name="Path 6" d="M157.829,715.024H93.648c0-50.077,29.4-76.215,50.88-95.333,19.824-17.65,29.347-27,29.347-47.333s-9.523-29.732-29.347-47.333c-21.469-19.094-50.88-45.248-50.88-95.325s29.411-76.215,50.88-95.3c19.824-17.65,29.347-27,29.347-47.333s-9.523-29.74-29.347-47.333c-21.477-19.094-50.88-45.248-50.88-95.317S123.059,68.2,144.528,49.1c19.824-17.65,29.347-27,29.347-47.333h64.181c0,50.077-29.411,76.215-50.871,95.317-19.824,17.65-29.355,27-29.355,47.333s9.531,29.732,29.355,47.333c21.461,19.094,50.871,45.248,50.871,95.325s-29.411,76.215-50.88,95.309c-19.816,17.65-29.347,26.988-29.347,47.333s9.531,29.74,29.355,47.333c21.469,19.094,50.871,45.248,50.871,95.325s-29.4,76.215-50.871,95.333C167.36,685.285,157.829,694.663,157.829,715.024Z" transform="translate(645.372 0.105)" fill="#55da7d"/>
      <path id="Path_7" data-name="Path 7" d="M160.642,715.13H96.461c0-20.361-9.523-29.74-29.347-47.333C45.6,648.662,16.235,622.508,16.235,572.431S45.6,496.2,67.074,477.09c19.824-17.65,29.347-27,29.347-47.333S86.9,400.073,67.082,382.423c-21.477-19.086-50.887-45.232-50.887-95.309S45.606,210.9,67.074,191.79c19.824-17.65,29.347-27,29.347-47.333S86.9,114.725,67.074,97.123C45.606,77.973,16.235,51.827,16.235,1.75H80.416c0,20.353,9.531,29.732,29.347,47.333,21.469,19.094,50.879,45.24,50.879,95.317s-29.4,76.215-50.879,95.317c-19.816,17.65-29.347,27-29.347,47.334s9.531,29.684,29.347,47.333c21.428,19.158,50.879,45.28,50.879,95.373s-29.411,76.215-50.879,95.325c-19.816,17.65-29.347,27-29.347,47.333s9.531,29.74,29.347,47.333c21.436,19.15,50.879,45.3,50.879,95.381Z" transform="translate(101.449)" fill="#55da7d"/>
      <g id="Group_9" data-name="Group 9" transform="translate(63.096 103.413)">
        <path id="Path_8" data-name="Path 8" d="M0,0H66.66V66.66H0Z" transform="translate(509.573 47.129) rotate(-45)" fill="#28bf2e"/>
        <path id="Path_9" data-name="Path 9" d="M0,0H66.66V66.66H0Z" transform="translate(623.805 764.939) rotate(-45)" fill="#28bf2e"/>
        <path id="Path_10" data-name="Path 10" d="M0,0H66.66V66.66H0Z" transform="translate(843.696 334.716) rotate(-45)" fill="#28bf2e"/>
        <path id="Path_11" data-name="Path 11" d="M0,0H66.66V66.66H0Z" transform="translate(0 717.746) rotate(-45)" fill="#28bf2e"/>
        <path id="Path_12" data-name="Path 12" d="M0,0H66.66V66.66H0Z" transform="translate(221.598 444.88) rotate(-45)" fill="#28bf2e"/>
      </g>
      <path id="Path_13" data-name="Path 13" d="M167.5,94.162a46.417,46.417,0,1,0,0,.008Z" transform="translate(519.569 326.77)" fill="#55da7d"/>
      <path id="Path_14" data-name="Path 14" d="M130.6,74.43A45.881,45.881,0,1,1,84.726,28.557,45.883,45.883,0,0,1,130.6,74.43Z" transform="translate(260.469 188.255)" fill="#55da7d"/>
      <path id="Path_15" data-name="Path 15" d="M93.512,59.505a45.884,45.884,0,1,0,0,.005Z" transform="translate(0 83.387)" fill="#55da7d"/>
      <path id="Path_16" data-name="Path 16" d="M126.787,148.9a45.881,45.881,0,1,1-45.881-45.881A45.881,45.881,0,0,1,126.787,148.9Z" transform="translate(233.678 711.146)" fill="#55da7d"/>
      <path id="Path_17" data-name="Path 17" d="M206.5,140.771A45.881,45.881,0,1,1,160.615,94.89,45.881,45.881,0,0,1,206.5,140.771Z" transform="translate(793.451 654.087)" fill="#55da7d"/>
    </g>
  </g>
</svg>
