<svg xmlns="http://www.w3.org/2000/svg" xmlns:xlink="http://www.w3.org/1999/xlink" width="1080" height="1080" viewBox="0 0 1080 1080">
  <defs>
    <clipPath id="clip-promo-code-default">
      <rect width="1080" height="1080"/>
    </clipPath>
  </defs>
  <g id="promo-code-default" clip-path="url(#clip-promo-code-default)">
    <g id="discount" transform="translate(11.14 0.008)">
      <g id="Group_2" data-name="Group 2" transform="translate(10.359 -0.002)">
        <g id="Group_1" data-name="Group 1">
          <path id="Path_1" data-name="Path 1" d="M996.684,553.984a31.65,31.65,0,0,1,0-27.976l40.28-82.4a93.754,93.754,0,0,0-40.453-124.5l-81.02-42.988a31.65,31.65,0,0,1-16.444-22.631L883.2,163.147A93.759,93.759,0,0,0,777.3,86.2L686.482,99.046A31.649,31.649,0,0,1,659.877,90.4L593.958,26.63a93.749,93.749,0,0,0-130.908,0L397.13,90.406a31.66,31.66,0,0,1-26.605,8.646L279.711,86.207a93.746,93.746,0,0,0-105.906,76.947L157.96,253.49a31.656,31.656,0,0,1-16.442,22.633L60.5,319.111a93.756,93.756,0,0,0-40.453,124.5l40.278,82.4a31.649,31.649,0,0,1,0,27.976l-40.28,82.4A93.754,93.754,0,0,0,60.5,760.887l81.02,42.988a31.65,31.65,0,0,1,16.444,22.631l15.845,90.341a93.7,93.7,0,0,0,92.421,77.9,96.321,96.321,0,0,0,13.487-.953l90.813-12.846a31.64,31.64,0,0,1,26.605,8.646l65.919,63.77a93.751,93.751,0,0,0,130.906,0l65.921-63.769a31.682,31.682,0,0,1,26.605-8.646L777.3,993.792A93.744,93.744,0,0,0,883.2,916.845l15.847-90.337a31.657,31.657,0,0,1,16.442-22.633l81.02-42.988a93.755,93.755,0,0,0,40.453-124.5ZM967.315,705.861,886.3,748.849a93.542,93.542,0,0,0-48.6,66.893l-15.845,90.339a31.72,31.72,0,0,1-35.831,26.034l-90.813-12.846a93.517,93.517,0,0,0-78.638,25.55l-65.921,63.767a31.724,31.724,0,0,1-44.29,0l-65.919-63.77a93.446,93.446,0,0,0-65.233-26.5,95.614,95.614,0,0,0-13.4.947l-90.813,12.846a31.728,31.728,0,0,1-35.831-26.034l-15.847-90.341a93.533,93.533,0,0,0-48.6-66.891l-81.02-42.988A31.719,31.719,0,0,1,76,663.737l40.28-82.4a93.541,93.541,0,0,0,0-82.682L76,416.253a31.719,31.719,0,0,1,13.688-42.121l81.02-42.988a93.543,93.543,0,0,0,48.6-66.893l15.845-90.339a31.719,31.719,0,0,1,35.831-26.033L361.8,160.723a93.541,93.541,0,0,0,78.638-25.55L506.355,71.4a31.724,31.724,0,0,1,44.29,0l65.919,63.77a93.53,93.53,0,0,0,78.638,25.55l90.813-12.846a31.724,31.724,0,0,1,35.831,26.033l15.845,90.341a93.534,93.534,0,0,0,48.6,66.891l81.02,42.988A31.719,31.719,0,0,1,981,416.253l-40.28,82.4a93.541,93.541,0,0,0,0,82.682l40.28,82.4A31.723,31.723,0,0,1,967.315,705.861Z" transform="translate(-10.359 0.002)" fill="#2b2b2b"/>
        </g>
      </g>
      <g id="Group_4" data-name="Group 4" transform="translate(291.813 303.307)">
        <g id="Group_3" data-name="Group 3">
          <path id="Path_2" data-name="Path 2" d="M608.045,152.913a31.145,31.145,0,0,0-44.045,0L152.913,564a31.144,31.144,0,1,0,44.043,44.045L608.043,196.961A31.142,31.142,0,0,0,608.045,152.913Z" transform="translate(-143.791 -143.791)" fill="#2b2b2b"/>
        </g>
      </g>
      <g id="Group_6" data-name="Group 6" transform="translate(289.726 259.695)">
        <g id="Group_5" data-name="Group 5">
          <path id="Path_3" data-name="Path 3" d="M257,123.116a114.2,114.2,0,1,0,114.2,114.2A114.328,114.328,0,0,0,257,123.116Zm0,166.1a51.908,51.908,0,1,1,51.909-51.909A51.966,51.966,0,0,1,257,289.22Z" transform="translate(-142.802 -123.116)" fill="#2b2b2b"/>
        </g>
      </g>
      <g id="Group_8" data-name="Group 8" transform="translate(538.881 591.904)">
        <g id="Group_7" data-name="Group 7">
          <path id="Path_4" data-name="Path 4" d="M375.119,280.61a114.2,114.2,0,1,0,114.2,114.2A114.328,114.328,0,0,0,375.119,280.61Zm0,166.1a51.907,51.907,0,1,1,51.907-51.907A51.967,51.967,0,0,1,375.119,446.714Z" transform="translate(-260.922 -280.61)" fill="#2b2b2b"/>
        </g>
      </g>
    </g>
  </g>
</svg>
